G04 #@! TF.GenerationSoftware,KiCad,Pcbnew,(5.1.2)-1*
G04 #@! TF.CreationDate,2020-06-04T19:21:38+03:00*
G04 #@! TF.ProjectId,alpha,616c7068-612e-46b6-9963-61645f706362,rev?*
G04 #@! TF.SameCoordinates,Original*
G04 #@! TF.FileFunction,Soldermask,Bot*
G04 #@! TF.FilePolarity,Negative*
%FSLAX46Y46*%
G04 Gerber Fmt 4.6, Leading zero omitted, Abs format (unit mm)*
G04 Created by KiCad (PCBNEW (5.1.2)-1) date 2020-06-04 19:21:38*
%MOMM*%
%LPD*%
G04 APERTURE LIST*
%ADD10C,0.050000*%
%ADD11C,0.100000*%
G04 APERTURE END LIST*
D10*
X116840000Y-121920000D02*
X116840000Y-71120000D01*
X187960000Y-121920000D02*
X116840000Y-121920000D01*
X187960000Y-71120000D02*
X187960000Y-121920000D01*
X116840000Y-71120000D02*
X187960000Y-71120000D01*
D11*
G36*
X144706000Y-121041000D02*
G01*
X143104000Y-121041000D01*
X143104000Y-118939000D01*
X144706000Y-118939000D01*
X144706000Y-121041000D01*
X144706000Y-121041000D01*
G37*
G36*
X142406000Y-121041000D02*
G01*
X140804000Y-121041000D01*
X140804000Y-118939000D01*
X142406000Y-118939000D01*
X142406000Y-121041000D01*
X142406000Y-121041000D01*
G37*
G36*
X140106000Y-121041000D02*
G01*
X138504000Y-121041000D01*
X138504000Y-118939000D01*
X140106000Y-118939000D01*
X140106000Y-121041000D01*
X140106000Y-121041000D01*
G37*
G36*
X185644549Y-118251116D02*
G01*
X185755734Y-118273232D01*
X185965203Y-118359997D01*
X186153720Y-118485960D01*
X186314040Y-118646280D01*
X186440003Y-118834797D01*
X186512989Y-119011000D01*
X186526768Y-119044267D01*
X186571000Y-119266635D01*
X186571000Y-119493365D01*
X186552191Y-119587925D01*
X186526768Y-119715734D01*
X186440003Y-119925203D01*
X186314040Y-120113720D01*
X186153720Y-120274040D01*
X185965203Y-120400003D01*
X185755734Y-120486768D01*
X185644549Y-120508884D01*
X185533365Y-120531000D01*
X185306635Y-120531000D01*
X185195451Y-120508884D01*
X185084266Y-120486768D01*
X184874797Y-120400003D01*
X184686280Y-120274040D01*
X184525960Y-120113720D01*
X184399997Y-119925203D01*
X184313232Y-119715734D01*
X184287809Y-119587925D01*
X184269000Y-119493365D01*
X184269000Y-119266635D01*
X184313232Y-119044267D01*
X184327012Y-119011000D01*
X184399997Y-118834797D01*
X184525960Y-118646280D01*
X184686280Y-118485960D01*
X184874797Y-118359997D01*
X185084266Y-118273232D01*
X185195451Y-118251116D01*
X185306635Y-118229000D01*
X185533365Y-118229000D01*
X185644549Y-118251116D01*
X185644549Y-118251116D01*
G37*
G36*
X119604549Y-118251116D02*
G01*
X119715734Y-118273232D01*
X119925203Y-118359997D01*
X120113720Y-118485960D01*
X120274040Y-118646280D01*
X120400003Y-118834797D01*
X120472989Y-119011000D01*
X120486768Y-119044267D01*
X120531000Y-119266635D01*
X120531000Y-119493365D01*
X120512191Y-119587925D01*
X120486768Y-119715734D01*
X120400003Y-119925203D01*
X120274040Y-120113720D01*
X120113720Y-120274040D01*
X119925203Y-120400003D01*
X119715734Y-120486768D01*
X119604549Y-120508884D01*
X119493365Y-120531000D01*
X119266635Y-120531000D01*
X119155451Y-120508884D01*
X119044266Y-120486768D01*
X118834797Y-120400003D01*
X118646280Y-120274040D01*
X118485960Y-120113720D01*
X118359997Y-119925203D01*
X118273232Y-119715734D01*
X118247809Y-119587925D01*
X118229000Y-119493365D01*
X118229000Y-119266635D01*
X118273232Y-119044267D01*
X118287012Y-119011000D01*
X118359997Y-118834797D01*
X118485960Y-118646280D01*
X118646280Y-118485960D01*
X118834797Y-118359997D01*
X119044266Y-118273232D01*
X119155451Y-118251116D01*
X119266635Y-118229000D01*
X119493365Y-118229000D01*
X119604549Y-118251116D01*
X119604549Y-118251116D01*
G37*
G36*
X133036000Y-120046000D02*
G01*
X132034000Y-120046000D01*
X132034000Y-117444000D01*
X133036000Y-117444000D01*
X133036000Y-120046000D01*
X133036000Y-120046000D01*
G37*
G36*
X135936000Y-120046000D02*
G01*
X134934000Y-120046000D01*
X134934000Y-117444000D01*
X135936000Y-117444000D01*
X135936000Y-120046000D01*
X135936000Y-120046000D01*
G37*
G36*
X147486000Y-119876000D02*
G01*
X145884000Y-119876000D01*
X145884000Y-117824000D01*
X147486000Y-117824000D01*
X147486000Y-119876000D01*
X147486000Y-119876000D01*
G37*
G36*
X124189903Y-117182075D02*
G01*
X124410761Y-117273557D01*
X124417571Y-117276378D01*
X124622466Y-117413285D01*
X124796715Y-117587534D01*
X124914315Y-117763534D01*
X124933623Y-117792431D01*
X125027925Y-118020097D01*
X125076000Y-118261786D01*
X125076000Y-118508214D01*
X125048537Y-118646280D01*
X125027925Y-118749903D01*
X124933622Y-118977571D01*
X124796715Y-119182466D01*
X124622466Y-119356715D01*
X124417571Y-119493622D01*
X124417570Y-119493623D01*
X124417569Y-119493623D01*
X124189903Y-119587925D01*
X123948214Y-119636000D01*
X123701786Y-119636000D01*
X123460097Y-119587925D01*
X123232431Y-119493623D01*
X123232430Y-119493623D01*
X123232429Y-119493622D01*
X123027534Y-119356715D01*
X122853285Y-119182466D01*
X122716378Y-118977571D01*
X122622075Y-118749903D01*
X122601463Y-118646280D01*
X122574000Y-118508214D01*
X122574000Y-118261786D01*
X122622075Y-118020097D01*
X122716377Y-117792431D01*
X122735685Y-117763534D01*
X122853285Y-117587534D01*
X123027534Y-117413285D01*
X123232429Y-117276378D01*
X123239240Y-117273557D01*
X123460097Y-117182075D01*
X123701786Y-117134000D01*
X123948214Y-117134000D01*
X124189903Y-117182075D01*
X124189903Y-117182075D01*
G37*
G36*
X167750443Y-117215519D02*
G01*
X167816627Y-117222037D01*
X167986466Y-117273557D01*
X168142991Y-117357222D01*
X168178729Y-117386552D01*
X168280186Y-117469814D01*
X168363448Y-117571271D01*
X168392778Y-117607009D01*
X168476443Y-117763534D01*
X168527963Y-117933373D01*
X168545359Y-118110000D01*
X168527963Y-118286627D01*
X168476443Y-118456466D01*
X168392778Y-118612991D01*
X168365458Y-118646280D01*
X168280186Y-118750186D01*
X168178729Y-118833448D01*
X168142991Y-118862778D01*
X167986466Y-118946443D01*
X167816627Y-118997963D01*
X167750443Y-119004481D01*
X167684260Y-119011000D01*
X167595740Y-119011000D01*
X167529557Y-119004481D01*
X167463373Y-118997963D01*
X167293534Y-118946443D01*
X167137009Y-118862778D01*
X167101271Y-118833448D01*
X166999814Y-118750186D01*
X166914542Y-118646280D01*
X166887222Y-118612991D01*
X166803557Y-118456466D01*
X166752037Y-118286627D01*
X166734641Y-118110000D01*
X166752037Y-117933373D01*
X166803557Y-117763534D01*
X166887222Y-117607009D01*
X166916552Y-117571271D01*
X166999814Y-117469814D01*
X167101271Y-117386552D01*
X167137009Y-117357222D01*
X167293534Y-117273557D01*
X167463373Y-117222037D01*
X167529557Y-117215519D01*
X167595740Y-117209000D01*
X167684260Y-117209000D01*
X167750443Y-117215519D01*
X167750443Y-117215519D01*
G37*
G36*
X163461000Y-119011000D02*
G01*
X161659000Y-119011000D01*
X161659000Y-117209000D01*
X163461000Y-117209000D01*
X163461000Y-119011000D01*
X163461000Y-119011000D01*
G37*
G36*
X160130443Y-117215519D02*
G01*
X160196627Y-117222037D01*
X160366466Y-117273557D01*
X160522991Y-117357222D01*
X160558729Y-117386552D01*
X160660186Y-117469814D01*
X160743448Y-117571271D01*
X160772778Y-117607009D01*
X160856443Y-117763534D01*
X160907963Y-117933373D01*
X160925359Y-118110000D01*
X160907963Y-118286627D01*
X160856443Y-118456466D01*
X160772778Y-118612991D01*
X160745458Y-118646280D01*
X160660186Y-118750186D01*
X160558729Y-118833448D01*
X160522991Y-118862778D01*
X160366466Y-118946443D01*
X160196627Y-118997963D01*
X160130443Y-119004481D01*
X160064260Y-119011000D01*
X159975740Y-119011000D01*
X159909557Y-119004481D01*
X159843373Y-118997963D01*
X159673534Y-118946443D01*
X159517009Y-118862778D01*
X159481271Y-118833448D01*
X159379814Y-118750186D01*
X159294542Y-118646280D01*
X159267222Y-118612991D01*
X159183557Y-118456466D01*
X159132037Y-118286627D01*
X159114641Y-118110000D01*
X159132037Y-117933373D01*
X159183557Y-117763534D01*
X159267222Y-117607009D01*
X159296552Y-117571271D01*
X159379814Y-117469814D01*
X159481271Y-117386552D01*
X159517009Y-117357222D01*
X159673534Y-117273557D01*
X159843373Y-117222037D01*
X159909557Y-117215519D01*
X159975740Y-117209000D01*
X160064260Y-117209000D01*
X160130443Y-117215519D01*
X160130443Y-117215519D01*
G37*
G36*
X157590443Y-117215519D02*
G01*
X157656627Y-117222037D01*
X157826466Y-117273557D01*
X157982991Y-117357222D01*
X158018729Y-117386552D01*
X158120186Y-117469814D01*
X158203448Y-117571271D01*
X158232778Y-117607009D01*
X158316443Y-117763534D01*
X158367963Y-117933373D01*
X158385359Y-118110000D01*
X158367963Y-118286627D01*
X158316443Y-118456466D01*
X158232778Y-118612991D01*
X158205458Y-118646280D01*
X158120186Y-118750186D01*
X158018729Y-118833448D01*
X157982991Y-118862778D01*
X157826466Y-118946443D01*
X157656627Y-118997963D01*
X157590443Y-119004481D01*
X157524260Y-119011000D01*
X157435740Y-119011000D01*
X157369557Y-119004481D01*
X157303373Y-118997963D01*
X157133534Y-118946443D01*
X156977009Y-118862778D01*
X156941271Y-118833448D01*
X156839814Y-118750186D01*
X156754542Y-118646280D01*
X156727222Y-118612991D01*
X156643557Y-118456466D01*
X156592037Y-118286627D01*
X156574641Y-118110000D01*
X156592037Y-117933373D01*
X156643557Y-117763534D01*
X156727222Y-117607009D01*
X156756552Y-117571271D01*
X156839814Y-117469814D01*
X156941271Y-117386552D01*
X156977009Y-117357222D01*
X157133534Y-117273557D01*
X157303373Y-117222037D01*
X157369557Y-117215519D01*
X157435740Y-117209000D01*
X157524260Y-117209000D01*
X157590443Y-117215519D01*
X157590443Y-117215519D01*
G37*
G36*
X173621000Y-119011000D02*
G01*
X171819000Y-119011000D01*
X171819000Y-117209000D01*
X173621000Y-117209000D01*
X173621000Y-119011000D01*
X173621000Y-119011000D01*
G37*
G36*
X170290443Y-117215519D02*
G01*
X170356627Y-117222037D01*
X170526466Y-117273557D01*
X170682991Y-117357222D01*
X170718729Y-117386552D01*
X170820186Y-117469814D01*
X170903448Y-117571271D01*
X170932778Y-117607009D01*
X171016443Y-117763534D01*
X171067963Y-117933373D01*
X171085359Y-118110000D01*
X171067963Y-118286627D01*
X171016443Y-118456466D01*
X170932778Y-118612991D01*
X170905458Y-118646280D01*
X170820186Y-118750186D01*
X170718729Y-118833448D01*
X170682991Y-118862778D01*
X170526466Y-118946443D01*
X170356627Y-118997963D01*
X170290443Y-119004481D01*
X170224260Y-119011000D01*
X170135740Y-119011000D01*
X170069557Y-119004481D01*
X170003373Y-118997963D01*
X169833534Y-118946443D01*
X169677009Y-118862778D01*
X169641271Y-118833448D01*
X169539814Y-118750186D01*
X169454542Y-118646280D01*
X169427222Y-118612991D01*
X169343557Y-118456466D01*
X169292037Y-118286627D01*
X169274641Y-118110000D01*
X169292037Y-117933373D01*
X169343557Y-117763534D01*
X169427222Y-117607009D01*
X169456552Y-117571271D01*
X169539814Y-117469814D01*
X169641271Y-117386552D01*
X169677009Y-117357222D01*
X169833534Y-117273557D01*
X170003373Y-117222037D01*
X170069557Y-117215519D01*
X170135740Y-117209000D01*
X170224260Y-117209000D01*
X170290443Y-117215519D01*
X170290443Y-117215519D01*
G37*
G36*
X147486000Y-117126000D02*
G01*
X145884000Y-117126000D01*
X145884000Y-115074000D01*
X147486000Y-115074000D01*
X147486000Y-117126000D01*
X147486000Y-117126000D01*
G37*
G36*
X133036000Y-116871000D02*
G01*
X130934000Y-116871000D01*
X130934000Y-114269000D01*
X133036000Y-114269000D01*
X133036000Y-116871000D01*
X133036000Y-116871000D01*
G37*
G36*
X137036000Y-116871000D02*
G01*
X134934000Y-116871000D01*
X134934000Y-114269000D01*
X137036000Y-114269000D01*
X137036000Y-116871000D01*
X137036000Y-116871000D01*
G37*
G36*
X159571000Y-116246000D02*
G01*
X158469000Y-116246000D01*
X158469000Y-114894000D01*
X159571000Y-114894000D01*
X159571000Y-116246000D01*
X159571000Y-116246000D01*
G37*
G36*
X161571000Y-116246000D02*
G01*
X160469000Y-116246000D01*
X160469000Y-114894000D01*
X161571000Y-114894000D01*
X161571000Y-116246000D01*
X161571000Y-116246000D01*
G37*
G36*
X171731000Y-116246000D02*
G01*
X170629000Y-116246000D01*
X170629000Y-114894000D01*
X171731000Y-114894000D01*
X171731000Y-116246000D01*
X171731000Y-116246000D01*
G37*
G36*
X169731000Y-116246000D02*
G01*
X168629000Y-116246000D01*
X168629000Y-114894000D01*
X169731000Y-114894000D01*
X169731000Y-116246000D01*
X169731000Y-116246000D01*
G37*
G36*
X186321000Y-115836000D02*
G01*
X184519000Y-115836000D01*
X184519000Y-114034000D01*
X186321000Y-114034000D01*
X186321000Y-115836000D01*
X186321000Y-115836000D01*
G37*
G36*
X182990442Y-114040518D02*
G01*
X183056627Y-114047037D01*
X183226466Y-114098557D01*
X183382991Y-114182222D01*
X183418729Y-114211552D01*
X183520186Y-114294814D01*
X183590916Y-114381000D01*
X183632778Y-114432009D01*
X183716443Y-114588534D01*
X183767963Y-114758373D01*
X183785359Y-114935000D01*
X183767963Y-115111627D01*
X183716443Y-115281466D01*
X183632778Y-115437991D01*
X183603448Y-115473729D01*
X183520186Y-115575186D01*
X183418729Y-115658448D01*
X183382991Y-115687778D01*
X183226466Y-115771443D01*
X183056627Y-115822963D01*
X182990443Y-115829481D01*
X182924260Y-115836000D01*
X182835740Y-115836000D01*
X182769557Y-115829481D01*
X182703373Y-115822963D01*
X182533534Y-115771443D01*
X182377009Y-115687778D01*
X182341271Y-115658448D01*
X182239814Y-115575186D01*
X182156552Y-115473729D01*
X182127222Y-115437991D01*
X182043557Y-115281466D01*
X181992037Y-115111627D01*
X181974641Y-114935000D01*
X181992037Y-114758373D01*
X182043557Y-114588534D01*
X182127222Y-114432009D01*
X182169084Y-114381000D01*
X182239814Y-114294814D01*
X182341271Y-114211552D01*
X182377009Y-114182222D01*
X182533534Y-114098557D01*
X182703373Y-114047037D01*
X182769558Y-114040518D01*
X182835740Y-114034000D01*
X182924260Y-114034000D01*
X182990442Y-114040518D01*
X182990442Y-114040518D01*
G37*
G36*
X179791000Y-115636000D02*
G01*
X178989000Y-115636000D01*
X178989000Y-114234000D01*
X179791000Y-114234000D01*
X179791000Y-115636000D01*
X179791000Y-115636000D01*
G37*
G36*
X181691000Y-115636000D02*
G01*
X180889000Y-115636000D01*
X180889000Y-114234000D01*
X181691000Y-114234000D01*
X181691000Y-115636000D01*
X181691000Y-115636000D01*
G37*
G36*
X143556000Y-114741000D02*
G01*
X139654000Y-114741000D01*
X139654000Y-112639000D01*
X143556000Y-112639000D01*
X143556000Y-114741000D01*
X143556000Y-114741000D01*
G37*
G36*
X160721000Y-114381000D02*
G01*
X159319000Y-114381000D01*
X159319000Y-113579000D01*
X160721000Y-113579000D01*
X160721000Y-114381000D01*
X160721000Y-114381000D01*
G37*
G36*
X170881000Y-114381000D02*
G01*
X169479000Y-114381000D01*
X169479000Y-113579000D01*
X170881000Y-113579000D01*
X170881000Y-114381000D01*
X170881000Y-114381000D01*
G37*
G36*
X154391000Y-113731000D02*
G01*
X153589000Y-113731000D01*
X153589000Y-112329000D01*
X154391000Y-112329000D01*
X154391000Y-113731000D01*
X154391000Y-113731000D01*
G37*
G36*
X156291000Y-113731000D02*
G01*
X155489000Y-113731000D01*
X155489000Y-112329000D01*
X156291000Y-112329000D01*
X156291000Y-113731000D01*
X156291000Y-113731000D01*
G37*
G36*
X185530443Y-111500519D02*
G01*
X185596627Y-111507037D01*
X185766466Y-111558557D01*
X185922991Y-111642222D01*
X185958729Y-111671552D01*
X186060186Y-111754814D01*
X186143448Y-111856271D01*
X186172778Y-111892009D01*
X186256443Y-112048534D01*
X186307963Y-112218373D01*
X186325359Y-112395000D01*
X186307963Y-112571627D01*
X186256443Y-112741466D01*
X186172778Y-112897991D01*
X186143448Y-112933729D01*
X186060186Y-113035186D01*
X185958729Y-113118448D01*
X185922991Y-113147778D01*
X185766466Y-113231443D01*
X185596627Y-113282963D01*
X185530443Y-113289481D01*
X185464260Y-113296000D01*
X185375740Y-113296000D01*
X185309557Y-113289481D01*
X185243373Y-113282963D01*
X185073534Y-113231443D01*
X184917009Y-113147778D01*
X184881271Y-113118448D01*
X184779814Y-113035186D01*
X184696552Y-112933729D01*
X184667222Y-112897991D01*
X184583557Y-112741466D01*
X184532037Y-112571627D01*
X184514641Y-112395000D01*
X184532037Y-112218373D01*
X184583557Y-112048534D01*
X184667222Y-111892009D01*
X184696552Y-111856271D01*
X184779814Y-111754814D01*
X184881271Y-111671552D01*
X184917009Y-111642222D01*
X185073534Y-111558557D01*
X185243373Y-111507037D01*
X185309557Y-111500519D01*
X185375740Y-111494000D01*
X185464260Y-111494000D01*
X185530443Y-111500519D01*
X185530443Y-111500519D01*
G37*
G36*
X182990443Y-111500519D02*
G01*
X183056627Y-111507037D01*
X183226466Y-111558557D01*
X183382991Y-111642222D01*
X183418729Y-111671552D01*
X183520186Y-111754814D01*
X183603448Y-111856271D01*
X183632778Y-111892009D01*
X183716443Y-112048534D01*
X183767963Y-112218373D01*
X183785359Y-112395000D01*
X183767963Y-112571627D01*
X183716443Y-112741466D01*
X183632778Y-112897991D01*
X183603448Y-112933729D01*
X183520186Y-113035186D01*
X183418729Y-113118448D01*
X183382991Y-113147778D01*
X183226466Y-113231443D01*
X183056627Y-113282963D01*
X182990443Y-113289481D01*
X182924260Y-113296000D01*
X182835740Y-113296000D01*
X182769557Y-113289481D01*
X182703373Y-113282963D01*
X182533534Y-113231443D01*
X182377009Y-113147778D01*
X182341271Y-113118448D01*
X182239814Y-113035186D01*
X182156552Y-112933729D01*
X182127222Y-112897991D01*
X182043557Y-112741466D01*
X181992037Y-112571627D01*
X181974641Y-112395000D01*
X181992037Y-112218373D01*
X182043557Y-112048534D01*
X182127222Y-111892009D01*
X182156552Y-111856271D01*
X182239814Y-111754814D01*
X182341271Y-111671552D01*
X182377009Y-111642222D01*
X182533534Y-111558557D01*
X182703373Y-111507037D01*
X182769557Y-111500519D01*
X182835740Y-111494000D01*
X182924260Y-111494000D01*
X182990443Y-111500519D01*
X182990443Y-111500519D01*
G37*
G36*
X179791000Y-113096000D02*
G01*
X178989000Y-113096000D01*
X178989000Y-111694000D01*
X179791000Y-111694000D01*
X179791000Y-113096000D01*
X179791000Y-113096000D01*
G37*
G36*
X181691000Y-113096000D02*
G01*
X180889000Y-113096000D01*
X180889000Y-111694000D01*
X181691000Y-111694000D01*
X181691000Y-113096000D01*
X181691000Y-113096000D01*
G37*
G36*
X133166000Y-112766000D02*
G01*
X132064000Y-112766000D01*
X132064000Y-112024000D01*
X133166000Y-112024000D01*
X133166000Y-112766000D01*
X133166000Y-112766000D01*
G37*
G36*
X127016000Y-112766000D02*
G01*
X125914000Y-112766000D01*
X125914000Y-112024000D01*
X127016000Y-112024000D01*
X127016000Y-112766000D01*
X127016000Y-112766000D01*
G37*
G36*
X160721000Y-112481000D02*
G01*
X159319000Y-112481000D01*
X159319000Y-111679000D01*
X160721000Y-111679000D01*
X160721000Y-112481000D01*
X160721000Y-112481000D01*
G37*
G36*
X170881000Y-112481000D02*
G01*
X169479000Y-112481000D01*
X169479000Y-111679000D01*
X170881000Y-111679000D01*
X170881000Y-112481000D01*
X170881000Y-112481000D01*
G37*
G36*
X182990443Y-108960519D02*
G01*
X183056627Y-108967037D01*
X183226466Y-109018557D01*
X183382991Y-109102222D01*
X183418729Y-109131552D01*
X183520186Y-109214814D01*
X183603448Y-109316271D01*
X183632778Y-109352009D01*
X183716443Y-109508534D01*
X183767963Y-109678373D01*
X183785359Y-109855000D01*
X183767963Y-110031627D01*
X183716443Y-110201466D01*
X183632778Y-110357991D01*
X183603448Y-110393729D01*
X183520186Y-110495186D01*
X183418729Y-110578448D01*
X183382991Y-110607778D01*
X183226466Y-110691443D01*
X183056627Y-110742963D01*
X182990442Y-110749482D01*
X182924260Y-110756000D01*
X182835740Y-110756000D01*
X182769558Y-110749482D01*
X182703373Y-110742963D01*
X182533534Y-110691443D01*
X182377009Y-110607778D01*
X182341271Y-110578448D01*
X182239814Y-110495186D01*
X182156552Y-110393729D01*
X182127222Y-110357991D01*
X182043557Y-110201466D01*
X181992037Y-110031627D01*
X181974641Y-109855000D01*
X181992037Y-109678373D01*
X182043557Y-109508534D01*
X182127222Y-109352009D01*
X182156552Y-109316271D01*
X182239814Y-109214814D01*
X182341271Y-109131552D01*
X182377009Y-109102222D01*
X182533534Y-109018557D01*
X182703373Y-108967037D01*
X182769557Y-108960519D01*
X182835740Y-108954000D01*
X182924260Y-108954000D01*
X182990443Y-108960519D01*
X182990443Y-108960519D01*
G37*
G36*
X185530443Y-108960519D02*
G01*
X185596627Y-108967037D01*
X185766466Y-109018557D01*
X185922991Y-109102222D01*
X185958729Y-109131552D01*
X186060186Y-109214814D01*
X186143448Y-109316271D01*
X186172778Y-109352009D01*
X186256443Y-109508534D01*
X186307963Y-109678373D01*
X186325359Y-109855000D01*
X186307963Y-110031627D01*
X186256443Y-110201466D01*
X186172778Y-110357991D01*
X186143448Y-110393729D01*
X186060186Y-110495186D01*
X185958729Y-110578448D01*
X185922991Y-110607778D01*
X185766466Y-110691443D01*
X185596627Y-110742963D01*
X185530442Y-110749482D01*
X185464260Y-110756000D01*
X185375740Y-110756000D01*
X185309558Y-110749482D01*
X185243373Y-110742963D01*
X185073534Y-110691443D01*
X184917009Y-110607778D01*
X184881271Y-110578448D01*
X184779814Y-110495186D01*
X184696552Y-110393729D01*
X184667222Y-110357991D01*
X184583557Y-110201466D01*
X184532037Y-110031627D01*
X184514641Y-109855000D01*
X184532037Y-109678373D01*
X184583557Y-109508534D01*
X184667222Y-109352009D01*
X184696552Y-109316271D01*
X184779814Y-109214814D01*
X184881271Y-109131552D01*
X184917009Y-109102222D01*
X185073534Y-109018557D01*
X185243373Y-108967037D01*
X185309557Y-108960519D01*
X185375740Y-108954000D01*
X185464260Y-108954000D01*
X185530443Y-108960519D01*
X185530443Y-108960519D01*
G37*
G36*
X118911823Y-109016313D02*
G01*
X119072242Y-109064976D01*
X119141922Y-109102221D01*
X119220078Y-109143996D01*
X119349659Y-109250341D01*
X119456004Y-109379922D01*
X119456005Y-109379924D01*
X119535024Y-109527758D01*
X119583687Y-109688177D01*
X119600117Y-109855000D01*
X119583687Y-110021823D01*
X119535024Y-110182242D01*
X119464114Y-110314906D01*
X119456004Y-110330078D01*
X119349659Y-110459659D01*
X119220078Y-110566004D01*
X119220076Y-110566005D01*
X119072242Y-110645024D01*
X118911823Y-110693687D01*
X118786804Y-110706000D01*
X118703196Y-110706000D01*
X118578177Y-110693687D01*
X118417758Y-110645024D01*
X118269924Y-110566005D01*
X118269922Y-110566004D01*
X118140341Y-110459659D01*
X118033996Y-110330078D01*
X118025886Y-110314906D01*
X117954976Y-110182242D01*
X117906313Y-110021823D01*
X117889883Y-109855000D01*
X117906313Y-109688177D01*
X117954976Y-109527758D01*
X118033995Y-109379924D01*
X118033996Y-109379922D01*
X118140341Y-109250341D01*
X118269922Y-109143996D01*
X118348078Y-109102221D01*
X118417758Y-109064976D01*
X118578177Y-109016313D01*
X118703196Y-109004000D01*
X118786804Y-109004000D01*
X118911823Y-109016313D01*
X118911823Y-109016313D01*
G37*
G36*
X179791000Y-110556000D02*
G01*
X178989000Y-110556000D01*
X178989000Y-109154000D01*
X179791000Y-109154000D01*
X179791000Y-110556000D01*
X179791000Y-110556000D01*
G37*
G36*
X181691000Y-110556000D02*
G01*
X180889000Y-110556000D01*
X180889000Y-109154000D01*
X181691000Y-109154000D01*
X181691000Y-110556000D01*
X181691000Y-110556000D01*
G37*
G36*
X133166000Y-110226000D02*
G01*
X132064000Y-110226000D01*
X132064000Y-109484000D01*
X133166000Y-109484000D01*
X133166000Y-110226000D01*
X133166000Y-110226000D01*
G37*
G36*
X127016000Y-110226000D02*
G01*
X125914000Y-110226000D01*
X125914000Y-109484000D01*
X127016000Y-109484000D01*
X127016000Y-110226000D01*
X127016000Y-110226000D01*
G37*
G36*
X156531000Y-110071000D02*
G01*
X155429000Y-110071000D01*
X155429000Y-108369000D01*
X156531000Y-108369000D01*
X156531000Y-110071000D01*
X156531000Y-110071000D01*
G37*
G36*
X159531000Y-110071000D02*
G01*
X158429000Y-110071000D01*
X158429000Y-108369000D01*
X159531000Y-108369000D01*
X159531000Y-110071000D01*
X159531000Y-110071000D01*
G37*
G36*
X138251000Y-109896000D02*
G01*
X137149000Y-109896000D01*
X137149000Y-108544000D01*
X138251000Y-108544000D01*
X138251000Y-109896000D01*
X138251000Y-109896000D01*
G37*
G36*
X140251000Y-109896000D02*
G01*
X139149000Y-109896000D01*
X139149000Y-108544000D01*
X140251000Y-108544000D01*
X140251000Y-109896000D01*
X140251000Y-109896000D01*
G37*
G36*
X150605443Y-107790519D02*
G01*
X150671627Y-107797037D01*
X150841466Y-107848557D01*
X150997991Y-107932222D01*
X151033729Y-107961552D01*
X151135186Y-108044814D01*
X151218448Y-108146271D01*
X151247778Y-108182009D01*
X151331443Y-108338534D01*
X151382963Y-108508373D01*
X151400359Y-108685000D01*
X151382963Y-108861627D01*
X151331443Y-109031466D01*
X151247778Y-109187991D01*
X151225765Y-109214814D01*
X151135186Y-109325186D01*
X151033729Y-109408448D01*
X150997991Y-109437778D01*
X150841466Y-109521443D01*
X150671627Y-109572963D01*
X150605442Y-109579482D01*
X150539260Y-109586000D01*
X150450740Y-109586000D01*
X150384558Y-109579482D01*
X150318373Y-109572963D01*
X150148534Y-109521443D01*
X149992009Y-109437778D01*
X149956271Y-109408448D01*
X149854814Y-109325186D01*
X149764235Y-109214814D01*
X149742222Y-109187991D01*
X149658557Y-109031466D01*
X149607037Y-108861627D01*
X149589641Y-108685000D01*
X149607037Y-108508373D01*
X149658557Y-108338534D01*
X149742222Y-108182009D01*
X149771552Y-108146271D01*
X149854814Y-108044814D01*
X149956271Y-107961552D01*
X149992009Y-107932222D01*
X150148534Y-107848557D01*
X150318373Y-107797037D01*
X150384557Y-107790519D01*
X150450740Y-107784000D01*
X150539260Y-107784000D01*
X150605443Y-107790519D01*
X150605443Y-107790519D01*
G37*
G36*
X147965443Y-107790519D02*
G01*
X148031627Y-107797037D01*
X148201466Y-107848557D01*
X148357991Y-107932222D01*
X148393729Y-107961552D01*
X148495186Y-108044814D01*
X148578448Y-108146271D01*
X148607778Y-108182009D01*
X148691443Y-108338534D01*
X148742963Y-108508373D01*
X148760359Y-108685000D01*
X148742963Y-108861627D01*
X148691443Y-109031466D01*
X148607778Y-109187991D01*
X148585765Y-109214814D01*
X148495186Y-109325186D01*
X148393729Y-109408448D01*
X148357991Y-109437778D01*
X148201466Y-109521443D01*
X148031627Y-109572963D01*
X147965442Y-109579482D01*
X147899260Y-109586000D01*
X147810740Y-109586000D01*
X147744558Y-109579482D01*
X147678373Y-109572963D01*
X147508534Y-109521443D01*
X147352009Y-109437778D01*
X147316271Y-109408448D01*
X147214814Y-109325186D01*
X147124235Y-109214814D01*
X147102222Y-109187991D01*
X147018557Y-109031466D01*
X146967037Y-108861627D01*
X146949641Y-108685000D01*
X146967037Y-108508373D01*
X147018557Y-108338534D01*
X147102222Y-108182009D01*
X147131552Y-108146271D01*
X147214814Y-108044814D01*
X147316271Y-107961552D01*
X147352009Y-107932222D01*
X147508534Y-107848557D01*
X147678373Y-107797037D01*
X147744557Y-107790519D01*
X147810740Y-107784000D01*
X147899260Y-107784000D01*
X147965443Y-107790519D01*
X147965443Y-107790519D01*
G37*
G36*
X153145443Y-107690519D02*
G01*
X153211627Y-107697037D01*
X153381466Y-107748557D01*
X153537991Y-107832222D01*
X153557895Y-107848557D01*
X153675186Y-107944814D01*
X153757253Y-108044814D01*
X153787778Y-108082009D01*
X153871443Y-108238534D01*
X153922963Y-108408373D01*
X153940359Y-108585000D01*
X153922963Y-108761627D01*
X153871443Y-108931466D01*
X153787778Y-109087991D01*
X153758448Y-109123729D01*
X153675186Y-109225186D01*
X153573729Y-109308448D01*
X153537991Y-109337778D01*
X153381466Y-109421443D01*
X153211627Y-109472963D01*
X153145442Y-109479482D01*
X153079260Y-109486000D01*
X152990740Y-109486000D01*
X152924558Y-109479482D01*
X152858373Y-109472963D01*
X152688534Y-109421443D01*
X152532009Y-109337778D01*
X152496271Y-109308448D01*
X152394814Y-109225186D01*
X152311552Y-109123729D01*
X152282222Y-109087991D01*
X152198557Y-108931466D01*
X152147037Y-108761627D01*
X152129641Y-108585000D01*
X152147037Y-108408373D01*
X152198557Y-108238534D01*
X152282222Y-108082009D01*
X152312747Y-108044814D01*
X152394814Y-107944814D01*
X152512105Y-107848557D01*
X152532009Y-107832222D01*
X152688534Y-107748557D01*
X152858373Y-107697037D01*
X152924557Y-107690519D01*
X152990740Y-107684000D01*
X153079260Y-107684000D01*
X153145443Y-107690519D01*
X153145443Y-107690519D01*
G37*
G36*
X182990443Y-106420519D02*
G01*
X183056627Y-106427037D01*
X183226466Y-106478557D01*
X183382991Y-106562222D01*
X183418729Y-106591552D01*
X183520186Y-106674814D01*
X183603448Y-106776271D01*
X183632778Y-106812009D01*
X183716443Y-106968534D01*
X183767963Y-107138373D01*
X183785359Y-107315000D01*
X183767963Y-107491627D01*
X183716443Y-107661466D01*
X183632778Y-107817991D01*
X183607693Y-107848557D01*
X183520186Y-107955186D01*
X183418729Y-108038448D01*
X183382991Y-108067778D01*
X183226466Y-108151443D01*
X183056627Y-108202963D01*
X182990443Y-108209481D01*
X182924260Y-108216000D01*
X182835740Y-108216000D01*
X182769557Y-108209481D01*
X182703373Y-108202963D01*
X182533534Y-108151443D01*
X182377009Y-108067778D01*
X182341271Y-108038448D01*
X182239814Y-107955186D01*
X182152307Y-107848557D01*
X182127222Y-107817991D01*
X182043557Y-107661466D01*
X181992037Y-107491627D01*
X181974641Y-107315000D01*
X181992037Y-107138373D01*
X182043557Y-106968534D01*
X182127222Y-106812009D01*
X182156552Y-106776271D01*
X182239814Y-106674814D01*
X182341271Y-106591552D01*
X182377009Y-106562222D01*
X182533534Y-106478557D01*
X182703373Y-106427037D01*
X182769557Y-106420519D01*
X182835740Y-106414000D01*
X182924260Y-106414000D01*
X182990443Y-106420519D01*
X182990443Y-106420519D01*
G37*
G36*
X185530443Y-106420519D02*
G01*
X185596627Y-106427037D01*
X185766466Y-106478557D01*
X185922991Y-106562222D01*
X185958729Y-106591552D01*
X186060186Y-106674814D01*
X186143448Y-106776271D01*
X186172778Y-106812009D01*
X186256443Y-106968534D01*
X186307963Y-107138373D01*
X186325359Y-107315000D01*
X186307963Y-107491627D01*
X186256443Y-107661466D01*
X186172778Y-107817991D01*
X186147693Y-107848557D01*
X186060186Y-107955186D01*
X185958729Y-108038448D01*
X185922991Y-108067778D01*
X185766466Y-108151443D01*
X185596627Y-108202963D01*
X185530443Y-108209481D01*
X185464260Y-108216000D01*
X185375740Y-108216000D01*
X185309557Y-108209481D01*
X185243373Y-108202963D01*
X185073534Y-108151443D01*
X184917009Y-108067778D01*
X184881271Y-108038448D01*
X184779814Y-107955186D01*
X184692307Y-107848557D01*
X184667222Y-107817991D01*
X184583557Y-107661466D01*
X184532037Y-107491627D01*
X184514641Y-107315000D01*
X184532037Y-107138373D01*
X184583557Y-106968534D01*
X184667222Y-106812009D01*
X184696552Y-106776271D01*
X184779814Y-106674814D01*
X184881271Y-106591552D01*
X184917009Y-106562222D01*
X185073534Y-106478557D01*
X185243373Y-106427037D01*
X185309557Y-106420519D01*
X185375740Y-106414000D01*
X185464260Y-106414000D01*
X185530443Y-106420519D01*
X185530443Y-106420519D01*
G37*
G36*
X181691000Y-108016000D02*
G01*
X180889000Y-108016000D01*
X180889000Y-106614000D01*
X181691000Y-106614000D01*
X181691000Y-108016000D01*
X181691000Y-108016000D01*
G37*
G36*
X179791000Y-108016000D02*
G01*
X178989000Y-108016000D01*
X178989000Y-106614000D01*
X179791000Y-106614000D01*
X179791000Y-108016000D01*
X179791000Y-108016000D01*
G37*
G36*
X138846000Y-107731000D02*
G01*
X136744000Y-107731000D01*
X136744000Y-105629000D01*
X138846000Y-105629000D01*
X138846000Y-107731000D01*
X138846000Y-107731000D01*
G37*
G36*
X133101564Y-105669389D02*
G01*
X133292833Y-105748615D01*
X133292835Y-105748616D01*
X133464973Y-105863635D01*
X133611365Y-106010027D01*
X133725084Y-106180219D01*
X133726385Y-106182167D01*
X133805611Y-106373436D01*
X133846000Y-106576484D01*
X133846000Y-106783516D01*
X133805611Y-106986564D01*
X133742730Y-107138373D01*
X133726384Y-107177835D01*
X133611365Y-107349973D01*
X133464973Y-107496365D01*
X133292835Y-107611384D01*
X133292834Y-107611385D01*
X133292833Y-107611385D01*
X133101564Y-107690611D01*
X132898516Y-107731000D01*
X132691484Y-107731000D01*
X132488436Y-107690611D01*
X132297167Y-107611385D01*
X132297166Y-107611385D01*
X132297165Y-107611384D01*
X132125027Y-107496365D01*
X131978635Y-107349973D01*
X131863616Y-107177835D01*
X131847270Y-107138373D01*
X131784389Y-106986564D01*
X131744000Y-106783516D01*
X131744000Y-106576484D01*
X131784389Y-106373436D01*
X131863615Y-106182167D01*
X131864917Y-106180219D01*
X131978635Y-106010027D01*
X132125027Y-105863635D01*
X132297165Y-105748616D01*
X132297167Y-105748615D01*
X132488436Y-105669389D01*
X132691484Y-105629000D01*
X132898516Y-105629000D01*
X133101564Y-105669389D01*
X133101564Y-105669389D01*
G37*
G36*
X162864727Y-106028719D02*
G01*
X161908719Y-106984727D01*
X161129487Y-106205495D01*
X162085495Y-105249487D01*
X162864727Y-106028719D01*
X162864727Y-106028719D01*
G37*
G36*
X154136000Y-106946000D02*
G01*
X152334000Y-106946000D01*
X152334000Y-105144000D01*
X154136000Y-105144000D01*
X154136000Y-106946000D01*
X154136000Y-106946000D01*
G37*
G36*
X150405443Y-105150519D02*
G01*
X150471627Y-105157037D01*
X150641466Y-105208557D01*
X150797991Y-105292222D01*
X150820137Y-105310397D01*
X150935186Y-105404814D01*
X151004186Y-105488892D01*
X151047778Y-105542009D01*
X151131443Y-105698534D01*
X151182963Y-105868373D01*
X151200359Y-106045000D01*
X151182963Y-106221627D01*
X151131443Y-106391466D01*
X151047778Y-106547991D01*
X151018448Y-106583729D01*
X150935186Y-106685186D01*
X150833729Y-106768448D01*
X150797991Y-106797778D01*
X150641466Y-106881443D01*
X150471627Y-106932963D01*
X150405442Y-106939482D01*
X150339260Y-106946000D01*
X150250740Y-106946000D01*
X150184558Y-106939482D01*
X150118373Y-106932963D01*
X149948534Y-106881443D01*
X149792009Y-106797778D01*
X149756271Y-106768448D01*
X149654814Y-106685186D01*
X149571552Y-106583729D01*
X149542222Y-106547991D01*
X149458557Y-106391466D01*
X149407037Y-106221627D01*
X149389641Y-106045000D01*
X149407037Y-105868373D01*
X149458557Y-105698534D01*
X149542222Y-105542009D01*
X149585814Y-105488892D01*
X149654814Y-105404814D01*
X149769863Y-105310397D01*
X149792009Y-105292222D01*
X149948534Y-105208557D01*
X150118373Y-105157037D01*
X150184558Y-105150518D01*
X150250740Y-105144000D01*
X150339260Y-105144000D01*
X150405443Y-105150519D01*
X150405443Y-105150519D01*
G37*
G36*
X148065443Y-105050519D02*
G01*
X148131627Y-105057037D01*
X148301466Y-105108557D01*
X148457991Y-105192222D01*
X148477895Y-105208557D01*
X148595186Y-105304814D01*
X148677253Y-105404814D01*
X148707778Y-105442009D01*
X148791443Y-105598534D01*
X148842963Y-105768373D01*
X148860359Y-105945000D01*
X148842963Y-106121627D01*
X148791443Y-106291466D01*
X148707778Y-106447991D01*
X148682693Y-106478557D01*
X148595186Y-106585186D01*
X148493729Y-106668448D01*
X148457991Y-106697778D01*
X148301466Y-106781443D01*
X148131627Y-106832963D01*
X148065443Y-106839481D01*
X147999260Y-106846000D01*
X147910740Y-106846000D01*
X147844557Y-106839481D01*
X147778373Y-106832963D01*
X147608534Y-106781443D01*
X147452009Y-106697778D01*
X147416271Y-106668448D01*
X147314814Y-106585186D01*
X147227307Y-106478557D01*
X147202222Y-106447991D01*
X147118557Y-106291466D01*
X147067037Y-106121627D01*
X147049641Y-105945000D01*
X147067037Y-105768373D01*
X147118557Y-105598534D01*
X147202222Y-105442009D01*
X147232747Y-105404814D01*
X147314814Y-105304814D01*
X147432105Y-105208557D01*
X147452009Y-105192222D01*
X147608534Y-105108557D01*
X147778373Y-105057037D01*
X147844557Y-105050519D01*
X147910740Y-105044000D01*
X147999260Y-105044000D01*
X148065443Y-105050519D01*
X148065443Y-105050519D01*
G37*
G36*
X157713642Y-104639781D02*
G01*
X157859414Y-104700162D01*
X157859416Y-104700163D01*
X157990608Y-104787822D01*
X158102178Y-104899392D01*
X158189837Y-105030584D01*
X158189838Y-105030586D01*
X158250219Y-105176358D01*
X158281000Y-105331107D01*
X158281000Y-105488893D01*
X158250219Y-105643642D01*
X158189838Y-105789414D01*
X158189837Y-105789416D01*
X158102178Y-105920608D01*
X157990608Y-106032178D01*
X157859416Y-106119837D01*
X157859415Y-106119838D01*
X157859414Y-106119838D01*
X157713642Y-106180219D01*
X157558893Y-106211000D01*
X157401107Y-106211000D01*
X157246358Y-106180219D01*
X157100586Y-106119838D01*
X157100585Y-106119838D01*
X157100584Y-106119837D01*
X156969392Y-106032178D01*
X156857822Y-105920608D01*
X156770163Y-105789416D01*
X156770162Y-105789414D01*
X156709781Y-105643642D01*
X156679000Y-105488893D01*
X156679000Y-105331107D01*
X156709781Y-105176358D01*
X156770162Y-105030586D01*
X156770163Y-105030584D01*
X156857822Y-104899392D01*
X156969392Y-104787822D01*
X157100584Y-104700163D01*
X157100586Y-104700162D01*
X157246358Y-104639781D01*
X157401107Y-104609000D01*
X157558893Y-104609000D01*
X157713642Y-104639781D01*
X157713642Y-104639781D01*
G37*
G36*
X143108642Y-104639781D02*
G01*
X143254414Y-104700162D01*
X143254416Y-104700163D01*
X143385608Y-104787822D01*
X143497178Y-104899392D01*
X143584837Y-105030584D01*
X143584838Y-105030586D01*
X143645219Y-105176358D01*
X143676000Y-105331107D01*
X143676000Y-105488893D01*
X143645219Y-105643642D01*
X143584838Y-105789414D01*
X143584837Y-105789416D01*
X143497178Y-105920608D01*
X143385608Y-106032178D01*
X143254416Y-106119837D01*
X143254415Y-106119838D01*
X143254414Y-106119838D01*
X143108642Y-106180219D01*
X142953893Y-106211000D01*
X142796107Y-106211000D01*
X142641358Y-106180219D01*
X142495586Y-106119838D01*
X142495585Y-106119838D01*
X142495584Y-106119837D01*
X142364392Y-106032178D01*
X142252822Y-105920608D01*
X142165163Y-105789416D01*
X142165162Y-105789414D01*
X142104781Y-105643642D01*
X142074000Y-105488893D01*
X142074000Y-105331107D01*
X142104781Y-105176358D01*
X142165162Y-105030586D01*
X142165163Y-105030584D01*
X142252822Y-104899392D01*
X142364392Y-104787822D01*
X142495584Y-104700163D01*
X142495586Y-104700162D01*
X142641358Y-104639781D01*
X142796107Y-104609000D01*
X142953893Y-104609000D01*
X143108642Y-104639781D01*
X143108642Y-104639781D01*
G37*
G36*
X171227137Y-104461286D02*
G01*
X171372909Y-104521667D01*
X171372911Y-104521668D01*
X171504103Y-104609327D01*
X171615673Y-104720897D01*
X171664036Y-104793278D01*
X171703333Y-104852091D01*
X171763714Y-104997863D01*
X171794495Y-105152612D01*
X171794495Y-105310398D01*
X171763714Y-105465147D01*
X171708464Y-105598532D01*
X171703332Y-105610921D01*
X171615673Y-105742113D01*
X171504103Y-105853683D01*
X171372911Y-105941342D01*
X171372910Y-105941343D01*
X171372909Y-105941343D01*
X171227137Y-106001724D01*
X171072388Y-106032505D01*
X170914602Y-106032505D01*
X170759853Y-106001724D01*
X170614081Y-105941343D01*
X170614080Y-105941343D01*
X170614079Y-105941342D01*
X170482887Y-105853683D01*
X170371317Y-105742113D01*
X170283658Y-105610921D01*
X170278526Y-105598532D01*
X170223276Y-105465147D01*
X170192495Y-105310398D01*
X170192495Y-105152612D01*
X170223276Y-104997863D01*
X170283657Y-104852091D01*
X170322954Y-104793278D01*
X170371317Y-104720897D01*
X170482887Y-104609327D01*
X170614079Y-104521668D01*
X170614081Y-104521667D01*
X170759853Y-104461286D01*
X170914602Y-104430505D01*
X171072388Y-104430505D01*
X171227137Y-104461286D01*
X171227137Y-104461286D01*
G37*
G36*
X185530443Y-103880519D02*
G01*
X185596627Y-103887037D01*
X185766466Y-103938557D01*
X185922991Y-104022222D01*
X185958729Y-104051552D01*
X186060186Y-104134814D01*
X186136268Y-104227522D01*
X186172778Y-104272009D01*
X186256443Y-104428534D01*
X186307963Y-104598373D01*
X186325359Y-104775000D01*
X186307963Y-104951627D01*
X186256443Y-105121466D01*
X186172778Y-105277991D01*
X186150765Y-105304814D01*
X186060186Y-105415186D01*
X185970372Y-105488893D01*
X185922991Y-105527778D01*
X185766466Y-105611443D01*
X185596627Y-105662963D01*
X185531382Y-105669389D01*
X185464260Y-105676000D01*
X185375740Y-105676000D01*
X185308618Y-105669389D01*
X185243373Y-105662963D01*
X185073534Y-105611443D01*
X184917009Y-105527778D01*
X184869628Y-105488893D01*
X184779814Y-105415186D01*
X184689235Y-105304814D01*
X184667222Y-105277991D01*
X184583557Y-105121466D01*
X184532037Y-104951627D01*
X184514641Y-104775000D01*
X184532037Y-104598373D01*
X184583557Y-104428534D01*
X184667222Y-104272009D01*
X184703732Y-104227522D01*
X184779814Y-104134814D01*
X184881271Y-104051552D01*
X184917009Y-104022222D01*
X185073534Y-103938557D01*
X185243373Y-103887037D01*
X185309557Y-103880519D01*
X185375740Y-103874000D01*
X185464260Y-103874000D01*
X185530443Y-103880519D01*
X185530443Y-103880519D01*
G37*
G36*
X182990443Y-103880519D02*
G01*
X183056627Y-103887037D01*
X183226466Y-103938557D01*
X183382991Y-104022222D01*
X183418729Y-104051552D01*
X183520186Y-104134814D01*
X183596268Y-104227522D01*
X183632778Y-104272009D01*
X183716443Y-104428534D01*
X183767963Y-104598373D01*
X183785359Y-104775000D01*
X183767963Y-104951627D01*
X183716443Y-105121466D01*
X183632778Y-105277991D01*
X183610765Y-105304814D01*
X183520186Y-105415186D01*
X183430372Y-105488893D01*
X183382991Y-105527778D01*
X183226466Y-105611443D01*
X183056627Y-105662963D01*
X182991382Y-105669389D01*
X182924260Y-105676000D01*
X182835740Y-105676000D01*
X182768618Y-105669389D01*
X182703373Y-105662963D01*
X182533534Y-105611443D01*
X182377009Y-105527778D01*
X182329628Y-105488893D01*
X182239814Y-105415186D01*
X182149235Y-105304814D01*
X182127222Y-105277991D01*
X182043557Y-105121466D01*
X181992037Y-104951627D01*
X181974641Y-104775000D01*
X181992037Y-104598373D01*
X182043557Y-104428534D01*
X182127222Y-104272009D01*
X182163732Y-104227522D01*
X182239814Y-104134814D01*
X182341271Y-104051552D01*
X182377009Y-104022222D01*
X182533534Y-103938557D01*
X182703373Y-103887037D01*
X182769557Y-103880519D01*
X182835740Y-103874000D01*
X182924260Y-103874000D01*
X182990443Y-103880519D01*
X182990443Y-103880519D01*
G37*
G36*
X161450513Y-104614505D02*
G01*
X160494505Y-105570513D01*
X159715273Y-104791281D01*
X160671281Y-103835273D01*
X161450513Y-104614505D01*
X161450513Y-104614505D01*
G37*
G36*
X181691000Y-105476000D02*
G01*
X180889000Y-105476000D01*
X180889000Y-104074000D01*
X181691000Y-104074000D01*
X181691000Y-105476000D01*
X181691000Y-105476000D01*
G37*
G36*
X179791000Y-105476000D02*
G01*
X178989000Y-105476000D01*
X178989000Y-104074000D01*
X179791000Y-104074000D01*
X179791000Y-105476000D01*
X179791000Y-105476000D01*
G37*
G36*
X162024023Y-101084526D02*
G01*
X162024028Y-101084532D01*
X163075469Y-102135973D01*
X163075475Y-102135978D01*
X164762625Y-103823128D01*
X163792475Y-104793278D01*
X162183595Y-103184398D01*
X162183589Y-103184393D01*
X160975608Y-101976412D01*
X160975603Y-101976406D01*
X159366722Y-100367525D01*
X160336872Y-99397375D01*
X162024023Y-101084526D01*
X162024023Y-101084526D01*
G37*
G36*
X170833278Y-100367525D02*
G01*
X169711878Y-101488925D01*
X169224398Y-101976406D01*
X168016406Y-103184398D01*
X167450649Y-103750154D01*
X166407525Y-104793278D01*
X165437375Y-103823128D01*
X167124521Y-102135982D01*
X167124532Y-102135973D01*
X167134644Y-102125860D01*
X168165860Y-101094644D01*
X168175973Y-101084532D01*
X168175982Y-101084521D01*
X169863128Y-99397375D01*
X170833278Y-100367525D01*
X170833278Y-100367525D01*
G37*
G36*
X160324727Y-103488719D02*
G01*
X159368719Y-104444727D01*
X158589487Y-103665495D01*
X159545495Y-102709487D01*
X160324727Y-103488719D01*
X160324727Y-103488719D01*
G37*
G36*
X182990442Y-101340518D02*
G01*
X183056627Y-101347037D01*
X183226466Y-101398557D01*
X183382991Y-101482222D01*
X183403480Y-101499037D01*
X183520186Y-101594814D01*
X183572536Y-101658604D01*
X183632778Y-101732009D01*
X183716443Y-101888534D01*
X183767963Y-102058373D01*
X183785359Y-102235000D01*
X183767963Y-102411627D01*
X183716443Y-102581466D01*
X183632778Y-102737991D01*
X183603448Y-102773729D01*
X183520186Y-102875186D01*
X183418729Y-102958448D01*
X183382991Y-102987778D01*
X183226466Y-103071443D01*
X183056627Y-103122963D01*
X182990442Y-103129482D01*
X182924260Y-103136000D01*
X182835740Y-103136000D01*
X182769558Y-103129482D01*
X182703373Y-103122963D01*
X182533534Y-103071443D01*
X182377009Y-102987778D01*
X182341271Y-102958448D01*
X182239814Y-102875186D01*
X182156552Y-102773729D01*
X182127222Y-102737991D01*
X182043557Y-102581466D01*
X181992037Y-102411627D01*
X181974641Y-102235000D01*
X181992037Y-102058373D01*
X182043557Y-101888534D01*
X182127222Y-101732009D01*
X182187464Y-101658604D01*
X182239814Y-101594814D01*
X182356520Y-101499037D01*
X182377009Y-101482222D01*
X182533534Y-101398557D01*
X182703373Y-101347037D01*
X182769558Y-101340518D01*
X182835740Y-101334000D01*
X182924260Y-101334000D01*
X182990442Y-101340518D01*
X182990442Y-101340518D01*
G37*
G36*
X185530442Y-101340518D02*
G01*
X185596627Y-101347037D01*
X185766466Y-101398557D01*
X185922991Y-101482222D01*
X185943480Y-101499037D01*
X186060186Y-101594814D01*
X186112536Y-101658604D01*
X186172778Y-101732009D01*
X186256443Y-101888534D01*
X186307963Y-102058373D01*
X186325359Y-102235000D01*
X186307963Y-102411627D01*
X186256443Y-102581466D01*
X186172778Y-102737991D01*
X186143448Y-102773729D01*
X186060186Y-102875186D01*
X185958729Y-102958448D01*
X185922991Y-102987778D01*
X185766466Y-103071443D01*
X185596627Y-103122963D01*
X185530442Y-103129482D01*
X185464260Y-103136000D01*
X185375740Y-103136000D01*
X185309558Y-103129482D01*
X185243373Y-103122963D01*
X185073534Y-103071443D01*
X184917009Y-102987778D01*
X184881271Y-102958448D01*
X184779814Y-102875186D01*
X184696552Y-102773729D01*
X184667222Y-102737991D01*
X184583557Y-102581466D01*
X184532037Y-102411627D01*
X184514641Y-102235000D01*
X184532037Y-102058373D01*
X184583557Y-101888534D01*
X184667222Y-101732009D01*
X184727464Y-101658604D01*
X184779814Y-101594814D01*
X184896520Y-101499037D01*
X184917009Y-101482222D01*
X185073534Y-101398557D01*
X185243373Y-101347037D01*
X185309558Y-101340518D01*
X185375740Y-101334000D01*
X185464260Y-101334000D01*
X185530442Y-101340518D01*
X185530442Y-101340518D01*
G37*
G36*
X118993228Y-101416703D02*
G01*
X119148100Y-101480853D01*
X119287481Y-101573985D01*
X119406015Y-101692519D01*
X119499147Y-101831900D01*
X119563297Y-101986772D01*
X119596000Y-102151184D01*
X119596000Y-102318816D01*
X119563297Y-102483228D01*
X119499147Y-102638100D01*
X119406015Y-102777481D01*
X119287481Y-102896015D01*
X119148100Y-102989147D01*
X118993228Y-103053297D01*
X118828816Y-103086000D01*
X118661184Y-103086000D01*
X118496772Y-103053297D01*
X118341900Y-102989147D01*
X118202519Y-102896015D01*
X118083985Y-102777481D01*
X117990853Y-102638100D01*
X117926703Y-102483228D01*
X117894000Y-102318816D01*
X117894000Y-102151184D01*
X117926703Y-101986772D01*
X117990853Y-101831900D01*
X118083985Y-101692519D01*
X118202519Y-101573985D01*
X118341900Y-101480853D01*
X118496772Y-101416703D01*
X118661184Y-101384000D01*
X118828816Y-101384000D01*
X118993228Y-101416703D01*
X118993228Y-101416703D01*
G37*
G36*
X158910513Y-102074505D02*
G01*
X157954505Y-103030513D01*
X157175273Y-102251281D01*
X158131281Y-101295273D01*
X158910513Y-102074505D01*
X158910513Y-102074505D01*
G37*
G36*
X179791000Y-102936000D02*
G01*
X178989000Y-102936000D01*
X178989000Y-101534000D01*
X179791000Y-101534000D01*
X179791000Y-102936000D01*
X179791000Y-102936000D01*
G37*
G36*
X181691000Y-102936000D02*
G01*
X180889000Y-102936000D01*
X180889000Y-101534000D01*
X181691000Y-101534000D01*
X181691000Y-102936000D01*
X181691000Y-102936000D01*
G37*
G36*
X151998642Y-98924781D02*
G01*
X152144414Y-98985162D01*
X152144416Y-98985163D01*
X152275608Y-99072822D01*
X152387178Y-99184392D01*
X152474837Y-99315584D01*
X152474838Y-99315586D01*
X152535219Y-99461358D01*
X152566000Y-99616107D01*
X152566000Y-99773893D01*
X152535219Y-99928642D01*
X152474838Y-100074414D01*
X152460000Y-100096621D01*
X152448449Y-100118232D01*
X152441336Y-100141681D01*
X152438934Y-100166067D01*
X152441336Y-100190453D01*
X152448449Y-100213902D01*
X152460000Y-100235513D01*
X152475545Y-100254455D01*
X152494487Y-100270000D01*
X152516098Y-100281551D01*
X152539547Y-100288664D01*
X152563933Y-100291066D01*
X152588319Y-100288664D01*
X152611768Y-100281551D01*
X152633379Y-100270000D01*
X152655584Y-100255163D01*
X152703023Y-100235513D01*
X152801358Y-100194781D01*
X152956107Y-100164000D01*
X153113893Y-100164000D01*
X153268642Y-100194781D01*
X153366977Y-100235513D01*
X153414416Y-100255163D01*
X153545608Y-100342822D01*
X153657178Y-100454392D01*
X153715560Y-100541768D01*
X153744838Y-100585586D01*
X153805219Y-100731358D01*
X153836000Y-100886107D01*
X153836000Y-101043893D01*
X153805219Y-101198642D01*
X153744838Y-101344414D01*
X153744837Y-101344416D01*
X153657178Y-101475608D01*
X153545608Y-101587178D01*
X153414416Y-101674837D01*
X153414415Y-101674838D01*
X153414414Y-101674838D01*
X153268642Y-101735219D01*
X153113893Y-101766000D01*
X152956107Y-101766000D01*
X152801358Y-101735219D01*
X152655586Y-101674838D01*
X152655585Y-101674838D01*
X152655584Y-101674837D01*
X152524392Y-101587178D01*
X152412822Y-101475608D01*
X152325163Y-101344416D01*
X152325162Y-101344414D01*
X152264781Y-101198642D01*
X152234000Y-101043893D01*
X152234000Y-100886107D01*
X152264781Y-100731358D01*
X152325162Y-100585586D01*
X152340000Y-100563379D01*
X152351551Y-100541768D01*
X152358664Y-100518319D01*
X152361066Y-100493933D01*
X152358664Y-100469547D01*
X152351551Y-100446098D01*
X152340000Y-100424487D01*
X152324455Y-100405545D01*
X152305513Y-100390000D01*
X152283902Y-100378449D01*
X152260453Y-100371336D01*
X152236067Y-100368934D01*
X152211681Y-100371336D01*
X152188232Y-100378449D01*
X152166623Y-100389999D01*
X152144416Y-100404837D01*
X152144415Y-100404838D01*
X152144414Y-100404838D01*
X151998642Y-100465219D01*
X151843893Y-100496000D01*
X151686107Y-100496000D01*
X151531358Y-100465219D01*
X151385586Y-100404838D01*
X151385585Y-100404838D01*
X151385584Y-100404837D01*
X151254392Y-100317178D01*
X151142822Y-100205608D01*
X151055163Y-100074416D01*
X151009067Y-99963131D01*
X150994781Y-99928642D01*
X150964000Y-99773893D01*
X150964000Y-99616107D01*
X150994781Y-99461358D01*
X151055162Y-99315586D01*
X151055163Y-99315584D01*
X151142822Y-99184392D01*
X151254392Y-99072822D01*
X151385584Y-98985163D01*
X151385586Y-98985162D01*
X151531358Y-98924781D01*
X151686107Y-98894000D01*
X151843893Y-98894000D01*
X151998642Y-98924781D01*
X151998642Y-98924781D01*
G37*
G36*
X150628643Y-100194781D02*
G01*
X150726978Y-100235513D01*
X150774417Y-100255163D01*
X150905609Y-100342822D01*
X151017179Y-100454392D01*
X151075561Y-100541768D01*
X151104839Y-100585586D01*
X151165220Y-100731358D01*
X151196001Y-100886107D01*
X151196001Y-101043893D01*
X151165220Y-101198642D01*
X151104839Y-101344414D01*
X151104838Y-101344416D01*
X151017179Y-101475608D01*
X150905609Y-101587178D01*
X150774417Y-101674837D01*
X150774416Y-101674838D01*
X150774415Y-101674838D01*
X150628643Y-101735219D01*
X150473894Y-101766000D01*
X150316108Y-101766000D01*
X150161359Y-101735219D01*
X150015587Y-101674838D01*
X150015586Y-101674838D01*
X150015585Y-101674837D01*
X149884393Y-101587178D01*
X149772823Y-101475608D01*
X149685164Y-101344416D01*
X149685163Y-101344414D01*
X149624782Y-101198642D01*
X149594001Y-101043893D01*
X149594001Y-100886107D01*
X149624782Y-100731358D01*
X149685163Y-100585586D01*
X149714441Y-100541768D01*
X149772823Y-100454392D01*
X149884393Y-100342822D01*
X150015585Y-100255163D01*
X150063024Y-100235513D01*
X150161359Y-100194781D01*
X150316108Y-100164000D01*
X150473894Y-100164000D01*
X150628643Y-100194781D01*
X150628643Y-100194781D01*
G37*
G36*
X143591000Y-101031000D02*
G01*
X142789000Y-101031000D01*
X142789000Y-99629000D01*
X143591000Y-99629000D01*
X143591000Y-101031000D01*
X143591000Y-101031000D01*
G37*
G36*
X141691000Y-101031000D02*
G01*
X140889000Y-101031000D01*
X140889000Y-99629000D01*
X141691000Y-99629000D01*
X141691000Y-101031000D01*
X141691000Y-101031000D01*
G37*
G36*
X131531000Y-101031000D02*
G01*
X130729000Y-101031000D01*
X130729000Y-99629000D01*
X131531000Y-99629000D01*
X131531000Y-101031000D01*
X131531000Y-101031000D01*
G37*
G36*
X133431000Y-101031000D02*
G01*
X132629000Y-101031000D01*
X132629000Y-99629000D01*
X133431000Y-99629000D01*
X133431000Y-101031000D01*
X133431000Y-101031000D01*
G37*
G36*
X185530442Y-97530518D02*
G01*
X185596627Y-97537037D01*
X185766466Y-97588557D01*
X185922991Y-97672222D01*
X185944182Y-97689613D01*
X186060186Y-97784814D01*
X186143448Y-97886271D01*
X186172778Y-97922009D01*
X186256443Y-98078534D01*
X186307963Y-98248373D01*
X186325359Y-98425000D01*
X186307963Y-98601627D01*
X186256443Y-98771466D01*
X186172778Y-98927991D01*
X186143448Y-98963729D01*
X186060186Y-99065186D01*
X185958729Y-99148448D01*
X185922991Y-99177778D01*
X185766466Y-99261443D01*
X185596627Y-99312963D01*
X185530442Y-99319482D01*
X185464260Y-99326000D01*
X185375740Y-99326000D01*
X185309557Y-99319481D01*
X185243373Y-99312963D01*
X185073534Y-99261443D01*
X184917009Y-99177778D01*
X184881271Y-99148448D01*
X184779814Y-99065186D01*
X184696552Y-98963729D01*
X184667222Y-98927991D01*
X184583557Y-98771466D01*
X184532037Y-98601627D01*
X184514641Y-98425000D01*
X184532037Y-98248373D01*
X184583557Y-98078534D01*
X184667222Y-97922009D01*
X184696552Y-97886271D01*
X184779814Y-97784814D01*
X184895818Y-97689613D01*
X184917009Y-97672222D01*
X185073534Y-97588557D01*
X185243373Y-97537037D01*
X185309558Y-97530518D01*
X185375740Y-97524000D01*
X185464260Y-97524000D01*
X185530442Y-97530518D01*
X185530442Y-97530518D01*
G37*
G36*
X182331000Y-99126000D02*
G01*
X181529000Y-99126000D01*
X181529000Y-97724000D01*
X182331000Y-97724000D01*
X182331000Y-99126000D01*
X182331000Y-99126000D01*
G37*
G36*
X184231000Y-99126000D02*
G01*
X183429000Y-99126000D01*
X183429000Y-97724000D01*
X184231000Y-97724000D01*
X184231000Y-99126000D01*
X184231000Y-99126000D01*
G37*
G36*
X164762625Y-94296872D02*
G01*
X163075469Y-95984028D01*
X162509712Y-96549784D01*
X162024028Y-97035469D01*
X160336872Y-98722625D01*
X159366722Y-97752475D01*
X160965490Y-96153707D01*
X160975603Y-96143595D01*
X160975612Y-96143584D01*
X162183584Y-94935612D01*
X162183595Y-94935603D01*
X162193707Y-94925490D01*
X163792475Y-93326722D01*
X164762625Y-94296872D01*
X164762625Y-94296872D01*
G37*
G36*
X168016406Y-94935603D02*
G01*
X168016412Y-94935608D01*
X169224393Y-96143589D01*
X169224398Y-96143595D01*
X170833278Y-97752475D01*
X169863128Y-98722625D01*
X168175978Y-97035475D01*
X168175973Y-97035469D01*
X167124532Y-95984028D01*
X167124526Y-95984023D01*
X165437375Y-94296872D01*
X166407525Y-93326722D01*
X168016406Y-94935603D01*
X168016406Y-94935603D01*
G37*
G36*
X133516823Y-96951313D02*
G01*
X133677242Y-96999976D01*
X133809906Y-97070886D01*
X133825078Y-97078996D01*
X133954659Y-97185341D01*
X134061004Y-97314922D01*
X134061005Y-97314924D01*
X134140024Y-97462758D01*
X134188687Y-97623177D01*
X134205117Y-97790000D01*
X134188687Y-97956823D01*
X134140024Y-98117242D01*
X134069933Y-98248373D01*
X134061004Y-98265078D01*
X133954659Y-98394659D01*
X133825078Y-98501004D01*
X133825076Y-98501005D01*
X133677242Y-98580024D01*
X133516823Y-98628687D01*
X133391804Y-98641000D01*
X133308196Y-98641000D01*
X133183177Y-98628687D01*
X133022758Y-98580024D01*
X132874924Y-98501005D01*
X132874922Y-98501004D01*
X132745341Y-98394659D01*
X132638996Y-98265078D01*
X132630067Y-98248373D01*
X132559976Y-98117242D01*
X132511313Y-97956823D01*
X132494883Y-97790000D01*
X132511313Y-97623177D01*
X132559976Y-97462758D01*
X132638995Y-97314924D01*
X132638996Y-97314922D01*
X132745341Y-97185341D01*
X132874922Y-97078996D01*
X132890094Y-97070886D01*
X133022758Y-96999976D01*
X133183177Y-96951313D01*
X133308196Y-96939000D01*
X133391804Y-96939000D01*
X133516823Y-96951313D01*
X133516823Y-96951313D01*
G37*
G36*
X136056823Y-96951313D02*
G01*
X136217242Y-96999976D01*
X136349906Y-97070886D01*
X136365078Y-97078996D01*
X136494659Y-97185341D01*
X136601004Y-97314922D01*
X136601005Y-97314924D01*
X136680024Y-97462758D01*
X136728687Y-97623177D01*
X136745117Y-97790000D01*
X136728687Y-97956823D01*
X136680024Y-98117242D01*
X136609933Y-98248373D01*
X136601004Y-98265078D01*
X136494659Y-98394659D01*
X136365078Y-98501004D01*
X136365076Y-98501005D01*
X136217242Y-98580024D01*
X136056823Y-98628687D01*
X135931804Y-98641000D01*
X135848196Y-98641000D01*
X135723177Y-98628687D01*
X135562758Y-98580024D01*
X135414924Y-98501005D01*
X135414922Y-98501004D01*
X135285341Y-98394659D01*
X135178996Y-98265078D01*
X135170067Y-98248373D01*
X135099976Y-98117242D01*
X135051313Y-97956823D01*
X135034883Y-97790000D01*
X135051313Y-97623177D01*
X135099976Y-97462758D01*
X135178995Y-97314924D01*
X135178996Y-97314922D01*
X135285341Y-97185341D01*
X135414922Y-97078996D01*
X135430094Y-97070886D01*
X135562758Y-96999976D01*
X135723177Y-96951313D01*
X135848196Y-96939000D01*
X135931804Y-96939000D01*
X136056823Y-96951313D01*
X136056823Y-96951313D01*
G37*
G36*
X142456000Y-98641000D02*
G01*
X140754000Y-98641000D01*
X140754000Y-96939000D01*
X142456000Y-96939000D01*
X142456000Y-98641000D01*
X142456000Y-98641000D01*
G37*
G36*
X144311823Y-96951313D02*
G01*
X144472242Y-96999976D01*
X144604906Y-97070886D01*
X144620078Y-97078996D01*
X144749659Y-97185341D01*
X144856004Y-97314922D01*
X144856005Y-97314924D01*
X144935024Y-97462758D01*
X144983687Y-97623177D01*
X145000117Y-97790000D01*
X144983687Y-97956823D01*
X144935024Y-98117242D01*
X144864933Y-98248373D01*
X144856004Y-98265078D01*
X144749659Y-98394659D01*
X144620078Y-98501004D01*
X144620076Y-98501005D01*
X144472242Y-98580024D01*
X144311823Y-98628687D01*
X144186804Y-98641000D01*
X144103196Y-98641000D01*
X143978177Y-98628687D01*
X143817758Y-98580024D01*
X143669924Y-98501005D01*
X143669922Y-98501004D01*
X143540341Y-98394659D01*
X143433996Y-98265078D01*
X143425067Y-98248373D01*
X143354976Y-98117242D01*
X143306313Y-97956823D01*
X143289883Y-97790000D01*
X143306313Y-97623177D01*
X143354976Y-97462758D01*
X143433995Y-97314924D01*
X143433996Y-97314922D01*
X143540341Y-97185341D01*
X143669922Y-97078996D01*
X143685094Y-97070886D01*
X143817758Y-96999976D01*
X143978177Y-96951313D01*
X144103196Y-96939000D01*
X144186804Y-96939000D01*
X144311823Y-96951313D01*
X144311823Y-96951313D01*
G37*
G36*
X146851823Y-96951313D02*
G01*
X147012242Y-96999976D01*
X147144906Y-97070886D01*
X147160078Y-97078996D01*
X147289659Y-97185341D01*
X147396004Y-97314922D01*
X147396005Y-97314924D01*
X147475024Y-97462758D01*
X147523687Y-97623177D01*
X147540117Y-97790000D01*
X147523687Y-97956823D01*
X147475024Y-98117242D01*
X147404933Y-98248373D01*
X147396004Y-98265078D01*
X147289659Y-98394659D01*
X147160078Y-98501004D01*
X147160076Y-98501005D01*
X147012242Y-98580024D01*
X146851823Y-98628687D01*
X146726804Y-98641000D01*
X146643196Y-98641000D01*
X146518177Y-98628687D01*
X146357758Y-98580024D01*
X146209924Y-98501005D01*
X146209922Y-98501004D01*
X146080341Y-98394659D01*
X145973996Y-98265078D01*
X145965067Y-98248373D01*
X145894976Y-98117242D01*
X145846313Y-97956823D01*
X145829883Y-97790000D01*
X145846313Y-97623177D01*
X145894976Y-97462758D01*
X145973995Y-97314924D01*
X145973996Y-97314922D01*
X146080341Y-97185341D01*
X146209922Y-97078996D01*
X146225094Y-97070886D01*
X146357758Y-96999976D01*
X146518177Y-96951313D01*
X146643196Y-96939000D01*
X146726804Y-96939000D01*
X146851823Y-96951313D01*
X146851823Y-96951313D01*
G37*
G36*
X131661000Y-98641000D02*
G01*
X129959000Y-98641000D01*
X129959000Y-96939000D01*
X131661000Y-96939000D01*
X131661000Y-98641000D01*
X131661000Y-98641000D01*
G37*
G36*
X124189903Y-94682075D02*
G01*
X124415440Y-94775495D01*
X124417571Y-94776378D01*
X124622466Y-94913285D01*
X124796715Y-95087534D01*
X124933622Y-95292429D01*
X125027925Y-95520097D01*
X125076000Y-95761787D01*
X125076000Y-96008213D01*
X125027925Y-96249903D01*
X124933622Y-96477571D01*
X124796715Y-96682466D01*
X124622466Y-96856715D01*
X124417571Y-96993622D01*
X124417570Y-96993623D01*
X124417569Y-96993623D01*
X124189903Y-97087925D01*
X123948214Y-97136000D01*
X123701786Y-97136000D01*
X123460097Y-97087925D01*
X123232431Y-96993623D01*
X123232430Y-96993623D01*
X123232429Y-96993622D01*
X123027534Y-96856715D01*
X122853285Y-96682466D01*
X122716378Y-96477571D01*
X122622075Y-96249903D01*
X122574000Y-96008213D01*
X122574000Y-95761787D01*
X122622075Y-95520097D01*
X122716378Y-95292429D01*
X122853285Y-95087534D01*
X123027534Y-94913285D01*
X123232429Y-94776378D01*
X123234561Y-94775495D01*
X123460097Y-94682075D01*
X123701786Y-94634000D01*
X123948214Y-94634000D01*
X124189903Y-94682075D01*
X124189903Y-94682075D01*
G37*
G36*
X185530443Y-94990519D02*
G01*
X185596627Y-94997037D01*
X185766466Y-95048557D01*
X185922991Y-95132222D01*
X185958729Y-95161552D01*
X186060186Y-95244814D01*
X186130000Y-95329884D01*
X186172778Y-95382009D01*
X186256443Y-95538534D01*
X186307963Y-95708373D01*
X186325359Y-95885000D01*
X186307963Y-96061627D01*
X186256443Y-96231466D01*
X186172778Y-96387991D01*
X186143448Y-96423729D01*
X186060186Y-96525186D01*
X185958729Y-96608448D01*
X185922991Y-96637778D01*
X185766466Y-96721443D01*
X185596627Y-96772963D01*
X185530442Y-96779482D01*
X185464260Y-96786000D01*
X185375740Y-96786000D01*
X185309558Y-96779482D01*
X185243373Y-96772963D01*
X185073534Y-96721443D01*
X184917009Y-96637778D01*
X184881271Y-96608448D01*
X184779814Y-96525186D01*
X184696552Y-96423729D01*
X184667222Y-96387991D01*
X184583557Y-96231466D01*
X184532037Y-96061627D01*
X184514641Y-95885000D01*
X184532037Y-95708373D01*
X184583557Y-95538534D01*
X184667222Y-95382009D01*
X184710000Y-95329884D01*
X184779814Y-95244814D01*
X184881271Y-95161552D01*
X184917009Y-95132222D01*
X185073534Y-95048557D01*
X185243373Y-94997037D01*
X185309557Y-94990519D01*
X185375740Y-94984000D01*
X185464260Y-94984000D01*
X185530443Y-94990519D01*
X185530443Y-94990519D01*
G37*
G36*
X182331000Y-96586000D02*
G01*
X181529000Y-96586000D01*
X181529000Y-95184000D01*
X182331000Y-95184000D01*
X182331000Y-96586000D01*
X182331000Y-96586000D01*
G37*
G36*
X184231000Y-96586000D02*
G01*
X183429000Y-96586000D01*
X183429000Y-95184000D01*
X184231000Y-95184000D01*
X184231000Y-96586000D01*
X184231000Y-96586000D01*
G37*
G36*
X170484727Y-94598719D02*
G01*
X169528719Y-95554727D01*
X168749487Y-94775495D01*
X169705495Y-93819487D01*
X170484727Y-94598719D01*
X170484727Y-94598719D01*
G37*
G36*
X186321000Y-94246000D02*
G01*
X184519000Y-94246000D01*
X184519000Y-92444000D01*
X186321000Y-92444000D01*
X186321000Y-94246000D01*
X186321000Y-94246000D01*
G37*
G36*
X169070513Y-93184505D02*
G01*
X168114505Y-94140513D01*
X167335273Y-93361281D01*
X168291281Y-92405273D01*
X169070513Y-93184505D01*
X169070513Y-93184505D01*
G37*
G36*
X182331000Y-94046000D02*
G01*
X181529000Y-94046000D01*
X181529000Y-92644000D01*
X182331000Y-92644000D01*
X182331000Y-94046000D01*
X182331000Y-94046000D01*
G37*
G36*
X184231000Y-94046000D02*
G01*
X183429000Y-94046000D01*
X183429000Y-92644000D01*
X184231000Y-92644000D01*
X184231000Y-94046000D01*
X184231000Y-94046000D01*
G37*
G36*
X165189720Y-91939781D02*
G01*
X165335492Y-92000162D01*
X165335494Y-92000163D01*
X165466686Y-92087822D01*
X165578256Y-92199392D01*
X165665915Y-92330584D01*
X165665916Y-92330586D01*
X165726297Y-92476358D01*
X165757078Y-92631107D01*
X165757078Y-92788893D01*
X165726297Y-92943642D01*
X165675614Y-93066000D01*
X165665915Y-93089416D01*
X165578256Y-93220608D01*
X165466686Y-93332178D01*
X165335494Y-93419837D01*
X165335493Y-93419838D01*
X165335492Y-93419838D01*
X165189720Y-93480219D01*
X165034971Y-93511000D01*
X164877185Y-93511000D01*
X164722436Y-93480219D01*
X164576664Y-93419838D01*
X164576663Y-93419838D01*
X164576662Y-93419837D01*
X164445470Y-93332178D01*
X164333900Y-93220608D01*
X164246241Y-93089416D01*
X164236542Y-93066000D01*
X164185859Y-92943642D01*
X164155078Y-92788893D01*
X164155078Y-92631107D01*
X164185859Y-92476358D01*
X164246240Y-92330586D01*
X164246241Y-92330584D01*
X164333900Y-92199392D01*
X164445470Y-92087822D01*
X164576662Y-92000163D01*
X164576664Y-92000162D01*
X164722436Y-91939781D01*
X164877185Y-91909000D01*
X165034971Y-91909000D01*
X165189720Y-91939781D01*
X165189720Y-91939781D01*
G37*
G36*
X124006000Y-93066000D02*
G01*
X121104000Y-93066000D01*
X121104000Y-89964000D01*
X124006000Y-89964000D01*
X124006000Y-93066000D01*
X124006000Y-93066000D01*
G37*
G36*
X170413642Y-91304781D02*
G01*
X170516728Y-91347481D01*
X170559416Y-91365163D01*
X170690608Y-91452822D01*
X170802178Y-91564392D01*
X170863388Y-91656000D01*
X170889838Y-91695586D01*
X170950219Y-91841358D01*
X170981000Y-91996107D01*
X170981000Y-92153893D01*
X170950219Y-92308642D01*
X170889838Y-92454414D01*
X170889837Y-92454416D01*
X170802178Y-92585608D01*
X170690608Y-92697178D01*
X170559416Y-92784837D01*
X170559415Y-92784838D01*
X170559414Y-92784838D01*
X170413642Y-92845219D01*
X170258893Y-92876000D01*
X170101107Y-92876000D01*
X169946358Y-92845219D01*
X169800586Y-92784838D01*
X169800585Y-92784838D01*
X169800584Y-92784837D01*
X169669392Y-92697178D01*
X169557822Y-92585608D01*
X169470163Y-92454416D01*
X169470162Y-92454414D01*
X169409781Y-92308642D01*
X169379000Y-92153893D01*
X169379000Y-91996107D01*
X169409781Y-91841358D01*
X169470162Y-91695586D01*
X169496612Y-91656000D01*
X169557822Y-91564392D01*
X169669392Y-91452822D01*
X169800584Y-91365163D01*
X169843272Y-91347481D01*
X169946358Y-91304781D01*
X170101107Y-91274000D01*
X170258893Y-91274000D01*
X170413642Y-91304781D01*
X170413642Y-91304781D01*
G37*
G36*
X177206000Y-91991000D02*
G01*
X175854000Y-91991000D01*
X175854000Y-90889000D01*
X177206000Y-90889000D01*
X177206000Y-91991000D01*
X177206000Y-91991000D01*
G37*
G36*
X179921000Y-91816000D02*
G01*
X178219000Y-91816000D01*
X178219000Y-90714000D01*
X179921000Y-90714000D01*
X179921000Y-91816000D01*
X179921000Y-91816000D01*
G37*
G36*
X169070513Y-90965495D02*
G01*
X168291281Y-91744727D01*
X167335273Y-90788719D01*
X168114505Y-90009487D01*
X169070513Y-90965495D01*
X169070513Y-90965495D01*
G37*
G36*
X126613228Y-89986703D02*
G01*
X126768100Y-90050853D01*
X126907481Y-90143985D01*
X127026015Y-90262519D01*
X127119147Y-90401900D01*
X127183297Y-90556772D01*
X127216000Y-90721184D01*
X127216000Y-90888816D01*
X127183297Y-91053228D01*
X127119147Y-91208100D01*
X127026015Y-91347481D01*
X126907481Y-91466015D01*
X126768100Y-91559147D01*
X126613228Y-91623297D01*
X126448816Y-91656000D01*
X126281184Y-91656000D01*
X126116772Y-91623297D01*
X125961900Y-91559147D01*
X125822519Y-91466015D01*
X125703985Y-91347481D01*
X125610853Y-91208100D01*
X125546703Y-91053228D01*
X125514000Y-90888816D01*
X125514000Y-90721184D01*
X125546703Y-90556772D01*
X125610853Y-90401900D01*
X125703985Y-90262519D01*
X125822519Y-90143985D01*
X125961900Y-90050853D01*
X126116772Y-89986703D01*
X126281184Y-89954000D01*
X126448816Y-89954000D01*
X126613228Y-89986703D01*
X126613228Y-89986703D01*
G37*
G36*
X118911823Y-89966313D02*
G01*
X119072242Y-90014976D01*
X119139361Y-90050852D01*
X119220078Y-90093996D01*
X119349659Y-90200341D01*
X119456004Y-90329922D01*
X119456005Y-90329924D01*
X119535024Y-90477758D01*
X119583687Y-90638177D01*
X119600117Y-90805000D01*
X119583687Y-90971823D01*
X119535024Y-91132242D01*
X119494477Y-91208100D01*
X119456004Y-91280078D01*
X119349659Y-91409659D01*
X119220078Y-91516004D01*
X119220076Y-91516005D01*
X119072242Y-91595024D01*
X118911823Y-91643687D01*
X118786804Y-91656000D01*
X118703196Y-91656000D01*
X118578177Y-91643687D01*
X118417758Y-91595024D01*
X118269924Y-91516005D01*
X118269922Y-91516004D01*
X118140341Y-91409659D01*
X118033996Y-91280078D01*
X117995523Y-91208100D01*
X117954976Y-91132242D01*
X117906313Y-90971823D01*
X117889883Y-90805000D01*
X117906313Y-90638177D01*
X117954976Y-90477758D01*
X118033995Y-90329924D01*
X118033996Y-90329922D01*
X118140341Y-90200341D01*
X118269922Y-90093996D01*
X118350639Y-90050852D01*
X118417758Y-90014976D01*
X118578177Y-89966313D01*
X118703196Y-89954000D01*
X118786804Y-89954000D01*
X118911823Y-89966313D01*
X118911823Y-89966313D01*
G37*
G36*
X136056823Y-89331313D02*
G01*
X136187380Y-89370917D01*
X136212166Y-89378436D01*
X136217242Y-89379976D01*
X136349906Y-89450886D01*
X136365078Y-89458996D01*
X136494659Y-89565341D01*
X136601004Y-89694922D01*
X136601005Y-89694924D01*
X136680024Y-89842758D01*
X136728687Y-90003177D01*
X136745117Y-90170000D01*
X136728687Y-90336823D01*
X136680024Y-90497242D01*
X136616341Y-90616384D01*
X136601004Y-90645078D01*
X136494659Y-90774659D01*
X136365078Y-90881004D01*
X136365076Y-90881005D01*
X136217242Y-90960024D01*
X136056823Y-91008687D01*
X135931804Y-91021000D01*
X135848196Y-91021000D01*
X135723177Y-91008687D01*
X135562758Y-90960024D01*
X135414924Y-90881005D01*
X135414922Y-90881004D01*
X135285341Y-90774659D01*
X135178996Y-90645078D01*
X135163659Y-90616384D01*
X135099976Y-90497242D01*
X135051313Y-90336823D01*
X135034883Y-90170000D01*
X135051313Y-90003177D01*
X135099976Y-89842758D01*
X135178995Y-89694924D01*
X135178996Y-89694922D01*
X135285341Y-89565341D01*
X135414922Y-89458996D01*
X135430094Y-89450886D01*
X135562758Y-89379976D01*
X135567835Y-89378436D01*
X135592620Y-89370917D01*
X135723177Y-89331313D01*
X135848196Y-89319000D01*
X135931804Y-89319000D01*
X136056823Y-89331313D01*
X136056823Y-89331313D01*
G37*
G36*
X130976823Y-89331313D02*
G01*
X131107380Y-89370917D01*
X131132166Y-89378436D01*
X131137242Y-89379976D01*
X131269906Y-89450886D01*
X131285078Y-89458996D01*
X131414659Y-89565341D01*
X131521004Y-89694922D01*
X131521005Y-89694924D01*
X131600024Y-89842758D01*
X131648687Y-90003177D01*
X131665117Y-90170000D01*
X131648687Y-90336823D01*
X131600024Y-90497242D01*
X131536341Y-90616384D01*
X131521004Y-90645078D01*
X131414659Y-90774659D01*
X131285078Y-90881004D01*
X131285076Y-90881005D01*
X131137242Y-90960024D01*
X130976823Y-91008687D01*
X130851804Y-91021000D01*
X130768196Y-91021000D01*
X130643177Y-91008687D01*
X130482758Y-90960024D01*
X130334924Y-90881005D01*
X130334922Y-90881004D01*
X130205341Y-90774659D01*
X130098996Y-90645078D01*
X130083659Y-90616384D01*
X130019976Y-90497242D01*
X129971313Y-90336823D01*
X129954883Y-90170000D01*
X129971313Y-90003177D01*
X130019976Y-89842758D01*
X130098995Y-89694924D01*
X130098996Y-89694922D01*
X130205341Y-89565341D01*
X130334922Y-89458996D01*
X130350094Y-89450886D01*
X130482758Y-89379976D01*
X130487835Y-89378436D01*
X130512620Y-89370917D01*
X130643177Y-89331313D01*
X130768196Y-89319000D01*
X130851804Y-89319000D01*
X130976823Y-89331313D01*
X130976823Y-89331313D01*
G37*
G36*
X133516823Y-89331313D02*
G01*
X133647380Y-89370917D01*
X133672166Y-89378436D01*
X133677242Y-89379976D01*
X133809906Y-89450886D01*
X133825078Y-89458996D01*
X133954659Y-89565341D01*
X134061004Y-89694922D01*
X134061005Y-89694924D01*
X134140024Y-89842758D01*
X134188687Y-90003177D01*
X134205117Y-90170000D01*
X134188687Y-90336823D01*
X134140024Y-90497242D01*
X134076341Y-90616384D01*
X134061004Y-90645078D01*
X133954659Y-90774659D01*
X133825078Y-90881004D01*
X133825076Y-90881005D01*
X133677242Y-90960024D01*
X133516823Y-91008687D01*
X133391804Y-91021000D01*
X133308196Y-91021000D01*
X133183177Y-91008687D01*
X133022758Y-90960024D01*
X132874924Y-90881005D01*
X132874922Y-90881004D01*
X132745341Y-90774659D01*
X132638996Y-90645078D01*
X132623659Y-90616384D01*
X132559976Y-90497242D01*
X132511313Y-90336823D01*
X132494883Y-90170000D01*
X132511313Y-90003177D01*
X132559976Y-89842758D01*
X132638995Y-89694924D01*
X132638996Y-89694922D01*
X132745341Y-89565341D01*
X132874922Y-89458996D01*
X132890094Y-89450886D01*
X133022758Y-89379976D01*
X133027835Y-89378436D01*
X133052620Y-89370917D01*
X133183177Y-89331313D01*
X133308196Y-89319000D01*
X133391804Y-89319000D01*
X133516823Y-89331313D01*
X133516823Y-89331313D01*
G37*
G36*
X144311823Y-89331313D02*
G01*
X144442380Y-89370917D01*
X144467166Y-89378436D01*
X144472242Y-89379976D01*
X144604906Y-89450886D01*
X144620078Y-89458996D01*
X144749659Y-89565341D01*
X144856004Y-89694922D01*
X144856005Y-89694924D01*
X144935024Y-89842758D01*
X144983687Y-90003177D01*
X145000117Y-90170000D01*
X144983687Y-90336823D01*
X144935024Y-90497242D01*
X144871341Y-90616384D01*
X144856004Y-90645078D01*
X144749659Y-90774659D01*
X144620078Y-90881004D01*
X144620076Y-90881005D01*
X144472242Y-90960024D01*
X144311823Y-91008687D01*
X144186804Y-91021000D01*
X144103196Y-91021000D01*
X143978177Y-91008687D01*
X143817758Y-90960024D01*
X143669924Y-90881005D01*
X143669922Y-90881004D01*
X143540341Y-90774659D01*
X143433996Y-90645078D01*
X143418659Y-90616384D01*
X143354976Y-90497242D01*
X143306313Y-90336823D01*
X143289883Y-90170000D01*
X143306313Y-90003177D01*
X143354976Y-89842758D01*
X143433995Y-89694924D01*
X143433996Y-89694922D01*
X143540341Y-89565341D01*
X143669922Y-89458996D01*
X143685094Y-89450886D01*
X143817758Y-89379976D01*
X143822835Y-89378436D01*
X143847620Y-89370917D01*
X143978177Y-89331313D01*
X144103196Y-89319000D01*
X144186804Y-89319000D01*
X144311823Y-89331313D01*
X144311823Y-89331313D01*
G37*
G36*
X141771823Y-89331313D02*
G01*
X141902380Y-89370917D01*
X141927166Y-89378436D01*
X141932242Y-89379976D01*
X142064906Y-89450886D01*
X142080078Y-89458996D01*
X142209659Y-89565341D01*
X142316004Y-89694922D01*
X142316005Y-89694924D01*
X142395024Y-89842758D01*
X142443687Y-90003177D01*
X142460117Y-90170000D01*
X142443687Y-90336823D01*
X142395024Y-90497242D01*
X142331341Y-90616384D01*
X142316004Y-90645078D01*
X142209659Y-90774659D01*
X142080078Y-90881004D01*
X142080076Y-90881005D01*
X141932242Y-90960024D01*
X141771823Y-91008687D01*
X141646804Y-91021000D01*
X141563196Y-91021000D01*
X141438177Y-91008687D01*
X141277758Y-90960024D01*
X141129924Y-90881005D01*
X141129922Y-90881004D01*
X141000341Y-90774659D01*
X140893996Y-90645078D01*
X140878659Y-90616384D01*
X140814976Y-90497242D01*
X140766313Y-90336823D01*
X140749883Y-90170000D01*
X140766313Y-90003177D01*
X140814976Y-89842758D01*
X140893995Y-89694924D01*
X140893996Y-89694922D01*
X141000341Y-89565341D01*
X141129922Y-89458996D01*
X141145094Y-89450886D01*
X141277758Y-89379976D01*
X141282835Y-89378436D01*
X141307620Y-89370917D01*
X141438177Y-89331313D01*
X141563196Y-89319000D01*
X141646804Y-89319000D01*
X141771823Y-89331313D01*
X141771823Y-89331313D01*
G37*
G36*
X146851823Y-89331313D02*
G01*
X146982380Y-89370917D01*
X147007166Y-89378436D01*
X147012242Y-89379976D01*
X147144906Y-89450886D01*
X147160078Y-89458996D01*
X147289659Y-89565341D01*
X147396004Y-89694922D01*
X147396005Y-89694924D01*
X147475024Y-89842758D01*
X147523687Y-90003177D01*
X147540117Y-90170000D01*
X147523687Y-90336823D01*
X147475024Y-90497242D01*
X147411341Y-90616384D01*
X147396004Y-90645078D01*
X147289659Y-90774659D01*
X147160078Y-90881004D01*
X147160076Y-90881005D01*
X147012242Y-90960024D01*
X146851823Y-91008687D01*
X146726804Y-91021000D01*
X146643196Y-91021000D01*
X146518177Y-91008687D01*
X146357758Y-90960024D01*
X146209924Y-90881005D01*
X146209922Y-90881004D01*
X146080341Y-90774659D01*
X145973996Y-90645078D01*
X145958659Y-90616384D01*
X145894976Y-90497242D01*
X145846313Y-90336823D01*
X145829883Y-90170000D01*
X145846313Y-90003177D01*
X145894976Y-89842758D01*
X145973995Y-89694924D01*
X145973996Y-89694922D01*
X146080341Y-89565341D01*
X146209922Y-89458996D01*
X146225094Y-89450886D01*
X146357758Y-89379976D01*
X146362835Y-89378436D01*
X146387620Y-89370917D01*
X146518177Y-89331313D01*
X146643196Y-89319000D01*
X146726804Y-89319000D01*
X146851823Y-89331313D01*
X146851823Y-89331313D01*
G37*
G36*
X186361564Y-88674389D02*
G01*
X186552833Y-88753615D01*
X186552835Y-88753616D01*
X186646199Y-88816000D01*
X186724973Y-88868635D01*
X186871365Y-89015027D01*
X186986385Y-89187167D01*
X187065611Y-89378436D01*
X187106000Y-89581484D01*
X187106000Y-89788516D01*
X187065611Y-89991564D01*
X186986385Y-90182833D01*
X186986384Y-90182835D01*
X186871365Y-90354973D01*
X186724973Y-90501365D01*
X186552835Y-90616384D01*
X186552834Y-90616385D01*
X186552833Y-90616385D01*
X186361564Y-90695611D01*
X186158516Y-90736000D01*
X185951484Y-90736000D01*
X185748436Y-90695611D01*
X185557167Y-90616385D01*
X185557166Y-90616385D01*
X185557165Y-90616384D01*
X185385027Y-90501365D01*
X185238635Y-90354973D01*
X185123616Y-90182835D01*
X185123615Y-90182833D01*
X185044389Y-89991564D01*
X185004000Y-89788516D01*
X185004000Y-89581484D01*
X185044389Y-89378436D01*
X185123615Y-89187167D01*
X185238635Y-89015027D01*
X185385027Y-88868635D01*
X185463801Y-88816000D01*
X185557165Y-88753616D01*
X185557167Y-88753615D01*
X185748436Y-88674389D01*
X185951484Y-88634000D01*
X186158516Y-88634000D01*
X186361564Y-88674389D01*
X186361564Y-88674389D01*
G37*
G36*
X181861564Y-88674389D02*
G01*
X182052833Y-88753615D01*
X182052835Y-88753616D01*
X182146199Y-88816000D01*
X182224973Y-88868635D01*
X182371365Y-89015027D01*
X182486385Y-89187167D01*
X182565611Y-89378436D01*
X182606000Y-89581484D01*
X182606000Y-89788516D01*
X182565611Y-89991564D01*
X182486385Y-90182833D01*
X182486384Y-90182835D01*
X182371365Y-90354973D01*
X182224973Y-90501365D01*
X182052835Y-90616384D01*
X182052834Y-90616385D01*
X182052833Y-90616385D01*
X181861564Y-90695611D01*
X181658516Y-90736000D01*
X181451484Y-90736000D01*
X181248436Y-90695611D01*
X181057167Y-90616385D01*
X181057166Y-90616385D01*
X181057165Y-90616384D01*
X180885027Y-90501365D01*
X180738635Y-90354973D01*
X180623616Y-90182835D01*
X180623615Y-90182833D01*
X180544389Y-89991564D01*
X180504000Y-89788516D01*
X180504000Y-89581484D01*
X180544389Y-89378436D01*
X180623615Y-89187167D01*
X180738635Y-89015027D01*
X180885027Y-88868635D01*
X180963801Y-88816000D01*
X181057165Y-88753616D01*
X181057167Y-88753615D01*
X181248436Y-88674389D01*
X181451484Y-88634000D01*
X181658516Y-88634000D01*
X181861564Y-88674389D01*
X181861564Y-88674389D01*
G37*
G36*
X170484727Y-89551281D02*
G01*
X169705495Y-90330513D01*
X168749487Y-89374505D01*
X169528719Y-88595273D01*
X170484727Y-89551281D01*
X170484727Y-89551281D01*
G37*
G36*
X177206000Y-89991000D02*
G01*
X175854000Y-89991000D01*
X175854000Y-88889000D01*
X177206000Y-88889000D01*
X177206000Y-89991000D01*
X177206000Y-89991000D01*
G37*
G36*
X131511000Y-88981000D02*
G01*
X130109000Y-88981000D01*
X130109000Y-88179000D01*
X131511000Y-88179000D01*
X131511000Y-88981000D01*
X131511000Y-88981000D01*
G37*
G36*
X179921000Y-88816000D02*
G01*
X178219000Y-88816000D01*
X178219000Y-87714000D01*
X179921000Y-87714000D01*
X179921000Y-88816000D01*
X179921000Y-88816000D01*
G37*
G36*
X140421000Y-88077000D02*
G01*
X139619000Y-88077000D01*
X139619000Y-86675000D01*
X140421000Y-86675000D01*
X140421000Y-88077000D01*
X140421000Y-88077000D01*
G37*
G36*
X142321000Y-88077000D02*
G01*
X141519000Y-88077000D01*
X141519000Y-86675000D01*
X142321000Y-86675000D01*
X142321000Y-88077000D01*
X142321000Y-88077000D01*
G37*
G36*
X174000442Y-85465518D02*
G01*
X174066627Y-85472037D01*
X174236466Y-85523557D01*
X174392991Y-85607222D01*
X174428729Y-85636552D01*
X174530186Y-85719814D01*
X174613448Y-85821271D01*
X174642778Y-85857009D01*
X174726443Y-86013534D01*
X174777963Y-86183373D01*
X174795359Y-86360000D01*
X174777963Y-86536627D01*
X174726443Y-86706466D01*
X174642778Y-86862991D01*
X174613448Y-86898729D01*
X174530186Y-87000186D01*
X174431712Y-87081000D01*
X174392991Y-87112778D01*
X174236466Y-87196443D01*
X174066627Y-87247963D01*
X174000442Y-87254482D01*
X173934260Y-87261000D01*
X173845740Y-87261000D01*
X173779558Y-87254482D01*
X173713373Y-87247963D01*
X173543534Y-87196443D01*
X173387009Y-87112778D01*
X173348288Y-87081000D01*
X173249814Y-87000186D01*
X173166552Y-86898729D01*
X173137222Y-86862991D01*
X173053557Y-86706466D01*
X173002037Y-86536627D01*
X172984641Y-86360000D01*
X173002037Y-86183373D01*
X173053557Y-86013534D01*
X173137222Y-85857009D01*
X173166552Y-85821271D01*
X173249814Y-85719814D01*
X173351271Y-85636552D01*
X173387009Y-85607222D01*
X173543534Y-85523557D01*
X173713373Y-85472037D01*
X173779558Y-85465518D01*
X173845740Y-85459000D01*
X173934260Y-85459000D01*
X174000442Y-85465518D01*
X174000442Y-85465518D01*
G37*
G36*
X177531000Y-87261000D02*
G01*
X175729000Y-87261000D01*
X175729000Y-85459000D01*
X177531000Y-85459000D01*
X177531000Y-87261000D01*
X177531000Y-87261000D01*
G37*
G36*
X131511000Y-87081000D02*
G01*
X130109000Y-87081000D01*
X130109000Y-86279000D01*
X131511000Y-86279000D01*
X131511000Y-87081000D01*
X131511000Y-87081000D01*
G37*
G36*
X121555104Y-81504585D02*
G01*
X121723626Y-81574389D01*
X121875291Y-81675728D01*
X122004272Y-81804709D01*
X122105611Y-81956374D01*
X122175415Y-82124896D01*
X122211000Y-82303797D01*
X122211000Y-82486203D01*
X122175415Y-82665104D01*
X122105611Y-82833626D01*
X122004272Y-82985291D01*
X121875291Y-83114272D01*
X121723626Y-83215611D01*
X121704534Y-83223519D01*
X121682927Y-83235068D01*
X121663985Y-83250613D01*
X121648439Y-83269555D01*
X121636888Y-83291165D01*
X121629775Y-83314614D01*
X121627373Y-83339000D01*
X121629775Y-83363386D01*
X121636888Y-83386835D01*
X121648439Y-83408446D01*
X121663984Y-83427388D01*
X121682926Y-83442934D01*
X121704536Y-83454485D01*
X121727985Y-83461598D01*
X121752372Y-83464000D01*
X124006000Y-83464000D01*
X124006000Y-86566000D01*
X121104000Y-86566000D01*
X121104000Y-83405722D01*
X121101598Y-83381336D01*
X121094485Y-83357887D01*
X121082934Y-83336276D01*
X121067389Y-83317334D01*
X121048447Y-83301789D01*
X121026836Y-83290238D01*
X121025737Y-83289904D01*
X121014903Y-83285416D01*
X121014896Y-83285415D01*
X120846374Y-83215611D01*
X120694709Y-83114272D01*
X120565728Y-82985291D01*
X120464389Y-82833626D01*
X120394585Y-82665104D01*
X120359000Y-82486203D01*
X120359000Y-82303797D01*
X120394585Y-82124896D01*
X120464389Y-81956374D01*
X120565728Y-81804709D01*
X120694709Y-81675728D01*
X120846374Y-81574389D01*
X121014896Y-81504585D01*
X121193797Y-81469000D01*
X121376203Y-81469000D01*
X121555104Y-81504585D01*
X121555104Y-81504585D01*
G37*
G36*
X138201000Y-85481000D02*
G01*
X136599000Y-85481000D01*
X136599000Y-83379000D01*
X138201000Y-83379000D01*
X138201000Y-85481000D01*
X138201000Y-85481000D01*
G37*
G36*
X131611000Y-85481000D02*
G01*
X130009000Y-85481000D01*
X130009000Y-83379000D01*
X131611000Y-83379000D01*
X131611000Y-85481000D01*
X131611000Y-85481000D01*
G37*
G36*
X129311000Y-85481000D02*
G01*
X127709000Y-85481000D01*
X127709000Y-83379000D01*
X129311000Y-83379000D01*
X129311000Y-85481000D01*
X129311000Y-85481000D01*
G37*
G36*
X133911000Y-85481000D02*
G01*
X132309000Y-85481000D01*
X132309000Y-83379000D01*
X133911000Y-83379000D01*
X133911000Y-85481000D01*
X133911000Y-85481000D01*
G37*
G36*
X142801000Y-85481000D02*
G01*
X141199000Y-85481000D01*
X141199000Y-83379000D01*
X142801000Y-83379000D01*
X142801000Y-85481000D01*
X142801000Y-85481000D01*
G37*
G36*
X140501000Y-85481000D02*
G01*
X138899000Y-85481000D01*
X138899000Y-83379000D01*
X140501000Y-83379000D01*
X140501000Y-85481000D01*
X140501000Y-85481000D01*
G37*
G36*
X176640443Y-82925519D02*
G01*
X176706627Y-82932037D01*
X176876466Y-82983557D01*
X177032991Y-83067222D01*
X177068729Y-83096552D01*
X177170186Y-83179814D01*
X177228288Y-83250613D01*
X177282778Y-83317009D01*
X177366443Y-83473534D01*
X177417963Y-83643373D01*
X177435359Y-83820000D01*
X177417963Y-83996627D01*
X177366443Y-84166466D01*
X177282778Y-84322991D01*
X177253448Y-84358729D01*
X177170186Y-84460186D01*
X177068729Y-84543448D01*
X177032991Y-84572778D01*
X176876466Y-84656443D01*
X176706627Y-84707963D01*
X176640443Y-84714481D01*
X176574260Y-84721000D01*
X176485740Y-84721000D01*
X176419557Y-84714481D01*
X176353373Y-84707963D01*
X176183534Y-84656443D01*
X176027009Y-84572778D01*
X175991271Y-84543448D01*
X175889814Y-84460186D01*
X175806552Y-84358729D01*
X175777222Y-84322991D01*
X175693557Y-84166466D01*
X175642037Y-83996627D01*
X175624641Y-83820000D01*
X175642037Y-83643373D01*
X175693557Y-83473534D01*
X175777222Y-83317009D01*
X175831712Y-83250613D01*
X175889814Y-83179814D01*
X175991271Y-83096552D01*
X176027009Y-83067222D01*
X176183534Y-82983557D01*
X176353373Y-82932037D01*
X176419557Y-82925519D01*
X176485740Y-82919000D01*
X176574260Y-82919000D01*
X176640443Y-82925519D01*
X176640443Y-82925519D01*
G37*
G36*
X174100443Y-82925519D02*
G01*
X174166627Y-82932037D01*
X174336466Y-82983557D01*
X174492991Y-83067222D01*
X174528729Y-83096552D01*
X174630186Y-83179814D01*
X174688288Y-83250613D01*
X174742778Y-83317009D01*
X174826443Y-83473534D01*
X174877963Y-83643373D01*
X174895359Y-83820000D01*
X174877963Y-83996627D01*
X174826443Y-84166466D01*
X174742778Y-84322991D01*
X174713448Y-84358729D01*
X174630186Y-84460186D01*
X174528729Y-84543448D01*
X174492991Y-84572778D01*
X174336466Y-84656443D01*
X174166627Y-84707963D01*
X174100443Y-84714481D01*
X174034260Y-84721000D01*
X173945740Y-84721000D01*
X173879557Y-84714481D01*
X173813373Y-84707963D01*
X173643534Y-84656443D01*
X173487009Y-84572778D01*
X173451271Y-84543448D01*
X173349814Y-84460186D01*
X173266552Y-84358729D01*
X173237222Y-84322991D01*
X173153557Y-84166466D01*
X173102037Y-83996627D01*
X173084641Y-83820000D01*
X173102037Y-83643373D01*
X173153557Y-83473534D01*
X173237222Y-83317009D01*
X173291712Y-83250613D01*
X173349814Y-83179814D01*
X173451271Y-83096552D01*
X173487009Y-83067222D01*
X173643534Y-82983557D01*
X173813373Y-82932037D01*
X173879557Y-82925519D01*
X173945740Y-82919000D01*
X174034260Y-82919000D01*
X174100443Y-82925519D01*
X174100443Y-82925519D01*
G37*
G36*
X169631000Y-84521000D02*
G01*
X168829000Y-84521000D01*
X168829000Y-83119000D01*
X169631000Y-83119000D01*
X169631000Y-84521000D01*
X169631000Y-84521000D01*
G37*
G36*
X171531000Y-84521000D02*
G01*
X170729000Y-84521000D01*
X170729000Y-83119000D01*
X171531000Y-83119000D01*
X171531000Y-84521000D01*
X171531000Y-84521000D01*
G37*
G36*
X181861564Y-82174389D02*
G01*
X182052833Y-82253615D01*
X182052835Y-82253616D01*
X182224973Y-82368635D01*
X182371365Y-82515027D01*
X182485084Y-82685219D01*
X182486385Y-82687167D01*
X182565611Y-82878436D01*
X182606000Y-83081484D01*
X182606000Y-83288516D01*
X182565611Y-83491564D01*
X182502730Y-83643373D01*
X182486384Y-83682835D01*
X182371365Y-83854973D01*
X182224973Y-84001365D01*
X182052835Y-84116384D01*
X182052834Y-84116385D01*
X182052833Y-84116385D01*
X181861564Y-84195611D01*
X181658516Y-84236000D01*
X181451484Y-84236000D01*
X181248436Y-84195611D01*
X181057167Y-84116385D01*
X181057166Y-84116385D01*
X181057165Y-84116384D01*
X180885027Y-84001365D01*
X180738635Y-83854973D01*
X180623616Y-83682835D01*
X180607270Y-83643373D01*
X180544389Y-83491564D01*
X180504000Y-83288516D01*
X180504000Y-83081484D01*
X180544389Y-82878436D01*
X180623615Y-82687167D01*
X180624917Y-82685219D01*
X180738635Y-82515027D01*
X180885027Y-82368635D01*
X181057165Y-82253616D01*
X181057167Y-82253615D01*
X181248436Y-82174389D01*
X181451484Y-82134000D01*
X181658516Y-82134000D01*
X181861564Y-82174389D01*
X181861564Y-82174389D01*
G37*
G36*
X186361564Y-82174389D02*
G01*
X186552833Y-82253615D01*
X186552835Y-82253616D01*
X186724973Y-82368635D01*
X186871365Y-82515027D01*
X186985084Y-82685219D01*
X186986385Y-82687167D01*
X187065611Y-82878436D01*
X187106000Y-83081484D01*
X187106000Y-83288516D01*
X187065611Y-83491564D01*
X187002730Y-83643373D01*
X186986384Y-83682835D01*
X186871365Y-83854973D01*
X186724973Y-84001365D01*
X186552835Y-84116384D01*
X186552834Y-84116385D01*
X186552833Y-84116385D01*
X186361564Y-84195611D01*
X186158516Y-84236000D01*
X185951484Y-84236000D01*
X185748436Y-84195611D01*
X185557167Y-84116385D01*
X185557166Y-84116385D01*
X185557165Y-84116384D01*
X185385027Y-84001365D01*
X185238635Y-83854973D01*
X185123616Y-83682835D01*
X185107270Y-83643373D01*
X185044389Y-83491564D01*
X185004000Y-83288516D01*
X185004000Y-83081484D01*
X185044389Y-82878436D01*
X185123615Y-82687167D01*
X185124917Y-82685219D01*
X185238635Y-82515027D01*
X185385027Y-82368635D01*
X185557165Y-82253616D01*
X185557167Y-82253615D01*
X185748436Y-82174389D01*
X185951484Y-82134000D01*
X186158516Y-82134000D01*
X186361564Y-82174389D01*
X186361564Y-82174389D01*
G37*
G36*
X169143642Y-81144781D02*
G01*
X169289414Y-81205162D01*
X169289416Y-81205163D01*
X169420608Y-81292822D01*
X169532178Y-81404392D01*
X169575347Y-81469000D01*
X169619838Y-81535586D01*
X169680219Y-81681358D01*
X169711000Y-81836107D01*
X169711000Y-81993893D01*
X169680219Y-82148642D01*
X169636737Y-82253616D01*
X169619837Y-82294416D01*
X169532178Y-82425608D01*
X169420608Y-82537178D01*
X169289416Y-82624837D01*
X169289415Y-82624838D01*
X169289414Y-82624838D01*
X169143642Y-82685219D01*
X168988893Y-82716000D01*
X168831107Y-82716000D01*
X168676358Y-82685219D01*
X168530586Y-82624838D01*
X168530585Y-82624838D01*
X168530584Y-82624837D01*
X168399392Y-82537178D01*
X168287822Y-82425608D01*
X168200163Y-82294416D01*
X168183263Y-82253616D01*
X168139781Y-82148642D01*
X168109000Y-81993893D01*
X168109000Y-81836107D01*
X168139781Y-81681358D01*
X168200162Y-81535586D01*
X168244653Y-81469000D01*
X168287822Y-81404392D01*
X168399392Y-81292822D01*
X168530584Y-81205163D01*
X168530586Y-81205162D01*
X168676358Y-81144781D01*
X168831107Y-81114000D01*
X168988893Y-81114000D01*
X169143642Y-81144781D01*
X169143642Y-81144781D01*
G37*
G36*
X176640442Y-80385518D02*
G01*
X176706627Y-80392037D01*
X176876466Y-80443557D01*
X177032991Y-80527222D01*
X177068729Y-80556552D01*
X177170186Y-80639814D01*
X177253448Y-80741271D01*
X177282778Y-80777009D01*
X177366443Y-80933534D01*
X177417963Y-81103373D01*
X177435359Y-81280000D01*
X177417963Y-81456627D01*
X177366443Y-81626466D01*
X177282778Y-81782991D01*
X177253448Y-81818729D01*
X177170186Y-81920186D01*
X177080372Y-81993893D01*
X177032991Y-82032778D01*
X176876466Y-82116443D01*
X176706627Y-82167963D01*
X176641382Y-82174389D01*
X176574260Y-82181000D01*
X176485740Y-82181000D01*
X176418618Y-82174389D01*
X176353373Y-82167963D01*
X176183534Y-82116443D01*
X176027009Y-82032778D01*
X175979628Y-81993893D01*
X175889814Y-81920186D01*
X175806552Y-81818729D01*
X175777222Y-81782991D01*
X175693557Y-81626466D01*
X175642037Y-81456627D01*
X175624641Y-81280000D01*
X175642037Y-81103373D01*
X175693557Y-80933534D01*
X175777222Y-80777009D01*
X175806552Y-80741271D01*
X175889814Y-80639814D01*
X175991271Y-80556552D01*
X176027009Y-80527222D01*
X176183534Y-80443557D01*
X176353373Y-80392037D01*
X176419558Y-80385518D01*
X176485740Y-80379000D01*
X176574260Y-80379000D01*
X176640442Y-80385518D01*
X176640442Y-80385518D01*
G37*
G36*
X174100442Y-80385518D02*
G01*
X174166627Y-80392037D01*
X174336466Y-80443557D01*
X174492991Y-80527222D01*
X174528729Y-80556552D01*
X174630186Y-80639814D01*
X174713448Y-80741271D01*
X174742778Y-80777009D01*
X174826443Y-80933534D01*
X174877963Y-81103373D01*
X174895359Y-81280000D01*
X174877963Y-81456627D01*
X174826443Y-81626466D01*
X174742778Y-81782991D01*
X174713448Y-81818729D01*
X174630186Y-81920186D01*
X174540372Y-81993893D01*
X174492991Y-82032778D01*
X174336466Y-82116443D01*
X174166627Y-82167963D01*
X174101382Y-82174389D01*
X174034260Y-82181000D01*
X173945740Y-82181000D01*
X173878618Y-82174389D01*
X173813373Y-82167963D01*
X173643534Y-82116443D01*
X173487009Y-82032778D01*
X173439628Y-81993893D01*
X173349814Y-81920186D01*
X173266552Y-81818729D01*
X173237222Y-81782991D01*
X173153557Y-81626466D01*
X173102037Y-81456627D01*
X173084641Y-81280000D01*
X173102037Y-81103373D01*
X173153557Y-80933534D01*
X173237222Y-80777009D01*
X173266552Y-80741271D01*
X173349814Y-80639814D01*
X173451271Y-80556552D01*
X173487009Y-80527222D01*
X173643534Y-80443557D01*
X173813373Y-80392037D01*
X173879558Y-80385518D01*
X173945740Y-80379000D01*
X174034260Y-80379000D01*
X174100442Y-80385518D01*
X174100442Y-80385518D01*
G37*
G36*
X183792395Y-79095546D02*
G01*
X183965469Y-79167235D01*
X183966515Y-79167934D01*
X183988125Y-79179485D01*
X184011574Y-79186598D01*
X184035960Y-79189000D01*
X184166000Y-79189000D01*
X184166000Y-79264307D01*
X184168402Y-79288693D01*
X184175515Y-79312142D01*
X184187066Y-79333753D01*
X184202606Y-79352689D01*
X184253690Y-79403773D01*
X184253691Y-79403775D01*
X184357766Y-79559534D01*
X184429454Y-79732605D01*
X184466000Y-79916333D01*
X184466000Y-80103667D01*
X184429454Y-80287395D01*
X184357766Y-80460466D01*
X184357765Y-80460467D01*
X184253690Y-80616227D01*
X184121227Y-80748690D01*
X184078844Y-80777009D01*
X183965466Y-80852766D01*
X183792395Y-80924454D01*
X183608667Y-80961000D01*
X183421333Y-80961000D01*
X183237605Y-80924454D01*
X183064534Y-80852766D01*
X182951156Y-80777009D01*
X182908773Y-80748690D01*
X182776310Y-80616227D01*
X182672235Y-80460467D01*
X182672234Y-80460466D01*
X182600546Y-80287395D01*
X182564000Y-80103667D01*
X182564000Y-79916333D01*
X182600546Y-79732605D01*
X182672234Y-79559534D01*
X182776309Y-79403775D01*
X182776310Y-79403773D01*
X182827394Y-79352689D01*
X182842934Y-79333753D01*
X182854485Y-79312142D01*
X182861598Y-79288693D01*
X182864000Y-79264307D01*
X182864000Y-79189000D01*
X182994040Y-79189000D01*
X183018426Y-79186598D01*
X183041875Y-79179485D01*
X183063485Y-79167934D01*
X183064531Y-79167235D01*
X183237605Y-79095546D01*
X183421333Y-79059000D01*
X183608667Y-79059000D01*
X183792395Y-79095546D01*
X183792395Y-79095546D01*
G37*
G36*
X181676000Y-80091000D02*
G01*
X180274000Y-80091000D01*
X180274000Y-79289000D01*
X181676000Y-79289000D01*
X181676000Y-80091000D01*
X181676000Y-80091000D01*
G37*
G36*
X179771000Y-80091000D02*
G01*
X178369000Y-80091000D01*
X178369000Y-79289000D01*
X179771000Y-79289000D01*
X179771000Y-80091000D01*
X179771000Y-80091000D01*
G37*
G36*
X186756000Y-80091000D02*
G01*
X185354000Y-80091000D01*
X185354000Y-79289000D01*
X186756000Y-79289000D01*
X186756000Y-80091000D01*
X186756000Y-80091000D01*
G37*
G36*
X121555104Y-78004585D02*
G01*
X121723626Y-78074389D01*
X121875291Y-78175728D01*
X122004272Y-78304709D01*
X122105611Y-78456374D01*
X122175415Y-78624896D01*
X122211000Y-78803797D01*
X122211000Y-78986203D01*
X122175415Y-79165104D01*
X122105611Y-79333626D01*
X122004272Y-79485291D01*
X121875291Y-79614272D01*
X121723626Y-79715611D01*
X121555104Y-79785415D01*
X121376203Y-79821000D01*
X121193797Y-79821000D01*
X121014896Y-79785415D01*
X120846374Y-79715611D01*
X120694709Y-79614272D01*
X120565728Y-79485291D01*
X120464389Y-79333626D01*
X120394585Y-79165104D01*
X120359000Y-78986203D01*
X120359000Y-78803797D01*
X120394585Y-78624896D01*
X120464389Y-78456374D01*
X120565728Y-78304709D01*
X120694709Y-78175728D01*
X120846374Y-78074389D01*
X121014896Y-78004585D01*
X121193797Y-77969000D01*
X121376203Y-77969000D01*
X121555104Y-78004585D01*
X121555104Y-78004585D01*
G37*
G36*
X176740443Y-77845519D02*
G01*
X176806627Y-77852037D01*
X176976466Y-77903557D01*
X177132991Y-77987222D01*
X177154149Y-78004586D01*
X177270186Y-78099814D01*
X177345019Y-78191000D01*
X177382778Y-78237009D01*
X177466443Y-78393534D01*
X177517963Y-78563373D01*
X177535359Y-78740000D01*
X177517963Y-78916627D01*
X177466443Y-79086466D01*
X177382778Y-79242991D01*
X177365284Y-79264307D01*
X177270186Y-79380186D01*
X177168729Y-79463448D01*
X177132991Y-79492778D01*
X176976466Y-79576443D01*
X176806627Y-79627963D01*
X176740442Y-79634482D01*
X176674260Y-79641000D01*
X176585740Y-79641000D01*
X176519558Y-79634482D01*
X176453373Y-79627963D01*
X176283534Y-79576443D01*
X176127009Y-79492778D01*
X176091271Y-79463448D01*
X175989814Y-79380186D01*
X175894716Y-79264307D01*
X175877222Y-79242991D01*
X175793557Y-79086466D01*
X175742037Y-78916627D01*
X175724641Y-78740000D01*
X175742037Y-78563373D01*
X175793557Y-78393534D01*
X175877222Y-78237009D01*
X175914981Y-78191000D01*
X175989814Y-78099814D01*
X176105851Y-78004586D01*
X176127009Y-77987222D01*
X176283534Y-77903557D01*
X176453373Y-77852037D01*
X176519557Y-77845519D01*
X176585740Y-77839000D01*
X176674260Y-77839000D01*
X176740443Y-77845519D01*
X176740443Y-77845519D01*
G37*
G36*
X174000443Y-77845519D02*
G01*
X174066627Y-77852037D01*
X174236466Y-77903557D01*
X174392991Y-77987222D01*
X174414149Y-78004586D01*
X174530186Y-78099814D01*
X174605019Y-78191000D01*
X174642778Y-78237009D01*
X174726443Y-78393534D01*
X174777963Y-78563373D01*
X174795359Y-78740000D01*
X174777963Y-78916627D01*
X174726443Y-79086466D01*
X174642778Y-79242991D01*
X174625284Y-79264307D01*
X174530186Y-79380186D01*
X174428729Y-79463448D01*
X174392991Y-79492778D01*
X174236466Y-79576443D01*
X174066627Y-79627963D01*
X174000442Y-79634482D01*
X173934260Y-79641000D01*
X173845740Y-79641000D01*
X173779558Y-79634482D01*
X173713373Y-79627963D01*
X173543534Y-79576443D01*
X173387009Y-79492778D01*
X173351271Y-79463448D01*
X173249814Y-79380186D01*
X173154716Y-79264307D01*
X173137222Y-79242991D01*
X173053557Y-79086466D01*
X173002037Y-78916627D01*
X172984641Y-78740000D01*
X173002037Y-78563373D01*
X173053557Y-78393534D01*
X173137222Y-78237009D01*
X173174981Y-78191000D01*
X173249814Y-78099814D01*
X173365851Y-78004586D01*
X173387009Y-77987222D01*
X173543534Y-77903557D01*
X173713373Y-77852037D01*
X173779557Y-77845519D01*
X173845740Y-77839000D01*
X173934260Y-77839000D01*
X174000443Y-77845519D01*
X174000443Y-77845519D01*
G37*
G36*
X171048642Y-77969781D02*
G01*
X171132668Y-78004586D01*
X171194416Y-78030163D01*
X171325608Y-78117822D01*
X171437178Y-78229392D01*
X171487503Y-78304710D01*
X171524838Y-78360586D01*
X171585219Y-78506358D01*
X171616000Y-78661107D01*
X171616000Y-78818893D01*
X171585219Y-78973642D01*
X171534724Y-79095546D01*
X171524837Y-79119416D01*
X171437178Y-79250608D01*
X171325608Y-79362178D01*
X171194416Y-79449837D01*
X171194415Y-79449838D01*
X171194414Y-79449838D01*
X171048642Y-79510219D01*
X170893893Y-79541000D01*
X170736107Y-79541000D01*
X170581358Y-79510219D01*
X170435586Y-79449838D01*
X170435585Y-79449838D01*
X170435584Y-79449837D01*
X170304392Y-79362178D01*
X170192822Y-79250608D01*
X170105163Y-79119416D01*
X170095276Y-79095546D01*
X170044781Y-78973642D01*
X170014000Y-78818893D01*
X170014000Y-78661107D01*
X170044781Y-78506358D01*
X170105162Y-78360586D01*
X170142497Y-78304710D01*
X170192822Y-78229392D01*
X170304392Y-78117822D01*
X170435584Y-78030163D01*
X170497332Y-78004586D01*
X170581358Y-77969781D01*
X170736107Y-77939000D01*
X170893893Y-77939000D01*
X171048642Y-77969781D01*
X171048642Y-77969781D01*
G37*
G36*
X141651000Y-79181000D02*
G01*
X137749000Y-79181000D01*
X137749000Y-77079000D01*
X141651000Y-77079000D01*
X141651000Y-79181000D01*
X141651000Y-79181000D01*
G37*
G36*
X132761000Y-79181000D02*
G01*
X128859000Y-79181000D01*
X128859000Y-77079000D01*
X132761000Y-77079000D01*
X132761000Y-79181000D01*
X132761000Y-79181000D01*
G37*
G36*
X184466000Y-78421000D02*
G01*
X182564000Y-78421000D01*
X182564000Y-76519000D01*
X184466000Y-76519000D01*
X184466000Y-78421000D01*
X184466000Y-78421000D01*
G37*
G36*
X179771000Y-78191000D02*
G01*
X178369000Y-78191000D01*
X178369000Y-77389000D01*
X179771000Y-77389000D01*
X179771000Y-78191000D01*
X179771000Y-78191000D01*
G37*
G36*
X186756000Y-78191000D02*
G01*
X185354000Y-78191000D01*
X185354000Y-77389000D01*
X186756000Y-77389000D01*
X186756000Y-78191000D01*
X186756000Y-78191000D01*
G37*
G36*
X181676000Y-78191000D02*
G01*
X180274000Y-78191000D01*
X180274000Y-77389000D01*
X181676000Y-77389000D01*
X181676000Y-78191000D01*
X181676000Y-78191000D01*
G37*
G36*
X128695104Y-74674585D02*
G01*
X128863626Y-74744389D01*
X129015291Y-74845728D01*
X129144272Y-74974709D01*
X129245611Y-75126374D01*
X129315415Y-75294896D01*
X129351000Y-75473797D01*
X129351000Y-75656203D01*
X129315415Y-75835104D01*
X129245611Y-76003626D01*
X129144272Y-76155291D01*
X129015291Y-76284272D01*
X128863626Y-76385611D01*
X128695104Y-76455415D01*
X128516203Y-76491000D01*
X128333797Y-76491000D01*
X128154896Y-76455415D01*
X127986374Y-76385611D01*
X127834709Y-76284272D01*
X127705728Y-76155291D01*
X127604389Y-76003626D01*
X127534585Y-75835104D01*
X127499000Y-75656203D01*
X127499000Y-75473797D01*
X127534585Y-75294896D01*
X127604389Y-75126374D01*
X127705728Y-74974709D01*
X127834709Y-74845728D01*
X127986374Y-74744389D01*
X128154896Y-74674585D01*
X128333797Y-74639000D01*
X128516203Y-74639000D01*
X128695104Y-74674585D01*
X128695104Y-74674585D01*
G37*
G36*
X132195104Y-74674585D02*
G01*
X132363626Y-74744389D01*
X132515291Y-74845728D01*
X132644272Y-74974709D01*
X132745611Y-75126374D01*
X132815415Y-75294896D01*
X132851000Y-75473797D01*
X132851000Y-75656203D01*
X132815415Y-75835104D01*
X132745611Y-76003626D01*
X132644272Y-76155291D01*
X132515291Y-76284272D01*
X132363626Y-76385611D01*
X132195104Y-76455415D01*
X132016203Y-76491000D01*
X131833797Y-76491000D01*
X131654896Y-76455415D01*
X131486374Y-76385611D01*
X131334709Y-76284272D01*
X131205728Y-76155291D01*
X131104389Y-76003626D01*
X131034585Y-75835104D01*
X130999000Y-75656203D01*
X130999000Y-75473797D01*
X131034585Y-75294896D01*
X131104389Y-75126374D01*
X131205728Y-74974709D01*
X131334709Y-74845728D01*
X131486374Y-74744389D01*
X131654896Y-74674585D01*
X131833797Y-74639000D01*
X132016203Y-74639000D01*
X132195104Y-74674585D01*
X132195104Y-74674585D01*
G37*
G36*
X137585104Y-74674585D02*
G01*
X137753626Y-74744389D01*
X137905291Y-74845728D01*
X138034272Y-74974709D01*
X138135611Y-75126374D01*
X138205415Y-75294896D01*
X138241000Y-75473797D01*
X138241000Y-75656203D01*
X138205415Y-75835104D01*
X138135611Y-76003626D01*
X138034272Y-76155291D01*
X137905291Y-76284272D01*
X137753626Y-76385611D01*
X137585104Y-76455415D01*
X137406203Y-76491000D01*
X137223797Y-76491000D01*
X137044896Y-76455415D01*
X136876374Y-76385611D01*
X136724709Y-76284272D01*
X136595728Y-76155291D01*
X136494389Y-76003626D01*
X136424585Y-75835104D01*
X136389000Y-75656203D01*
X136389000Y-75473797D01*
X136424585Y-75294896D01*
X136494389Y-75126374D01*
X136595728Y-74974709D01*
X136724709Y-74845728D01*
X136876374Y-74744389D01*
X137044896Y-74674585D01*
X137223797Y-74639000D01*
X137406203Y-74639000D01*
X137585104Y-74674585D01*
X137585104Y-74674585D01*
G37*
G36*
X141085104Y-74674585D02*
G01*
X141253626Y-74744389D01*
X141405291Y-74845728D01*
X141534272Y-74974709D01*
X141635611Y-75126374D01*
X141705415Y-75294896D01*
X141741000Y-75473797D01*
X141741000Y-75656203D01*
X141705415Y-75835104D01*
X141635611Y-76003626D01*
X141534272Y-76155291D01*
X141405291Y-76284272D01*
X141253626Y-76385611D01*
X141085104Y-76455415D01*
X140906203Y-76491000D01*
X140723797Y-76491000D01*
X140544896Y-76455415D01*
X140376374Y-76385611D01*
X140224709Y-76284272D01*
X140095728Y-76155291D01*
X139994389Y-76003626D01*
X139924585Y-75835104D01*
X139889000Y-75656203D01*
X139889000Y-75473797D01*
X139924585Y-75294896D01*
X139994389Y-75126374D01*
X140095728Y-74974709D01*
X140224709Y-74845728D01*
X140376374Y-74744389D01*
X140544896Y-74674585D01*
X140723797Y-74639000D01*
X140906203Y-74639000D01*
X141085104Y-74674585D01*
X141085104Y-74674585D01*
G37*
G36*
X119604549Y-72531116D02*
G01*
X119715734Y-72553232D01*
X119925203Y-72639997D01*
X120113720Y-72765960D01*
X120274040Y-72926280D01*
X120400003Y-73114797D01*
X120486768Y-73324266D01*
X120531000Y-73546636D01*
X120531000Y-73773364D01*
X120486768Y-73995734D01*
X120400003Y-74205203D01*
X120274040Y-74393720D01*
X120113720Y-74554040D01*
X119925203Y-74680003D01*
X119715734Y-74766768D01*
X119604549Y-74788884D01*
X119493365Y-74811000D01*
X119266635Y-74811000D01*
X119155451Y-74788884D01*
X119044266Y-74766768D01*
X118834797Y-74680003D01*
X118646280Y-74554040D01*
X118485960Y-74393720D01*
X118359997Y-74205203D01*
X118273232Y-73995734D01*
X118229000Y-73773364D01*
X118229000Y-73546636D01*
X118273232Y-73324266D01*
X118359997Y-73114797D01*
X118485960Y-72926280D01*
X118646280Y-72765960D01*
X118834797Y-72639997D01*
X119044266Y-72553232D01*
X119155451Y-72531116D01*
X119266635Y-72509000D01*
X119493365Y-72509000D01*
X119604549Y-72531116D01*
X119604549Y-72531116D01*
G37*
G36*
X185644549Y-72531116D02*
G01*
X185755734Y-72553232D01*
X185965203Y-72639997D01*
X186153720Y-72765960D01*
X186314040Y-72926280D01*
X186440003Y-73114797D01*
X186526768Y-73324266D01*
X186571000Y-73546636D01*
X186571000Y-73773364D01*
X186526768Y-73995734D01*
X186440003Y-74205203D01*
X186314040Y-74393720D01*
X186153720Y-74554040D01*
X185965203Y-74680003D01*
X185755734Y-74766768D01*
X185644549Y-74788884D01*
X185533365Y-74811000D01*
X185306635Y-74811000D01*
X185195451Y-74788884D01*
X185084266Y-74766768D01*
X184874797Y-74680003D01*
X184686280Y-74554040D01*
X184525960Y-74393720D01*
X184399997Y-74205203D01*
X184313232Y-73995734D01*
X184269000Y-73773364D01*
X184269000Y-73546636D01*
X184313232Y-73324266D01*
X184399997Y-73114797D01*
X184525960Y-72926280D01*
X184686280Y-72765960D01*
X184874797Y-72639997D01*
X185084266Y-72553232D01*
X185195451Y-72531116D01*
X185306635Y-72509000D01*
X185533365Y-72509000D01*
X185644549Y-72531116D01*
X185644549Y-72531116D01*
G37*
M02*
