M48
; DRILL file {KiCad (5.1.2)-1} date 04.06.2020 19:32:03
; FORMAT={-:-/ absolute / metric / decimal}
; #@! TF.CreationDate,2020-06-04T19:32:03+03:00
; #@! TF.GenerationSoftware,Kicad,Pcbnew,(5.1.2)-1
; #@! TF.FileFunction,Plated,1,2,PTH
FMAT,2
METRIC
T1C0.800
T2C0.900
T3C1.000
T4C1.050
T5C1.100
T6C1.200
%
G90
G05
T1
X142.875Y-105.41
X150.395Y-100.965
X151.765Y-99.695
X153.035Y-100.965
X157.48Y-105.41
X164.956Y-92.71
X168.91Y-81.915
X170.18Y-92.075
X170.815Y-78.74
X170.993Y-105.232
X141.605Y-90.17
X141.605Y-97.79
X144.145Y-90.17
X144.145Y-97.79
X146.685Y-90.17
X146.685Y-97.79
X118.745Y-102.235
X118.745Y-109.855
X118.745Y-90.805
X126.365Y-90.805
X130.81Y-90.17
X130.81Y-97.79
X133.35Y-90.17
X133.35Y-97.79
X135.89Y-90.17
X135.89Y-97.79
T2
X183.515Y-77.47
X183.515Y-80.01
T3
X132.795Y-106.68
X137.795Y-106.68
X167.64Y-118.11
X170.18Y-118.11
X172.72Y-118.11
X173.99Y-78.74
X173.99Y-81.28
X173.99Y-83.82
X173.99Y-86.36
X176.53Y-78.74
X176.53Y-81.28
X176.53Y-83.82
X176.53Y-86.36
X157.48Y-118.11
X160.02Y-118.11
X162.56Y-118.11
X182.88Y-102.235
X182.88Y-104.775
X182.88Y-107.315
X182.88Y-109.855
X182.88Y-112.395
X182.88Y-114.935
X185.42Y-102.235
X185.42Y-104.775
X185.42Y-107.315
X185.42Y-109.855
X185.42Y-112.395
X185.42Y-114.935
X185.42Y-93.345
X185.42Y-95.885
X185.42Y-98.425
X147.955Y-106.045
X147.955Y-108.585
X150.495Y-106.045
X150.495Y-108.585
X153.035Y-106.045
X153.035Y-108.585
T4
X128.425Y-75.565
X131.925Y-75.565
X137.315Y-75.565
X140.815Y-75.565
X121.285Y-78.895
X121.285Y-82.395
T5
X181.555Y-83.185
X181.555Y-89.685
X186.055Y-83.185
X186.055Y-89.685
T6
X123.825Y-95.885
X123.825Y-118.385
T0
M30
