G04 #@! TF.GenerationSoftware,KiCad,Pcbnew,(5.1.2)-1*
G04 #@! TF.CreationDate,2020-06-04T19:21:38+03:00*
G04 #@! TF.ProjectId,alpha,616c7068-612e-46b6-9963-61645f706362,rev?*
G04 #@! TF.SameCoordinates,Original*
G04 #@! TF.FileFunction,Legend,Bot*
G04 #@! TF.FilePolarity,Positive*
%FSLAX46Y46*%
G04 Gerber Fmt 4.6, Leading zero omitted, Abs format (unit mm)*
G04 Created by KiCad (PCBNEW (5.1.2)-1) date 2020-06-04 19:21:38*
%MOMM*%
%LPD*%
G04 APERTURE LIST*
%ADD10C,0.200000*%
%ADD11C,0.250000*%
%ADD12C,0.050000*%
%ADD13C,0.120000*%
%ADD14C,0.010000*%
%ADD15C,0.066040*%
%ADD16C,0.152400*%
%ADD17C,0.076200*%
%ADD18C,0.150000*%
%ADD19C,0.088900*%
%ADD20R,0.802000X1.402000*%
%ADD21R,1.802000X1.802000*%
%ADD22O,1.802000X1.802000*%
%ADD23C,2.302000*%
%ADD24R,1.902000X1.902000*%
%ADD25C,1.902000*%
%ADD26C,2.102000*%
%ADD27C,1.702000*%
%ADD28O,1.702000X1.702000*%
%ADD29R,1.102000X1.352000*%
%ADD30C,1.102000*%
%ADD31C,0.100000*%
%ADD32C,2.502000*%
%ADD33R,2.102000X2.102000*%
%ADD34R,1.602000X2.052000*%
%ADD35R,1.102000X1.702000*%
%ADD36R,1.702000X1.102000*%
%ADD37R,1.352000X1.102000*%
%ADD38C,1.852000*%
%ADD39R,1.402000X0.802000*%
%ADD40C,0.660800*%
%ADD41R,1.702000X1.702000*%
%ADD42R,1.602000X2.102000*%
%ADD43R,3.902000X2.102000*%
%ADD44R,1.102000X0.742000*%
%ADD45R,1.302000X1.302000*%
%ADD46R,2.102000X2.602000*%
%ADD47R,1.002000X2.602000*%
%ADD48R,2.902000X3.102000*%
%ADD49C,1.602000*%
G04 APERTURE END LIST*
D10*
X187267809Y-92653750D02*
X187305904Y-92763273D01*
X187305904Y-92953750D01*
X187267809Y-93034702D01*
X187229714Y-93077559D01*
X187153523Y-93125178D01*
X187077333Y-93134702D01*
X187001142Y-93106130D01*
X186963047Y-93072797D01*
X186924952Y-93001369D01*
X186886857Y-92853750D01*
X186848761Y-92782321D01*
X186810666Y-92748988D01*
X186734476Y-92720416D01*
X186658285Y-92729940D01*
X186582095Y-92777559D01*
X186544000Y-92820416D01*
X186505904Y-92901369D01*
X186505904Y-93091845D01*
X186544000Y-93201369D01*
X187305904Y-93868035D02*
X187305904Y-93410892D01*
X187305904Y-93639464D02*
X186505904Y-93739464D01*
X186620190Y-93648988D01*
X186696380Y-93563273D01*
X186734476Y-93482321D01*
X187267809Y-95193750D02*
X187305904Y-95303273D01*
X187305904Y-95493750D01*
X187267809Y-95574702D01*
X187229714Y-95617559D01*
X187153523Y-95665178D01*
X187077333Y-95674702D01*
X187001142Y-95646130D01*
X186963047Y-95612797D01*
X186924952Y-95541369D01*
X186886857Y-95393750D01*
X186848761Y-95322321D01*
X186810666Y-95288988D01*
X186734476Y-95260416D01*
X186658285Y-95269940D01*
X186582095Y-95317559D01*
X186544000Y-95360416D01*
X186505904Y-95441369D01*
X186505904Y-95631845D01*
X186544000Y-95741369D01*
X186582095Y-96041369D02*
X186544000Y-96084226D01*
X186505904Y-96165178D01*
X186505904Y-96355654D01*
X186544000Y-96427083D01*
X186582095Y-96460416D01*
X186658285Y-96488988D01*
X186734476Y-96479464D01*
X186848761Y-96427083D01*
X187305904Y-95912797D01*
X187305904Y-96408035D01*
X187267809Y-97733750D02*
X187305904Y-97843273D01*
X187305904Y-98033750D01*
X187267809Y-98114702D01*
X187229714Y-98157559D01*
X187153523Y-98205178D01*
X187077333Y-98214702D01*
X187001142Y-98186130D01*
X186963047Y-98152797D01*
X186924952Y-98081369D01*
X186886857Y-97933750D01*
X186848761Y-97862321D01*
X186810666Y-97828988D01*
X186734476Y-97800416D01*
X186658285Y-97809940D01*
X186582095Y-97857559D01*
X186544000Y-97900416D01*
X186505904Y-97981369D01*
X186505904Y-98171845D01*
X186544000Y-98281369D01*
X186505904Y-98552797D02*
X186505904Y-99048035D01*
X186810666Y-98743273D01*
X186810666Y-98857559D01*
X186848761Y-98928988D01*
X186886857Y-98962321D01*
X186963047Y-98990892D01*
X187153523Y-98967083D01*
X187229714Y-98919464D01*
X187267809Y-98876607D01*
X187305904Y-98795654D01*
X187305904Y-98567083D01*
X187267809Y-98495654D01*
X187229714Y-98462321D01*
X187305904Y-102015178D02*
X187305904Y-101634226D01*
X186505904Y-101734226D01*
X187305904Y-102700892D02*
X187305904Y-102243750D01*
X187305904Y-102472321D02*
X186505904Y-102572321D01*
X186620190Y-102481845D01*
X186696380Y-102396130D01*
X186734476Y-102315178D01*
X187305904Y-104555178D02*
X187305904Y-104174226D01*
X186505904Y-104274226D01*
X186582095Y-104874226D02*
X186544000Y-104917083D01*
X186505904Y-104998035D01*
X186505904Y-105188511D01*
X186544000Y-105259940D01*
X186582095Y-105293273D01*
X186658285Y-105321845D01*
X186734476Y-105312321D01*
X186848761Y-105259940D01*
X187305904Y-104745654D01*
X187305904Y-105240892D01*
X187305904Y-107095178D02*
X187305904Y-106714226D01*
X186505904Y-106814226D01*
X186505904Y-107385654D02*
X186505904Y-107880892D01*
X186810666Y-107576130D01*
X186810666Y-107690416D01*
X186848761Y-107761845D01*
X186886857Y-107795178D01*
X186963047Y-107823750D01*
X187153523Y-107799940D01*
X187229714Y-107752321D01*
X187267809Y-107709464D01*
X187305904Y-107628511D01*
X187305904Y-107399940D01*
X187267809Y-107328511D01*
X187229714Y-107295178D01*
X186505904Y-109201845D02*
X186505904Y-109354226D01*
X186544000Y-109425654D01*
X186620190Y-109492321D01*
X186772571Y-109511369D01*
X187039238Y-109478035D01*
X187191619Y-109420892D01*
X187267809Y-109335178D01*
X187305904Y-109254226D01*
X187305904Y-109101845D01*
X187267809Y-109030416D01*
X187191619Y-108963750D01*
X187039238Y-108944702D01*
X186772571Y-108978035D01*
X186620190Y-109035178D01*
X186544000Y-109120892D01*
X186505904Y-109201845D01*
X186772571Y-109854226D02*
X187572571Y-109754226D01*
X186810666Y-109849464D02*
X186772571Y-109930416D01*
X186772571Y-110082797D01*
X186810666Y-110154226D01*
X186848761Y-110187559D01*
X186924952Y-110216130D01*
X187153523Y-110187559D01*
X187229714Y-110139940D01*
X187267809Y-110097083D01*
X187305904Y-110016130D01*
X187305904Y-109863750D01*
X187267809Y-109792321D01*
X186772571Y-110463750D02*
X186772571Y-110768511D01*
X186505904Y-110611369D02*
X187191619Y-110525654D01*
X187267809Y-110554226D01*
X187305904Y-110625654D01*
X187305904Y-110701845D01*
X187229714Y-112184702D02*
X187267809Y-112141845D01*
X187305904Y-112022797D01*
X187305904Y-111946607D01*
X187267809Y-111837083D01*
X187191619Y-111770416D01*
X187115428Y-111741845D01*
X186963047Y-111722797D01*
X186848761Y-111737083D01*
X186696380Y-111794226D01*
X186620190Y-111841845D01*
X186544000Y-111927559D01*
X186505904Y-112046607D01*
X186505904Y-112122797D01*
X186544000Y-112232321D01*
X186582095Y-112265654D01*
X186582095Y-112570416D02*
X186544000Y-112613273D01*
X186505904Y-112694226D01*
X186505904Y-112884702D01*
X186544000Y-112956130D01*
X186582095Y-112989464D01*
X186658285Y-113018035D01*
X186734476Y-113008511D01*
X186848761Y-112956130D01*
X187305904Y-112441845D01*
X187305904Y-112937083D01*
X187229714Y-114724702D02*
X187267809Y-114681845D01*
X187305904Y-114562797D01*
X187305904Y-114486607D01*
X187267809Y-114377083D01*
X187191619Y-114310416D01*
X187115428Y-114281845D01*
X186963047Y-114262797D01*
X186848761Y-114277083D01*
X186696380Y-114334226D01*
X186620190Y-114381845D01*
X186544000Y-114467559D01*
X186505904Y-114586607D01*
X186505904Y-114662797D01*
X186544000Y-114772321D01*
X186582095Y-114805654D01*
X187305904Y-115477083D02*
X187305904Y-115019940D01*
X187305904Y-115248511D02*
X186505904Y-115348511D01*
X186620190Y-115258035D01*
X186696380Y-115172321D01*
X186734476Y-115091369D01*
D11*
X178034404Y-72602380D02*
X178034404Y-71602380D01*
X177701071Y-72316666D01*
X177367738Y-71602380D01*
X177367738Y-72602380D01*
X176891547Y-72602380D02*
X176891547Y-71935714D01*
X176891547Y-71602380D02*
X176939166Y-71650000D01*
X176891547Y-71697619D01*
X176843928Y-71650000D01*
X176891547Y-71602380D01*
X176891547Y-71697619D01*
X176415357Y-71935714D02*
X176415357Y-72602380D01*
X176415357Y-72030952D02*
X176367738Y-71983333D01*
X176272500Y-71935714D01*
X176129642Y-71935714D01*
X176034404Y-71983333D01*
X175986785Y-72078571D01*
X175986785Y-72602380D01*
X175653452Y-71935714D02*
X175272500Y-71935714D01*
X175510595Y-71602380D02*
X175510595Y-72459523D01*
X175462976Y-72554761D01*
X175367738Y-72602380D01*
X175272500Y-72602380D01*
X175034404Y-71935714D02*
X174796309Y-72602380D01*
X174558214Y-71935714D02*
X174796309Y-72602380D01*
X174891547Y-72840476D01*
X174939166Y-72888095D01*
X175034404Y-72935714D01*
X174320119Y-71935714D02*
X173939166Y-71935714D01*
X174177261Y-71602380D02*
X174177261Y-72459523D01*
X174129642Y-72554761D01*
X174034404Y-72602380D01*
X173939166Y-72602380D01*
X173177261Y-72602380D02*
X173177261Y-72078571D01*
X173224880Y-71983333D01*
X173320119Y-71935714D01*
X173510595Y-71935714D01*
X173605833Y-71983333D01*
X173177261Y-72554761D02*
X173272500Y-72602380D01*
X173510595Y-72602380D01*
X173605833Y-72554761D01*
X173653452Y-72459523D01*
X173653452Y-72364285D01*
X173605833Y-72269047D01*
X173510595Y-72221428D01*
X173272500Y-72221428D01*
X173177261Y-72173809D01*
X172701071Y-72602380D02*
X172701071Y-71935714D01*
X172701071Y-71602380D02*
X172748690Y-71650000D01*
X172701071Y-71697619D01*
X172653452Y-71650000D01*
X172701071Y-71602380D01*
X172701071Y-71697619D01*
X172082023Y-72602380D02*
X172177261Y-72554761D01*
X172224880Y-72459523D01*
X172224880Y-71602380D01*
X170986785Y-71697619D02*
X170939166Y-71650000D01*
X170843928Y-71602380D01*
X170605833Y-71602380D01*
X170510595Y-71650000D01*
X170462976Y-71697619D01*
X170415357Y-71792857D01*
X170415357Y-71888095D01*
X170462976Y-72030952D01*
X171034404Y-72602380D01*
X170415357Y-72602380D01*
X169796309Y-71602380D02*
X169701071Y-71602380D01*
X169605833Y-71650000D01*
X169558214Y-71697619D01*
X169510595Y-71792857D01*
X169462976Y-71983333D01*
X169462976Y-72221428D01*
X169510595Y-72411904D01*
X169558214Y-72507142D01*
X169605833Y-72554761D01*
X169701071Y-72602380D01*
X169796309Y-72602380D01*
X169891547Y-72554761D01*
X169939166Y-72507142D01*
X169986785Y-72411904D01*
X170034404Y-72221428D01*
X170034404Y-71983333D01*
X169986785Y-71792857D01*
X169939166Y-71697619D01*
X169891547Y-71650000D01*
X169796309Y-71602380D01*
X169082023Y-71697619D02*
X169034404Y-71650000D01*
X168939166Y-71602380D01*
X168701071Y-71602380D01*
X168605833Y-71650000D01*
X168558214Y-71697619D01*
X168510595Y-71792857D01*
X168510595Y-71888095D01*
X168558214Y-72030952D01*
X169129642Y-72602380D01*
X168510595Y-72602380D01*
X167891547Y-71602380D02*
X167796309Y-71602380D01*
X167701071Y-71650000D01*
X167653452Y-71697619D01*
X167605833Y-71792857D01*
X167558214Y-71983333D01*
X167558214Y-72221428D01*
X167605833Y-72411904D01*
X167653452Y-72507142D01*
X167701071Y-72554761D01*
X167796309Y-72602380D01*
X167891547Y-72602380D01*
X167986785Y-72554761D01*
X168034404Y-72507142D01*
X168082023Y-72411904D01*
X168129642Y-72221428D01*
X168129642Y-71983333D01*
X168082023Y-71792857D01*
X168034404Y-71697619D01*
X167986785Y-71650000D01*
X167891547Y-71602380D01*
X178034404Y-74352380D02*
X178034404Y-73352380D01*
X177462976Y-74352380D02*
X177891547Y-73780952D01*
X177462976Y-73352380D02*
X178034404Y-73923809D01*
X176605833Y-74352380D02*
X176605833Y-73828571D01*
X176653452Y-73733333D01*
X176748690Y-73685714D01*
X176939166Y-73685714D01*
X177034404Y-73733333D01*
X176605833Y-74304761D02*
X176701071Y-74352380D01*
X176939166Y-74352380D01*
X177034404Y-74304761D01*
X177082023Y-74209523D01*
X177082023Y-74114285D01*
X177034404Y-74019047D01*
X176939166Y-73971428D01*
X176701071Y-73971428D01*
X176605833Y-73923809D01*
X175701071Y-73685714D02*
X175701071Y-74495238D01*
X175748690Y-74590476D01*
X175796309Y-74638095D01*
X175891547Y-74685714D01*
X176034404Y-74685714D01*
X176129642Y-74638095D01*
X175701071Y-74304761D02*
X175796309Y-74352380D01*
X175986785Y-74352380D01*
X176082023Y-74304761D01*
X176129642Y-74257142D01*
X176177261Y-74161904D01*
X176177261Y-73876190D01*
X176129642Y-73780952D01*
X176082023Y-73733333D01*
X175986785Y-73685714D01*
X175796309Y-73685714D01*
X175701071Y-73733333D01*
X174796309Y-74352380D02*
X174796309Y-73828571D01*
X174843928Y-73733333D01*
X174939166Y-73685714D01*
X175129642Y-73685714D01*
X175224880Y-73733333D01*
X174796309Y-74304761D02*
X174891547Y-74352380D01*
X175129642Y-74352380D01*
X175224880Y-74304761D01*
X175272500Y-74209523D01*
X175272500Y-74114285D01*
X175224880Y-74019047D01*
X175129642Y-73971428D01*
X174891547Y-73971428D01*
X174796309Y-73923809D01*
X174320119Y-74352380D02*
X174320119Y-73685714D01*
X174320119Y-73780952D02*
X174272500Y-73733333D01*
X174177261Y-73685714D01*
X174034404Y-73685714D01*
X173939166Y-73733333D01*
X173891547Y-73828571D01*
X173891547Y-74352380D01*
X173891547Y-73828571D02*
X173843928Y-73733333D01*
X173748690Y-73685714D01*
X173605833Y-73685714D01*
X173510595Y-73733333D01*
X173462976Y-73828571D01*
X173462976Y-74352380D01*
X172986785Y-74352380D02*
X172986785Y-73685714D01*
X172986785Y-73352380D02*
X173034404Y-73400000D01*
X172986785Y-73447619D01*
X172939166Y-73400000D01*
X172986785Y-73352380D01*
X172986785Y-73447619D01*
X171748690Y-74352380D02*
X171748690Y-73352380D01*
X171320119Y-74352380D02*
X171320119Y-73828571D01*
X171367738Y-73733333D01*
X171462976Y-73685714D01*
X171605833Y-73685714D01*
X171701071Y-73733333D01*
X171748690Y-73780952D01*
X170701071Y-74352380D02*
X170796309Y-74304761D01*
X170843928Y-74257142D01*
X170891547Y-74161904D01*
X170891547Y-73876190D01*
X170843928Y-73780952D01*
X170796309Y-73733333D01*
X170701071Y-73685714D01*
X170558214Y-73685714D01*
X170462976Y-73733333D01*
X170415357Y-73780952D01*
X170367738Y-73876190D01*
X170367738Y-74161904D01*
X170415357Y-74257142D01*
X170462976Y-74304761D01*
X170558214Y-74352380D01*
X170701071Y-74352380D01*
X169510595Y-73685714D02*
X169510595Y-74352380D01*
X169939166Y-73685714D02*
X169939166Y-74209523D01*
X169891547Y-74304761D01*
X169796309Y-74352380D01*
X169653452Y-74352380D01*
X169558214Y-74304761D01*
X169510595Y-74257142D01*
X169082023Y-74304761D02*
X168986785Y-74352380D01*
X168796309Y-74352380D01*
X168701071Y-74304761D01*
X168653452Y-74209523D01*
X168653452Y-74161904D01*
X168701071Y-74066666D01*
X168796309Y-74019047D01*
X168939166Y-74019047D01*
X169034404Y-73971428D01*
X169082023Y-73876190D01*
X169082023Y-73828571D01*
X169034404Y-73733333D01*
X168939166Y-73685714D01*
X168796309Y-73685714D01*
X168701071Y-73733333D01*
X167843928Y-74304761D02*
X167939166Y-74352380D01*
X168129642Y-74352380D01*
X168224880Y-74304761D01*
X168272500Y-74209523D01*
X168272500Y-73828571D01*
X168224880Y-73733333D01*
X168129642Y-73685714D01*
X167939166Y-73685714D01*
X167843928Y-73733333D01*
X167796309Y-73828571D01*
X167796309Y-73923809D01*
X168272500Y-74019047D01*
X166177261Y-74352380D02*
X166177261Y-73828571D01*
X166224880Y-73733333D01*
X166320119Y-73685714D01*
X166510595Y-73685714D01*
X166605833Y-73733333D01*
X166177261Y-74304761D02*
X166272500Y-74352380D01*
X166510595Y-74352380D01*
X166605833Y-74304761D01*
X166653452Y-74209523D01*
X166653452Y-74114285D01*
X166605833Y-74019047D01*
X166510595Y-73971428D01*
X166272500Y-73971428D01*
X166177261Y-73923809D01*
X165272500Y-74304761D02*
X165367738Y-74352380D01*
X165558214Y-74352380D01*
X165653452Y-74304761D01*
X165701071Y-74257142D01*
X165748690Y-74161904D01*
X165748690Y-73876190D01*
X165701071Y-73780952D01*
X165653452Y-73733333D01*
X165558214Y-73685714D01*
X165367738Y-73685714D01*
X165272500Y-73733333D01*
X164986785Y-73685714D02*
X164605833Y-73685714D01*
X164843928Y-73352380D02*
X164843928Y-74209523D01*
X164796309Y-74304761D01*
X164701071Y-74352380D01*
X164605833Y-74352380D01*
X163843928Y-73685714D02*
X163843928Y-74352380D01*
X164272500Y-73685714D02*
X164272500Y-74209523D01*
X164224880Y-74304761D01*
X164129642Y-74352380D01*
X163986785Y-74352380D01*
X163891547Y-74304761D01*
X163843928Y-74257142D01*
X162939166Y-74352380D02*
X162939166Y-73828571D01*
X162986785Y-73733333D01*
X163082023Y-73685714D01*
X163272500Y-73685714D01*
X163367738Y-73733333D01*
X162939166Y-74304761D02*
X163034404Y-74352380D01*
X163272500Y-74352380D01*
X163367738Y-74304761D01*
X163415357Y-74209523D01*
X163415357Y-74114285D01*
X163367738Y-74019047D01*
X163272500Y-73971428D01*
X163034404Y-73971428D01*
X162939166Y-73923809D01*
X162605833Y-73685714D02*
X162224880Y-73685714D01*
X162462976Y-73352380D02*
X162462976Y-74209523D01*
X162415357Y-74304761D01*
X162320119Y-74352380D01*
X162224880Y-74352380D01*
X161748690Y-74352380D02*
X161843928Y-74304761D01*
X161891547Y-74257142D01*
X161939166Y-74161904D01*
X161939166Y-73876190D01*
X161891547Y-73780952D01*
X161843928Y-73733333D01*
X161748690Y-73685714D01*
X161605833Y-73685714D01*
X161510595Y-73733333D01*
X161462976Y-73780952D01*
X161415357Y-73876190D01*
X161415357Y-74161904D01*
X161462976Y-74257142D01*
X161510595Y-74304761D01*
X161605833Y-74352380D01*
X161748690Y-74352380D01*
X160986785Y-74352380D02*
X160986785Y-73685714D01*
X160986785Y-73876190D02*
X160939166Y-73780952D01*
X160891547Y-73733333D01*
X160796309Y-73685714D01*
X160701071Y-73685714D01*
X159177261Y-74352380D02*
X159177261Y-73828571D01*
X159224880Y-73733333D01*
X159320119Y-73685714D01*
X159510595Y-73685714D01*
X159605833Y-73733333D01*
X159177261Y-74304761D02*
X159272500Y-74352380D01*
X159510595Y-74352380D01*
X159605833Y-74304761D01*
X159653452Y-74209523D01*
X159653452Y-74114285D01*
X159605833Y-74019047D01*
X159510595Y-73971428D01*
X159272500Y-73971428D01*
X159177261Y-73923809D01*
X158558214Y-74352380D02*
X158653452Y-74304761D01*
X158701071Y-74209523D01*
X158701071Y-73352380D01*
X158177261Y-73685714D02*
X158177261Y-74685714D01*
X158177261Y-73733333D02*
X158082023Y-73685714D01*
X157891547Y-73685714D01*
X157796309Y-73733333D01*
X157748690Y-73780952D01*
X157701071Y-73876190D01*
X157701071Y-74161904D01*
X157748690Y-74257142D01*
X157796309Y-74304761D01*
X157891547Y-74352380D01*
X158082023Y-74352380D01*
X158177261Y-74304761D01*
X157272500Y-74352380D02*
X157272500Y-73352380D01*
X156843928Y-74352380D02*
X156843928Y-73828571D01*
X156891547Y-73733333D01*
X156986785Y-73685714D01*
X157129642Y-73685714D01*
X157224880Y-73733333D01*
X157272500Y-73780952D01*
X155939166Y-74352380D02*
X155939166Y-73828571D01*
X155986785Y-73733333D01*
X156082023Y-73685714D01*
X156272500Y-73685714D01*
X156367738Y-73733333D01*
X155939166Y-74304761D02*
X156034404Y-74352380D01*
X156272500Y-74352380D01*
X156367738Y-74304761D01*
X156415357Y-74209523D01*
X156415357Y-74114285D01*
X156367738Y-74019047D01*
X156272500Y-73971428D01*
X156034404Y-73971428D01*
X155939166Y-73923809D01*
D12*
X116840000Y-121920000D02*
X116840000Y-71120000D01*
X187960000Y-121920000D02*
X116840000Y-121920000D01*
X187960000Y-71120000D02*
X187960000Y-121920000D01*
X116840000Y-71120000D02*
X187960000Y-71120000D01*
D13*
X155540000Y-112150000D02*
X154340000Y-112150000D01*
X154340000Y-113910000D02*
X155540000Y-113910000D01*
D14*
G36*
X149987176Y-77192379D02*
G01*
X150019480Y-77283279D01*
X150059591Y-77442388D01*
X150068354Y-77482406D01*
X150150509Y-77724981D01*
X150291082Y-77981191D01*
X150304185Y-78000989D01*
X150401990Y-78153846D01*
X150447984Y-78242818D01*
X150442231Y-78267057D01*
X150384797Y-78225719D01*
X150293806Y-78136750D01*
X150130458Y-77910738D01*
X150017561Y-77628719D01*
X149967238Y-77364167D01*
X149958041Y-77229298D01*
X149965691Y-77173210D01*
X149987176Y-77192379D01*
X149987176Y-77192379D01*
G37*
X149987176Y-77192379D02*
X150019480Y-77283279D01*
X150059591Y-77442388D01*
X150068354Y-77482406D01*
X150150509Y-77724981D01*
X150291082Y-77981191D01*
X150304185Y-78000989D01*
X150401990Y-78153846D01*
X150447984Y-78242818D01*
X150442231Y-78267057D01*
X150384797Y-78225719D01*
X150293806Y-78136750D01*
X150130458Y-77910738D01*
X150017561Y-77628719D01*
X149967238Y-77364167D01*
X149958041Y-77229298D01*
X149965691Y-77173210D01*
X149987176Y-77192379D01*
G36*
X153701661Y-79900550D02*
G01*
X153682410Y-79929635D01*
X153605510Y-79973446D01*
X153572026Y-79988277D01*
X153447542Y-80035853D01*
X153391260Y-80048043D01*
X153406612Y-80026392D01*
X153497031Y-79972444D01*
X153515245Y-79962735D01*
X153619149Y-79915427D01*
X153689229Y-79897358D01*
X153701661Y-79900550D01*
X153701661Y-79900550D01*
G37*
X153701661Y-79900550D02*
X153682410Y-79929635D01*
X153605510Y-79973446D01*
X153572026Y-79988277D01*
X153447542Y-80035853D01*
X153391260Y-80048043D01*
X153406612Y-80026392D01*
X153497031Y-79972444D01*
X153515245Y-79962735D01*
X153619149Y-79915427D01*
X153689229Y-79897358D01*
X153701661Y-79900550D01*
G36*
X154796563Y-80021152D02*
G01*
X154855333Y-80052333D01*
X154895004Y-80085210D01*
X154856875Y-80093875D01*
X154847248Y-80094018D01*
X154770705Y-80072447D01*
X154749500Y-80052333D01*
X154746084Y-80014937D01*
X154796563Y-80021152D01*
X154796563Y-80021152D01*
G37*
X154796563Y-80021152D02*
X154855333Y-80052333D01*
X154895004Y-80085210D01*
X154856875Y-80093875D01*
X154847248Y-80094018D01*
X154770705Y-80072447D01*
X154749500Y-80052333D01*
X154746084Y-80014937D01*
X154796563Y-80021152D01*
G36*
X153674448Y-75396676D02*
G01*
X154009973Y-75443214D01*
X154325840Y-75530061D01*
X154652317Y-75663787D01*
X154714550Y-75693345D01*
X154851296Y-75766872D01*
X155011484Y-75864389D01*
X155181253Y-75975945D01*
X155346742Y-76091588D01*
X155494090Y-76201366D01*
X155609436Y-76295329D01*
X155678921Y-76363524D01*
X155691023Y-76394421D01*
X155645488Y-76389151D01*
X155548583Y-76355842D01*
X155472190Y-76323976D01*
X155355704Y-76277201D01*
X155274535Y-76253475D01*
X155252875Y-76254014D01*
X155267804Y-76293486D01*
X155325266Y-76377995D01*
X155404312Y-76478725D01*
X155519393Y-76635335D01*
X155642131Y-76830090D01*
X155756877Y-77035334D01*
X155847983Y-77223412D01*
X155893352Y-77343000D01*
X155900805Y-77388711D01*
X155877145Y-77389688D01*
X155812970Y-77340763D01*
X155698882Y-77236767D01*
X155697110Y-77235107D01*
X155576404Y-77131753D01*
X155432977Y-77023451D01*
X155283608Y-76920995D01*
X155145079Y-76835182D01*
X155034170Y-76776807D01*
X154967662Y-76756666D01*
X154958581Y-76759974D01*
X154963150Y-76809269D01*
X155003249Y-76912803D01*
X155069428Y-77053083D01*
X155152242Y-77212616D01*
X155242243Y-77373907D01*
X155329983Y-77519463D01*
X155406016Y-77631791D01*
X155460894Y-77693397D01*
X155463740Y-77695385D01*
X155542611Y-77770610D01*
X155575000Y-77847728D01*
X155607542Y-77921220D01*
X155693886Y-78025762D01*
X155817114Y-78145854D01*
X155960303Y-78265999D01*
X156106534Y-78370697D01*
X156213373Y-78432442D01*
X156362981Y-78495069D01*
X156514061Y-78540920D01*
X156558735Y-78549805D01*
X156703674Y-78598972D01*
X156775990Y-78691429D01*
X156776771Y-78828981D01*
X156761126Y-78885766D01*
X156702193Y-78989357D01*
X156585156Y-79133172D01*
X156420228Y-79307425D01*
X156217625Y-79502330D01*
X155987562Y-79708103D01*
X155740253Y-79914959D01*
X155485913Y-80113113D01*
X155458583Y-80133485D01*
X155286813Y-80263420D01*
X155142587Y-80377257D01*
X155038217Y-80464911D01*
X154986014Y-80516298D01*
X154982333Y-80523592D01*
X155020527Y-80544347D01*
X155118629Y-80558259D01*
X155204583Y-80561640D01*
X155548798Y-80577504D01*
X155850139Y-80618822D01*
X156101887Y-80682597D01*
X156297322Y-80765832D01*
X156429723Y-80865528D01*
X156492371Y-80978689D01*
X156478544Y-81102317D01*
X156467642Y-81125027D01*
X156427646Y-81185115D01*
X156370080Y-81238610D01*
X156284422Y-81289985D01*
X156160148Y-81343714D01*
X155986735Y-81404270D01*
X155753658Y-81476126D01*
X155450395Y-81563754D01*
X155405667Y-81576425D01*
X155160420Y-81646274D01*
X154943236Y-81709058D01*
X154767254Y-81760902D01*
X154645613Y-81797934D01*
X154591449Y-81816280D01*
X154590529Y-81816761D01*
X154599445Y-81853430D01*
X154657664Y-81926039D01*
X154706946Y-81975550D01*
X154798174Y-82080924D01*
X154850068Y-82179383D01*
X154855333Y-82209982D01*
X154820150Y-82315949D01*
X154731512Y-82429237D01*
X154614787Y-82526257D01*
X154495343Y-82583420D01*
X154446816Y-82589844D01*
X154367511Y-82584534D01*
X154364138Y-82566048D01*
X154405921Y-82536927D01*
X154592982Y-82402629D01*
X154697831Y-82285125D01*
X154720193Y-82179877D01*
X154659790Y-82082346D01*
X154516347Y-81987996D01*
X154368500Y-81922252D01*
X154156833Y-81838274D01*
X154283833Y-81787936D01*
X154363430Y-81760886D01*
X154509547Y-81715498D01*
X154707175Y-81656266D01*
X154941304Y-81587685D01*
X155196925Y-81514250D01*
X155215167Y-81509063D01*
X155553243Y-81411699D01*
X155818157Y-81331876D01*
X156018768Y-81266122D01*
X156163931Y-81210969D01*
X156262505Y-81162947D01*
X156323345Y-81118587D01*
X156355310Y-81074417D01*
X156360716Y-81060300D01*
X156354242Y-80957901D01*
X156266016Y-80871138D01*
X156097599Y-80800573D01*
X155850555Y-80746767D01*
X155526445Y-80710282D01*
X155357733Y-80699756D01*
X154865299Y-80675334D01*
X154693579Y-80813332D01*
X154568121Y-80940555D01*
X154470438Y-81086525D01*
X154452207Y-81126248D01*
X154397543Y-81239387D01*
X154309469Y-81395903D01*
X154203000Y-81569722D01*
X154148948Y-81652883D01*
X154042826Y-81815857D01*
X153979336Y-81925000D01*
X153952247Y-81995625D01*
X153955329Y-82043045D01*
X153976736Y-82076216D01*
X154061605Y-82220941D01*
X154068000Y-82377437D01*
X154048868Y-82450628D01*
X153989587Y-82561428D01*
X153920717Y-82592333D01*
X153850736Y-82569292D01*
X153847453Y-82518614D01*
X153881667Y-82486500D01*
X153911977Y-82429366D01*
X153924000Y-82333866D01*
X153899247Y-82222821D01*
X153811483Y-82142915D01*
X153803120Y-82138020D01*
X153682241Y-82068645D01*
X153912822Y-81748406D01*
X154045904Y-81556547D01*
X154158035Y-81381439D01*
X154241760Y-81235999D01*
X154289623Y-81133148D01*
X154294846Y-81086402D01*
X154249821Y-81091109D01*
X154151446Y-81120442D01*
X154069643Y-81149801D01*
X153909206Y-81202158D01*
X153715828Y-81253467D01*
X153585333Y-81281867D01*
X153406468Y-81320472D01*
X153293523Y-81361249D01*
X153228368Y-81416597D01*
X153192877Y-81498918D01*
X153179575Y-81559420D01*
X153151914Y-81655414D01*
X153119435Y-81702391D01*
X153114955Y-81703333D01*
X153079102Y-81734080D01*
X153088475Y-81812567D01*
X153138359Y-81918159D01*
X153176892Y-81974504D01*
X153329192Y-82211479D01*
X153453456Y-82473822D01*
X153458224Y-82486213D01*
X153478528Y-82563765D01*
X153450531Y-82590064D01*
X153425535Y-82591335D01*
X153360197Y-82550848D01*
X153283550Y-82437238D01*
X153249366Y-82369085D01*
X153191419Y-82247850D01*
X153158915Y-82196003D01*
X153142228Y-82205871D01*
X153131732Y-82269781D01*
X153131129Y-82274833D01*
X153106987Y-82423149D01*
X153078836Y-82492043D01*
X153046118Y-82480566D01*
X153008279Y-82387769D01*
X152964762Y-82212700D01*
X152915011Y-81954411D01*
X152902932Y-81884906D01*
X152868472Y-81689473D01*
X152837617Y-81525467D01*
X152813800Y-81410435D01*
X152800673Y-81362249D01*
X152759107Y-81343500D01*
X153077333Y-81343500D01*
X153098500Y-81364667D01*
X153119667Y-81343500D01*
X153098500Y-81322333D01*
X153077333Y-81343500D01*
X152759107Y-81343500D01*
X152751746Y-81340180D01*
X152647458Y-81316537D01*
X152580867Y-81306060D01*
X152423421Y-81280386D01*
X152349259Y-81257938D01*
X152357038Y-81239303D01*
X152445416Y-81225064D01*
X152613050Y-81215809D01*
X152795630Y-81212442D01*
X153259039Y-81185309D01*
X153690244Y-81113664D01*
X154076760Y-81000890D01*
X154406101Y-80850372D01*
X154595722Y-80724530D01*
X154659838Y-80667324D01*
X154658997Y-80635901D01*
X154624880Y-80618889D01*
X154545050Y-80608544D01*
X154415076Y-80610884D01*
X154313561Y-80619856D01*
X154180743Y-80632605D01*
X154118861Y-80629151D01*
X154115429Y-80607751D01*
X154127542Y-80593858D01*
X154198011Y-80563897D01*
X154332586Y-80539612D01*
X154510727Y-80524687D01*
X154514158Y-80524528D01*
X154846539Y-80509434D01*
X154956769Y-80306905D01*
X155020205Y-80168038D01*
X155059978Y-80038024D01*
X155066849Y-79983104D01*
X155056146Y-79908101D01*
X155011972Y-79850394D01*
X154915892Y-79791147D01*
X154844599Y-79756000D01*
X154622500Y-79650167D01*
X154617488Y-79523160D01*
X154748195Y-79523160D01*
X154801362Y-79583785D01*
X154929259Y-79651980D01*
X154980718Y-79674675D01*
X155128945Y-79755915D01*
X155204371Y-79851051D01*
X155218614Y-79980474D01*
X155205474Y-80069211D01*
X155179250Y-80200500D01*
X155345375Y-80075773D01*
X155468999Y-79981339D01*
X155621692Y-79862497D01*
X155744333Y-79765662D01*
X155973007Y-79574304D01*
X156182153Y-79381747D01*
X156364000Y-79196912D01*
X156510778Y-79028721D01*
X156614713Y-78886097D01*
X156668034Y-78777961D01*
X156662971Y-78713236D01*
X156661954Y-78712176D01*
X156611293Y-78711543D01*
X156511832Y-78738749D01*
X156455756Y-78759526D01*
X156324920Y-78801503D01*
X156145684Y-78845818D01*
X155953597Y-78883824D01*
X155925440Y-78888516D01*
X155598046Y-78972027D01*
X155265627Y-79110414D01*
X154964058Y-79287428D01*
X154844709Y-79378070D01*
X154764423Y-79458468D01*
X154748195Y-79523160D01*
X154617488Y-79523160D01*
X154607287Y-79264689D01*
X154728333Y-79264689D01*
X154760265Y-79262292D01*
X154842021Y-79222995D01*
X154908250Y-79184372D01*
X155062255Y-79094113D01*
X155225684Y-79004845D01*
X155268083Y-78983037D01*
X155373563Y-78924440D01*
X155438302Y-78877886D01*
X155448000Y-78863714D01*
X155410878Y-78830019D01*
X155320293Y-78799773D01*
X155207417Y-78778765D01*
X155103422Y-78772782D01*
X155039478Y-78787610D01*
X155039222Y-78787820D01*
X154988917Y-78845348D01*
X154917053Y-78944763D01*
X154839743Y-79061348D01*
X154773101Y-79170389D01*
X154733240Y-79247168D01*
X154728333Y-79264689D01*
X154607287Y-79264689D01*
X154601333Y-79113841D01*
X154591758Y-78909753D01*
X154585469Y-78810979D01*
X154729742Y-78810979D01*
X154731150Y-78972833D01*
X154815800Y-78871175D01*
X154870819Y-78786180D01*
X154885110Y-78723453D01*
X154884967Y-78723008D01*
X154834835Y-78675196D01*
X154798908Y-78662812D01*
X154751941Y-78671076D01*
X154732115Y-78732661D01*
X154729742Y-78810979D01*
X154585469Y-78810979D01*
X154580836Y-78738215D01*
X154569838Y-78615919D01*
X154560034Y-78559556D01*
X154559000Y-78558017D01*
X154512401Y-78529821D01*
X154413754Y-78477053D01*
X154317484Y-78427843D01*
X154184291Y-78356971D01*
X154007327Y-78257414D01*
X153814733Y-78145175D01*
X153709280Y-78081982D01*
X153550438Y-77987364D01*
X153420871Y-77913400D01*
X153335847Y-77868600D01*
X153310158Y-77859482D01*
X153319460Y-77901766D01*
X153354220Y-78002567D01*
X153407521Y-78142170D01*
X153422510Y-78179770D01*
X153494486Y-78378179D01*
X153553507Y-78577353D01*
X153595245Y-78758107D01*
X153615375Y-78901258D01*
X153609571Y-78987621D01*
X153606228Y-78994439D01*
X153618680Y-79028090D01*
X153662210Y-79036333D01*
X153762965Y-79044613D01*
X153876375Y-79062792D01*
X153960533Y-79075112D01*
X153998314Y-79053019D01*
X154008295Y-78976055D01*
X154008667Y-78917123D01*
X154018233Y-78802625D01*
X154042083Y-78728267D01*
X154051079Y-78718784D01*
X154095233Y-78730673D01*
X154135253Y-78808275D01*
X154164881Y-78932663D01*
X154177858Y-79084910D01*
X154178000Y-79102589D01*
X154174173Y-79218639D01*
X154152261Y-79273194D01*
X154096611Y-79289390D01*
X154051000Y-79290333D01*
X153978096Y-79294323D01*
X153940334Y-79320261D01*
X153926155Y-79389105D01*
X153924000Y-79520573D01*
X153924000Y-79750812D01*
X153744083Y-79772986D01*
X153586241Y-79792402D01*
X153407838Y-79814298D01*
X153352500Y-79821079D01*
X153221468Y-79843170D01*
X153037114Y-79882047D01*
X152827603Y-79931510D01*
X152685750Y-79967864D01*
X152504148Y-80013312D01*
X152356979Y-80044844D01*
X152260565Y-80059322D01*
X152230667Y-80055417D01*
X152268179Y-80028944D01*
X152369527Y-79983637D01*
X152517925Y-79926520D01*
X152647341Y-79881057D01*
X153064016Y-79740009D01*
X153039223Y-79692500D01*
X153162000Y-79692500D01*
X153183167Y-79713667D01*
X153204333Y-79692500D01*
X153183167Y-79671333D01*
X153162000Y-79692500D01*
X153039223Y-79692500D01*
X153007435Y-79631588D01*
X152974004Y-79525086D01*
X152966971Y-79474580D01*
X153592558Y-79474580D01*
X153601623Y-79533285D01*
X153655086Y-79537108D01*
X153727977Y-79487681D01*
X153747441Y-79444753D01*
X153738377Y-79386048D01*
X153684914Y-79382225D01*
X153612023Y-79431652D01*
X153592558Y-79474580D01*
X152966971Y-79474580D01*
X152953556Y-79378244D01*
X152950594Y-79303769D01*
X152950548Y-79206219D01*
X152949016Y-79194347D01*
X153204333Y-79194347D01*
X153236129Y-79304896D01*
X153315541Y-79362786D01*
X153418607Y-79360580D01*
X153520024Y-79292332D01*
X153566883Y-79232661D01*
X153550299Y-79203249D01*
X153473668Y-79182564D01*
X153357687Y-79155430D01*
X153278417Y-79135379D01*
X153217296Y-79143848D01*
X153204333Y-79194347D01*
X152949016Y-79194347D01*
X152941779Y-79138290D01*
X152910933Y-79091617D01*
X152844655Y-79057839D01*
X152729590Y-79028590D01*
X152552384Y-78995509D01*
X152421167Y-78972216D01*
X152243292Y-78939575D01*
X152091420Y-78910128D01*
X151989129Y-78888510D01*
X151966083Y-78882726D01*
X151918104Y-78882541D01*
X151896531Y-78931566D01*
X151892000Y-79030628D01*
X151888354Y-79125538D01*
X151865628Y-79184524D01*
X151806141Y-79221076D01*
X151692211Y-79248687D01*
X151580638Y-79268222D01*
X151470480Y-79273796D01*
X151430457Y-79249603D01*
X151457552Y-79208508D01*
X151548749Y-79163375D01*
X151609465Y-79145284D01*
X151719094Y-79106884D01*
X151761538Y-79069608D01*
X151732113Y-79043182D01*
X151661922Y-79036333D01*
X151542535Y-79020794D01*
X151443362Y-78992427D01*
X151368803Y-78947839D01*
X151368319Y-78907157D01*
X151431435Y-78878733D01*
X151547676Y-78870919D01*
X151591996Y-78873905D01*
X151715440Y-78879041D01*
X151757183Y-78862442D01*
X151717459Y-78823128D01*
X151616833Y-78769692D01*
X151516710Y-78708906D01*
X151470369Y-78654182D01*
X151485779Y-78619059D01*
X151524625Y-78613000D01*
X151596527Y-78625696D01*
X151712742Y-78657731D01*
X151768042Y-78675366D01*
X151865229Y-78701407D01*
X152021087Y-78735993D01*
X152219983Y-78776333D01*
X152446287Y-78819641D01*
X152684366Y-78863128D01*
X152918588Y-78904006D01*
X153133320Y-78939486D01*
X153312932Y-78966780D01*
X153441791Y-78983100D01*
X153504265Y-78985658D01*
X153505613Y-78985295D01*
X153489538Y-78952702D01*
X153421549Y-78869243D01*
X153309680Y-78743842D01*
X153161967Y-78585420D01*
X152986444Y-78402899D01*
X152920247Y-78335297D01*
X152679470Y-78093988D01*
X152484450Y-77907111D01*
X152324837Y-77765685D01*
X152190285Y-77660732D01*
X152070444Y-77583274D01*
X152024571Y-77558115D01*
X151755598Y-77435850D01*
X151491613Y-77348845D01*
X151258170Y-77304928D01*
X151185728Y-77301169D01*
X151089309Y-77312092D01*
X151047042Y-77360842D01*
X151035633Y-77417083D01*
X151023753Y-77467594D01*
X151005206Y-77457317D01*
X150974722Y-77378349D01*
X150943921Y-77279500D01*
X150858696Y-77033304D01*
X150755554Y-76792789D01*
X150644488Y-76577495D01*
X150641876Y-76573407D01*
X150823990Y-76573407D01*
X150830466Y-76659021D01*
X150867459Y-76769619D01*
X150896334Y-76842396D01*
X151005112Y-77114119D01*
X151370647Y-77183128D01*
X151650568Y-77246743D01*
X151895990Y-77329769D01*
X152123116Y-77441842D01*
X152348151Y-77592598D01*
X152587299Y-77791675D01*
X152856764Y-78048707D01*
X152901398Y-78093459D01*
X153092989Y-78282930D01*
X153241134Y-78421737D01*
X153342055Y-78506611D01*
X153391976Y-78534280D01*
X153395667Y-78521305D01*
X153367013Y-78447106D01*
X153308859Y-78314735D01*
X153229235Y-78141914D01*
X153136170Y-77946367D01*
X153120737Y-77914500D01*
X153030824Y-77726665D01*
X152957422Y-77568250D01*
X152907002Y-77453614D01*
X152886035Y-77397119D01*
X152886098Y-77393814D01*
X152923899Y-77410386D01*
X153016290Y-77465194D01*
X153147871Y-77548828D01*
X153252297Y-77617643D01*
X153581853Y-77824013D01*
X153944195Y-78027288D01*
X154321214Y-78218958D01*
X154694804Y-78390513D01*
X155046857Y-78533443D01*
X155359265Y-78639238D01*
X155511500Y-78679399D01*
X155678060Y-78705378D01*
X155861464Y-78715651D01*
X156034010Y-78710561D01*
X156167998Y-78690453D01*
X156219530Y-78670610D01*
X156204663Y-78639133D01*
X156132478Y-78576485D01*
X156018002Y-78495484D01*
X156001990Y-78485044D01*
X155692657Y-78250130D01*
X155423344Y-77967346D01*
X155184556Y-77624901D01*
X154966800Y-77211003D01*
X154954156Y-77183550D01*
X154834189Y-76916936D01*
X154749847Y-76718509D01*
X154698537Y-76580909D01*
X154677662Y-76496775D01*
X154684628Y-76458745D01*
X154697201Y-76454707D01*
X154755382Y-76474057D01*
X154868314Y-76525407D01*
X155016705Y-76599695D01*
X155104831Y-76646181D01*
X155259169Y-76726599D01*
X155383285Y-76786672D01*
X155460172Y-76818411D01*
X155476421Y-76820690D01*
X155462656Y-76779592D01*
X155398814Y-76698100D01*
X155299285Y-76590708D01*
X155178456Y-76471909D01*
X155050717Y-76356196D01*
X154930456Y-76258065D01*
X154885576Y-76225536D01*
X154688254Y-76113185D01*
X154453712Y-76026663D01*
X154164391Y-75960422D01*
X153934583Y-75925076D01*
X153810571Y-75901084D01*
X153729895Y-75870868D01*
X153712333Y-75851281D01*
X153751144Y-75836394D01*
X153854133Y-75828329D01*
X154001138Y-75826496D01*
X154171996Y-75830310D01*
X154346544Y-75839181D01*
X154504619Y-75852522D01*
X154626058Y-75869747D01*
X154664833Y-75879043D01*
X154679801Y-75877898D01*
X154629183Y-75847868D01*
X154559000Y-75812584D01*
X154204646Y-75676810D01*
X153809625Y-75595272D01*
X153360307Y-75565270D01*
X153309218Y-75565000D01*
X152804593Y-75598042D01*
X152323452Y-75699939D01*
X151852361Y-75874846D01*
X151377888Y-76126916D01*
X151265623Y-76197042D01*
X151068847Y-76324595D01*
X150935062Y-76420382D01*
X150856149Y-76498590D01*
X150823990Y-76573407D01*
X150641876Y-76573407D01*
X150535487Y-76406964D01*
X150446939Y-76307510D01*
X150313475Y-76195207D01*
X150176743Y-76327734D01*
X150038376Y-76498671D01*
X149907765Y-76726841D01*
X149799173Y-76985059D01*
X149752161Y-77136897D01*
X149710325Y-77376068D01*
X149693846Y-77659429D01*
X149702675Y-77950405D01*
X149736764Y-78212422D01*
X149753705Y-78286898D01*
X149800798Y-78436047D01*
X149866774Y-78605548D01*
X149941688Y-78773963D01*
X150015594Y-78919853D01*
X150078545Y-79021781D01*
X150110081Y-79055078D01*
X150142453Y-79100489D01*
X150203173Y-79207668D01*
X150284316Y-79361876D01*
X150377960Y-79548377D01*
X150404853Y-79603372D01*
X150605499Y-79972876D01*
X150816911Y-80281578D01*
X151034213Y-80524589D01*
X151252531Y-80697020D01*
X151466987Y-80793982D01*
X151612560Y-80814333D01*
X151701884Y-80828247D01*
X151717411Y-80866273D01*
X151664636Y-80922840D01*
X151549054Y-80992378D01*
X151376162Y-81069315D01*
X151351643Y-81078850D01*
X151213453Y-81131833D01*
X151364832Y-81343500D01*
X151460757Y-81490397D01*
X151568992Y-81675280D01*
X151666719Y-81859103D01*
X151670082Y-81865871D01*
X151747680Y-82032367D01*
X151795981Y-82170881D01*
X151823426Y-82315801D01*
X151838458Y-82501519D01*
X151841540Y-82564371D01*
X151859127Y-82952167D01*
X151637009Y-82660734D01*
X151520525Y-82513562D01*
X151441674Y-82437336D01*
X151391076Y-82435118D01*
X151359353Y-82509967D01*
X151337126Y-82664945D01*
X151327721Y-82761667D01*
X151305833Y-82932673D01*
X151272280Y-83119226D01*
X151232229Y-83299210D01*
X151190844Y-83450509D01*
X151153293Y-83551009D01*
X151137699Y-83575168D01*
X151113321Y-83552114D01*
X151075045Y-83464146D01*
X151029928Y-83328383D01*
X151015534Y-83278835D01*
X150932328Y-83003032D01*
X150858874Y-82804473D01*
X150792243Y-82676687D01*
X150729505Y-82613206D01*
X150710659Y-82605643D01*
X150655182Y-82562146D01*
X150654591Y-82483260D01*
X150651523Y-82399434D01*
X150616352Y-82380657D01*
X150521130Y-82348379D01*
X150382575Y-82256651D01*
X150209020Y-82113100D01*
X150008798Y-81925350D01*
X149790242Y-81701026D01*
X149561686Y-81447754D01*
X149436649Y-81301167D01*
X149241840Y-81070820D01*
X149091209Y-80899628D01*
X148977022Y-80779859D01*
X148891545Y-80703784D01*
X148827043Y-80663673D01*
X148787636Y-80652524D01*
X148678592Y-80659445D01*
X148608607Y-80689458D01*
X148550426Y-80788937D01*
X148565495Y-80929111D01*
X148653359Y-81109007D01*
X148813564Y-81327652D01*
X149007560Y-81544583D01*
X149130426Y-81677119D01*
X149222438Y-81784000D01*
X149273517Y-81852976D01*
X149277573Y-81872667D01*
X149215828Y-81856292D01*
X149108832Y-81814793D01*
X149049706Y-81788930D01*
X148912273Y-81737491D01*
X148785455Y-81707403D01*
X148748750Y-81704263D01*
X148658126Y-81729934D01*
X148624499Y-81801672D01*
X148642150Y-81908664D01*
X148705360Y-82040099D01*
X148808412Y-82185162D01*
X148945587Y-82333043D01*
X149111166Y-82472928D01*
X149181503Y-82522513D01*
X149286172Y-82592333D01*
X149141565Y-82592333D01*
X149051512Y-82580944D01*
X148965337Y-82537841D01*
X148861359Y-82449624D01*
X148782007Y-82370083D01*
X148619457Y-82173334D01*
X148519753Y-81988997D01*
X148484246Y-81825656D01*
X148514284Y-81691893D01*
X148611219Y-81596291D01*
X148656975Y-81575012D01*
X148761135Y-81535410D01*
X148607029Y-81303311D01*
X148487636Y-81082678D01*
X148431550Y-80881560D01*
X148431388Y-80880142D01*
X148424360Y-80753435D01*
X148449104Y-80669095D01*
X148519788Y-80586670D01*
X148541354Y-80566229D01*
X148672858Y-80443387D01*
X148514066Y-80338304D01*
X148088313Y-80102641D01*
X147644455Y-79948774D01*
X147175659Y-79874585D01*
X146992671Y-79866882D01*
X146797594Y-79866909D01*
X146670292Y-79874501D01*
X146594030Y-79892105D01*
X146552071Y-79922168D01*
X146544689Y-79932368D01*
X146524781Y-79979821D01*
X146533569Y-80027743D01*
X146579070Y-80082078D01*
X146669301Y-80148773D01*
X146812277Y-80233772D01*
X147016016Y-80343020D01*
X147281978Y-80479148D01*
X147599570Y-80646263D01*
X147860357Y-80797076D01*
X148056125Y-80926630D01*
X148153332Y-81004999D01*
X148357167Y-81193232D01*
X148145500Y-81128856D01*
X147902048Y-81074361D01*
X147624925Y-81044641D01*
X147328391Y-81037914D01*
X147026703Y-81052400D01*
X146734121Y-81086315D01*
X146464904Y-81137878D01*
X146233310Y-81205308D01*
X146053598Y-81286823D01*
X145940027Y-81380641D01*
X145923246Y-81406539D01*
X145898173Y-81494283D01*
X145928655Y-81568481D01*
X146020219Y-81631509D01*
X146178394Y-81685743D01*
X146408709Y-81733561D01*
X146716690Y-81777338D01*
X146812000Y-81788559D01*
X147062636Y-81821960D01*
X147324196Y-81865288D01*
X147583365Y-81915383D01*
X147826830Y-81969087D01*
X148041277Y-82023239D01*
X148213392Y-82074680D01*
X148329861Y-82120252D01*
X148377370Y-82156794D01*
X148377814Y-82160117D01*
X148342337Y-82191411D01*
X148249039Y-82248698D01*
X148116842Y-82322210D01*
X147964669Y-82402178D01*
X147811440Y-82478832D01*
X147676079Y-82542403D01*
X147577507Y-82583121D01*
X147539751Y-82592803D01*
X147501286Y-82577365D01*
X147533956Y-82531153D01*
X147639641Y-82452454D01*
X147812102Y-82344408D01*
X147938551Y-82263696D01*
X148024895Y-82198775D01*
X148056090Y-82161264D01*
X148053854Y-82157718D01*
X147976188Y-82129592D01*
X147831566Y-82092660D01*
X147636826Y-82050230D01*
X147408809Y-82005608D01*
X147164353Y-81962100D01*
X146920298Y-81923012D01*
X146708051Y-81893475D01*
X146416351Y-81852761D01*
X146197084Y-81812161D01*
X146038093Y-81768200D01*
X145927220Y-81717401D01*
X145852308Y-81656287D01*
X145843625Y-81646260D01*
X145792703Y-81528187D01*
X145796328Y-81392203D01*
X145840793Y-81298203D01*
X145975905Y-81189599D01*
X146185115Y-81093931D01*
X146458470Y-81013929D01*
X146786018Y-80952323D01*
X147157807Y-80911841D01*
X147277667Y-80904159D01*
X147764500Y-80877833D01*
X147171833Y-80567150D01*
X146960610Y-80454038D01*
X146769817Y-80347444D01*
X146615074Y-80256427D01*
X146511998Y-80190043D01*
X146483917Y-80168187D01*
X146403226Y-80048574D01*
X146398462Y-79925324D01*
X146463687Y-79816409D01*
X146592966Y-79739799D01*
X146628938Y-79729184D01*
X146766954Y-79715195D01*
X146964178Y-79722196D01*
X147198515Y-79747553D01*
X147447867Y-79788636D01*
X147690139Y-79842810D01*
X147772997Y-79865482D01*
X148016217Y-79944242D01*
X148235326Y-80035956D01*
X148440527Y-80148664D01*
X148642024Y-80290407D01*
X148850021Y-80469224D01*
X149074721Y-80693155D01*
X149326330Y-80970240D01*
X149615050Y-81308518D01*
X149635428Y-81332917D01*
X149792834Y-81519767D01*
X149932140Y-81681710D01*
X150044195Y-81808384D01*
X150119850Y-81889428D01*
X150149292Y-81914790D01*
X150197888Y-81890309D01*
X150280177Y-81830546D01*
X150293838Y-81819540D01*
X150410175Y-81724500D01*
X150304108Y-81343500D01*
X150203132Y-80939466D01*
X150126536Y-80532514D01*
X150069908Y-80095037D01*
X150031195Y-79635016D01*
X150012520Y-79384387D01*
X149993727Y-79202953D01*
X149972094Y-79075284D01*
X149944899Y-78985947D01*
X149909417Y-78919512D01*
X149903416Y-78910854D01*
X149766134Y-78661075D01*
X149661735Y-78355293D01*
X149594497Y-78017193D01*
X149568697Y-77670461D01*
X149588611Y-77338780D01*
X149603406Y-77249523D01*
X149672657Y-76993189D01*
X149777046Y-76732877D01*
X149904057Y-76493804D01*
X150041170Y-76301184D01*
X150109316Y-76230435D01*
X150240614Y-76131269D01*
X150349786Y-76103869D01*
X150456456Y-76149803D01*
X150577814Y-76267857D01*
X150703091Y-76410541D01*
X151032962Y-76172046D01*
X151536335Y-75851947D01*
X152046175Y-75615506D01*
X152565124Y-75461799D01*
X153095824Y-75389903D01*
X153289000Y-75383876D01*
X153674448Y-75396676D01*
X153674448Y-75396676D01*
G37*
X153674448Y-75396676D02*
X154009973Y-75443214D01*
X154325840Y-75530061D01*
X154652317Y-75663787D01*
X154714550Y-75693345D01*
X154851296Y-75766872D01*
X155011484Y-75864389D01*
X155181253Y-75975945D01*
X155346742Y-76091588D01*
X155494090Y-76201366D01*
X155609436Y-76295329D01*
X155678921Y-76363524D01*
X155691023Y-76394421D01*
X155645488Y-76389151D01*
X155548583Y-76355842D01*
X155472190Y-76323976D01*
X155355704Y-76277201D01*
X155274535Y-76253475D01*
X155252875Y-76254014D01*
X155267804Y-76293486D01*
X155325266Y-76377995D01*
X155404312Y-76478725D01*
X155519393Y-76635335D01*
X155642131Y-76830090D01*
X155756877Y-77035334D01*
X155847983Y-77223412D01*
X155893352Y-77343000D01*
X155900805Y-77388711D01*
X155877145Y-77389688D01*
X155812970Y-77340763D01*
X155698882Y-77236767D01*
X155697110Y-77235107D01*
X155576404Y-77131753D01*
X155432977Y-77023451D01*
X155283608Y-76920995D01*
X155145079Y-76835182D01*
X155034170Y-76776807D01*
X154967662Y-76756666D01*
X154958581Y-76759974D01*
X154963150Y-76809269D01*
X155003249Y-76912803D01*
X155069428Y-77053083D01*
X155152242Y-77212616D01*
X155242243Y-77373907D01*
X155329983Y-77519463D01*
X155406016Y-77631791D01*
X155460894Y-77693397D01*
X155463740Y-77695385D01*
X155542611Y-77770610D01*
X155575000Y-77847728D01*
X155607542Y-77921220D01*
X155693886Y-78025762D01*
X155817114Y-78145854D01*
X155960303Y-78265999D01*
X156106534Y-78370697D01*
X156213373Y-78432442D01*
X156362981Y-78495069D01*
X156514061Y-78540920D01*
X156558735Y-78549805D01*
X156703674Y-78598972D01*
X156775990Y-78691429D01*
X156776771Y-78828981D01*
X156761126Y-78885766D01*
X156702193Y-78989357D01*
X156585156Y-79133172D01*
X156420228Y-79307425D01*
X156217625Y-79502330D01*
X155987562Y-79708103D01*
X155740253Y-79914959D01*
X155485913Y-80113113D01*
X155458583Y-80133485D01*
X155286813Y-80263420D01*
X155142587Y-80377257D01*
X155038217Y-80464911D01*
X154986014Y-80516298D01*
X154982333Y-80523592D01*
X155020527Y-80544347D01*
X155118629Y-80558259D01*
X155204583Y-80561640D01*
X155548798Y-80577504D01*
X155850139Y-80618822D01*
X156101887Y-80682597D01*
X156297322Y-80765832D01*
X156429723Y-80865528D01*
X156492371Y-80978689D01*
X156478544Y-81102317D01*
X156467642Y-81125027D01*
X156427646Y-81185115D01*
X156370080Y-81238610D01*
X156284422Y-81289985D01*
X156160148Y-81343714D01*
X155986735Y-81404270D01*
X155753658Y-81476126D01*
X155450395Y-81563754D01*
X155405667Y-81576425D01*
X155160420Y-81646274D01*
X154943236Y-81709058D01*
X154767254Y-81760902D01*
X154645613Y-81797934D01*
X154591449Y-81816280D01*
X154590529Y-81816761D01*
X154599445Y-81853430D01*
X154657664Y-81926039D01*
X154706946Y-81975550D01*
X154798174Y-82080924D01*
X154850068Y-82179383D01*
X154855333Y-82209982D01*
X154820150Y-82315949D01*
X154731512Y-82429237D01*
X154614787Y-82526257D01*
X154495343Y-82583420D01*
X154446816Y-82589844D01*
X154367511Y-82584534D01*
X154364138Y-82566048D01*
X154405921Y-82536927D01*
X154592982Y-82402629D01*
X154697831Y-82285125D01*
X154720193Y-82179877D01*
X154659790Y-82082346D01*
X154516347Y-81987996D01*
X154368500Y-81922252D01*
X154156833Y-81838274D01*
X154283833Y-81787936D01*
X154363430Y-81760886D01*
X154509547Y-81715498D01*
X154707175Y-81656266D01*
X154941304Y-81587685D01*
X155196925Y-81514250D01*
X155215167Y-81509063D01*
X155553243Y-81411699D01*
X155818157Y-81331876D01*
X156018768Y-81266122D01*
X156163931Y-81210969D01*
X156262505Y-81162947D01*
X156323345Y-81118587D01*
X156355310Y-81074417D01*
X156360716Y-81060300D01*
X156354242Y-80957901D01*
X156266016Y-80871138D01*
X156097599Y-80800573D01*
X155850555Y-80746767D01*
X155526445Y-80710282D01*
X155357733Y-80699756D01*
X154865299Y-80675334D01*
X154693579Y-80813332D01*
X154568121Y-80940555D01*
X154470438Y-81086525D01*
X154452207Y-81126248D01*
X154397543Y-81239387D01*
X154309469Y-81395903D01*
X154203000Y-81569722D01*
X154148948Y-81652883D01*
X154042826Y-81815857D01*
X153979336Y-81925000D01*
X153952247Y-81995625D01*
X153955329Y-82043045D01*
X153976736Y-82076216D01*
X154061605Y-82220941D01*
X154068000Y-82377437D01*
X154048868Y-82450628D01*
X153989587Y-82561428D01*
X153920717Y-82592333D01*
X153850736Y-82569292D01*
X153847453Y-82518614D01*
X153881667Y-82486500D01*
X153911977Y-82429366D01*
X153924000Y-82333866D01*
X153899247Y-82222821D01*
X153811483Y-82142915D01*
X153803120Y-82138020D01*
X153682241Y-82068645D01*
X153912822Y-81748406D01*
X154045904Y-81556547D01*
X154158035Y-81381439D01*
X154241760Y-81235999D01*
X154289623Y-81133148D01*
X154294846Y-81086402D01*
X154249821Y-81091109D01*
X154151446Y-81120442D01*
X154069643Y-81149801D01*
X153909206Y-81202158D01*
X153715828Y-81253467D01*
X153585333Y-81281867D01*
X153406468Y-81320472D01*
X153293523Y-81361249D01*
X153228368Y-81416597D01*
X153192877Y-81498918D01*
X153179575Y-81559420D01*
X153151914Y-81655414D01*
X153119435Y-81702391D01*
X153114955Y-81703333D01*
X153079102Y-81734080D01*
X153088475Y-81812567D01*
X153138359Y-81918159D01*
X153176892Y-81974504D01*
X153329192Y-82211479D01*
X153453456Y-82473822D01*
X153458224Y-82486213D01*
X153478528Y-82563765D01*
X153450531Y-82590064D01*
X153425535Y-82591335D01*
X153360197Y-82550848D01*
X153283550Y-82437238D01*
X153249366Y-82369085D01*
X153191419Y-82247850D01*
X153158915Y-82196003D01*
X153142228Y-82205871D01*
X153131732Y-82269781D01*
X153131129Y-82274833D01*
X153106987Y-82423149D01*
X153078836Y-82492043D01*
X153046118Y-82480566D01*
X153008279Y-82387769D01*
X152964762Y-82212700D01*
X152915011Y-81954411D01*
X152902932Y-81884906D01*
X152868472Y-81689473D01*
X152837617Y-81525467D01*
X152813800Y-81410435D01*
X152800673Y-81362249D01*
X152759107Y-81343500D01*
X153077333Y-81343500D01*
X153098500Y-81364667D01*
X153119667Y-81343500D01*
X153098500Y-81322333D01*
X153077333Y-81343500D01*
X152759107Y-81343500D01*
X152751746Y-81340180D01*
X152647458Y-81316537D01*
X152580867Y-81306060D01*
X152423421Y-81280386D01*
X152349259Y-81257938D01*
X152357038Y-81239303D01*
X152445416Y-81225064D01*
X152613050Y-81215809D01*
X152795630Y-81212442D01*
X153259039Y-81185309D01*
X153690244Y-81113664D01*
X154076760Y-81000890D01*
X154406101Y-80850372D01*
X154595722Y-80724530D01*
X154659838Y-80667324D01*
X154658997Y-80635901D01*
X154624880Y-80618889D01*
X154545050Y-80608544D01*
X154415076Y-80610884D01*
X154313561Y-80619856D01*
X154180743Y-80632605D01*
X154118861Y-80629151D01*
X154115429Y-80607751D01*
X154127542Y-80593858D01*
X154198011Y-80563897D01*
X154332586Y-80539612D01*
X154510727Y-80524687D01*
X154514158Y-80524528D01*
X154846539Y-80509434D01*
X154956769Y-80306905D01*
X155020205Y-80168038D01*
X155059978Y-80038024D01*
X155066849Y-79983104D01*
X155056146Y-79908101D01*
X155011972Y-79850394D01*
X154915892Y-79791147D01*
X154844599Y-79756000D01*
X154622500Y-79650167D01*
X154617488Y-79523160D01*
X154748195Y-79523160D01*
X154801362Y-79583785D01*
X154929259Y-79651980D01*
X154980718Y-79674675D01*
X155128945Y-79755915D01*
X155204371Y-79851051D01*
X155218614Y-79980474D01*
X155205474Y-80069211D01*
X155179250Y-80200500D01*
X155345375Y-80075773D01*
X155468999Y-79981339D01*
X155621692Y-79862497D01*
X155744333Y-79765662D01*
X155973007Y-79574304D01*
X156182153Y-79381747D01*
X156364000Y-79196912D01*
X156510778Y-79028721D01*
X156614713Y-78886097D01*
X156668034Y-78777961D01*
X156662971Y-78713236D01*
X156661954Y-78712176D01*
X156611293Y-78711543D01*
X156511832Y-78738749D01*
X156455756Y-78759526D01*
X156324920Y-78801503D01*
X156145684Y-78845818D01*
X155953597Y-78883824D01*
X155925440Y-78888516D01*
X155598046Y-78972027D01*
X155265627Y-79110414D01*
X154964058Y-79287428D01*
X154844709Y-79378070D01*
X154764423Y-79458468D01*
X154748195Y-79523160D01*
X154617488Y-79523160D01*
X154607287Y-79264689D01*
X154728333Y-79264689D01*
X154760265Y-79262292D01*
X154842021Y-79222995D01*
X154908250Y-79184372D01*
X155062255Y-79094113D01*
X155225684Y-79004845D01*
X155268083Y-78983037D01*
X155373563Y-78924440D01*
X155438302Y-78877886D01*
X155448000Y-78863714D01*
X155410878Y-78830019D01*
X155320293Y-78799773D01*
X155207417Y-78778765D01*
X155103422Y-78772782D01*
X155039478Y-78787610D01*
X155039222Y-78787820D01*
X154988917Y-78845348D01*
X154917053Y-78944763D01*
X154839743Y-79061348D01*
X154773101Y-79170389D01*
X154733240Y-79247168D01*
X154728333Y-79264689D01*
X154607287Y-79264689D01*
X154601333Y-79113841D01*
X154591758Y-78909753D01*
X154585469Y-78810979D01*
X154729742Y-78810979D01*
X154731150Y-78972833D01*
X154815800Y-78871175D01*
X154870819Y-78786180D01*
X154885110Y-78723453D01*
X154884967Y-78723008D01*
X154834835Y-78675196D01*
X154798908Y-78662812D01*
X154751941Y-78671076D01*
X154732115Y-78732661D01*
X154729742Y-78810979D01*
X154585469Y-78810979D01*
X154580836Y-78738215D01*
X154569838Y-78615919D01*
X154560034Y-78559556D01*
X154559000Y-78558017D01*
X154512401Y-78529821D01*
X154413754Y-78477053D01*
X154317484Y-78427843D01*
X154184291Y-78356971D01*
X154007327Y-78257414D01*
X153814733Y-78145175D01*
X153709280Y-78081982D01*
X153550438Y-77987364D01*
X153420871Y-77913400D01*
X153335847Y-77868600D01*
X153310158Y-77859482D01*
X153319460Y-77901766D01*
X153354220Y-78002567D01*
X153407521Y-78142170D01*
X153422510Y-78179770D01*
X153494486Y-78378179D01*
X153553507Y-78577353D01*
X153595245Y-78758107D01*
X153615375Y-78901258D01*
X153609571Y-78987621D01*
X153606228Y-78994439D01*
X153618680Y-79028090D01*
X153662210Y-79036333D01*
X153762965Y-79044613D01*
X153876375Y-79062792D01*
X153960533Y-79075112D01*
X153998314Y-79053019D01*
X154008295Y-78976055D01*
X154008667Y-78917123D01*
X154018233Y-78802625D01*
X154042083Y-78728267D01*
X154051079Y-78718784D01*
X154095233Y-78730673D01*
X154135253Y-78808275D01*
X154164881Y-78932663D01*
X154177858Y-79084910D01*
X154178000Y-79102589D01*
X154174173Y-79218639D01*
X154152261Y-79273194D01*
X154096611Y-79289390D01*
X154051000Y-79290333D01*
X153978096Y-79294323D01*
X153940334Y-79320261D01*
X153926155Y-79389105D01*
X153924000Y-79520573D01*
X153924000Y-79750812D01*
X153744083Y-79772986D01*
X153586241Y-79792402D01*
X153407838Y-79814298D01*
X153352500Y-79821079D01*
X153221468Y-79843170D01*
X153037114Y-79882047D01*
X152827603Y-79931510D01*
X152685750Y-79967864D01*
X152504148Y-80013312D01*
X152356979Y-80044844D01*
X152260565Y-80059322D01*
X152230667Y-80055417D01*
X152268179Y-80028944D01*
X152369527Y-79983637D01*
X152517925Y-79926520D01*
X152647341Y-79881057D01*
X153064016Y-79740009D01*
X153039223Y-79692500D01*
X153162000Y-79692500D01*
X153183167Y-79713667D01*
X153204333Y-79692500D01*
X153183167Y-79671333D01*
X153162000Y-79692500D01*
X153039223Y-79692500D01*
X153007435Y-79631588D01*
X152974004Y-79525086D01*
X152966971Y-79474580D01*
X153592558Y-79474580D01*
X153601623Y-79533285D01*
X153655086Y-79537108D01*
X153727977Y-79487681D01*
X153747441Y-79444753D01*
X153738377Y-79386048D01*
X153684914Y-79382225D01*
X153612023Y-79431652D01*
X153592558Y-79474580D01*
X152966971Y-79474580D01*
X152953556Y-79378244D01*
X152950594Y-79303769D01*
X152950548Y-79206219D01*
X152949016Y-79194347D01*
X153204333Y-79194347D01*
X153236129Y-79304896D01*
X153315541Y-79362786D01*
X153418607Y-79360580D01*
X153520024Y-79292332D01*
X153566883Y-79232661D01*
X153550299Y-79203249D01*
X153473668Y-79182564D01*
X153357687Y-79155430D01*
X153278417Y-79135379D01*
X153217296Y-79143848D01*
X153204333Y-79194347D01*
X152949016Y-79194347D01*
X152941779Y-79138290D01*
X152910933Y-79091617D01*
X152844655Y-79057839D01*
X152729590Y-79028590D01*
X152552384Y-78995509D01*
X152421167Y-78972216D01*
X152243292Y-78939575D01*
X152091420Y-78910128D01*
X151989129Y-78888510D01*
X151966083Y-78882726D01*
X151918104Y-78882541D01*
X151896531Y-78931566D01*
X151892000Y-79030628D01*
X151888354Y-79125538D01*
X151865628Y-79184524D01*
X151806141Y-79221076D01*
X151692211Y-79248687D01*
X151580638Y-79268222D01*
X151470480Y-79273796D01*
X151430457Y-79249603D01*
X151457552Y-79208508D01*
X151548749Y-79163375D01*
X151609465Y-79145284D01*
X151719094Y-79106884D01*
X151761538Y-79069608D01*
X151732113Y-79043182D01*
X151661922Y-79036333D01*
X151542535Y-79020794D01*
X151443362Y-78992427D01*
X151368803Y-78947839D01*
X151368319Y-78907157D01*
X151431435Y-78878733D01*
X151547676Y-78870919D01*
X151591996Y-78873905D01*
X151715440Y-78879041D01*
X151757183Y-78862442D01*
X151717459Y-78823128D01*
X151616833Y-78769692D01*
X151516710Y-78708906D01*
X151470369Y-78654182D01*
X151485779Y-78619059D01*
X151524625Y-78613000D01*
X151596527Y-78625696D01*
X151712742Y-78657731D01*
X151768042Y-78675366D01*
X151865229Y-78701407D01*
X152021087Y-78735993D01*
X152219983Y-78776333D01*
X152446287Y-78819641D01*
X152684366Y-78863128D01*
X152918588Y-78904006D01*
X153133320Y-78939486D01*
X153312932Y-78966780D01*
X153441791Y-78983100D01*
X153504265Y-78985658D01*
X153505613Y-78985295D01*
X153489538Y-78952702D01*
X153421549Y-78869243D01*
X153309680Y-78743842D01*
X153161967Y-78585420D01*
X152986444Y-78402899D01*
X152920247Y-78335297D01*
X152679470Y-78093988D01*
X152484450Y-77907111D01*
X152324837Y-77765685D01*
X152190285Y-77660732D01*
X152070444Y-77583274D01*
X152024571Y-77558115D01*
X151755598Y-77435850D01*
X151491613Y-77348845D01*
X151258170Y-77304928D01*
X151185728Y-77301169D01*
X151089309Y-77312092D01*
X151047042Y-77360842D01*
X151035633Y-77417083D01*
X151023753Y-77467594D01*
X151005206Y-77457317D01*
X150974722Y-77378349D01*
X150943921Y-77279500D01*
X150858696Y-77033304D01*
X150755554Y-76792789D01*
X150644488Y-76577495D01*
X150641876Y-76573407D01*
X150823990Y-76573407D01*
X150830466Y-76659021D01*
X150867459Y-76769619D01*
X150896334Y-76842396D01*
X151005112Y-77114119D01*
X151370647Y-77183128D01*
X151650568Y-77246743D01*
X151895990Y-77329769D01*
X152123116Y-77441842D01*
X152348151Y-77592598D01*
X152587299Y-77791675D01*
X152856764Y-78048707D01*
X152901398Y-78093459D01*
X153092989Y-78282930D01*
X153241134Y-78421737D01*
X153342055Y-78506611D01*
X153391976Y-78534280D01*
X153395667Y-78521305D01*
X153367013Y-78447106D01*
X153308859Y-78314735D01*
X153229235Y-78141914D01*
X153136170Y-77946367D01*
X153120737Y-77914500D01*
X153030824Y-77726665D01*
X152957422Y-77568250D01*
X152907002Y-77453614D01*
X152886035Y-77397119D01*
X152886098Y-77393814D01*
X152923899Y-77410386D01*
X153016290Y-77465194D01*
X153147871Y-77548828D01*
X153252297Y-77617643D01*
X153581853Y-77824013D01*
X153944195Y-78027288D01*
X154321214Y-78218958D01*
X154694804Y-78390513D01*
X155046857Y-78533443D01*
X155359265Y-78639238D01*
X155511500Y-78679399D01*
X155678060Y-78705378D01*
X155861464Y-78715651D01*
X156034010Y-78710561D01*
X156167998Y-78690453D01*
X156219530Y-78670610D01*
X156204663Y-78639133D01*
X156132478Y-78576485D01*
X156018002Y-78495484D01*
X156001990Y-78485044D01*
X155692657Y-78250130D01*
X155423344Y-77967346D01*
X155184556Y-77624901D01*
X154966800Y-77211003D01*
X154954156Y-77183550D01*
X154834189Y-76916936D01*
X154749847Y-76718509D01*
X154698537Y-76580909D01*
X154677662Y-76496775D01*
X154684628Y-76458745D01*
X154697201Y-76454707D01*
X154755382Y-76474057D01*
X154868314Y-76525407D01*
X155016705Y-76599695D01*
X155104831Y-76646181D01*
X155259169Y-76726599D01*
X155383285Y-76786672D01*
X155460172Y-76818411D01*
X155476421Y-76820690D01*
X155462656Y-76779592D01*
X155398814Y-76698100D01*
X155299285Y-76590708D01*
X155178456Y-76471909D01*
X155050717Y-76356196D01*
X154930456Y-76258065D01*
X154885576Y-76225536D01*
X154688254Y-76113185D01*
X154453712Y-76026663D01*
X154164391Y-75960422D01*
X153934583Y-75925076D01*
X153810571Y-75901084D01*
X153729895Y-75870868D01*
X153712333Y-75851281D01*
X153751144Y-75836394D01*
X153854133Y-75828329D01*
X154001138Y-75826496D01*
X154171996Y-75830310D01*
X154346544Y-75839181D01*
X154504619Y-75852522D01*
X154626058Y-75869747D01*
X154664833Y-75879043D01*
X154679801Y-75877898D01*
X154629183Y-75847868D01*
X154559000Y-75812584D01*
X154204646Y-75676810D01*
X153809625Y-75595272D01*
X153360307Y-75565270D01*
X153309218Y-75565000D01*
X152804593Y-75598042D01*
X152323452Y-75699939D01*
X151852361Y-75874846D01*
X151377888Y-76126916D01*
X151265623Y-76197042D01*
X151068847Y-76324595D01*
X150935062Y-76420382D01*
X150856149Y-76498590D01*
X150823990Y-76573407D01*
X150641876Y-76573407D01*
X150535487Y-76406964D01*
X150446939Y-76307510D01*
X150313475Y-76195207D01*
X150176743Y-76327734D01*
X150038376Y-76498671D01*
X149907765Y-76726841D01*
X149799173Y-76985059D01*
X149752161Y-77136897D01*
X149710325Y-77376068D01*
X149693846Y-77659429D01*
X149702675Y-77950405D01*
X149736764Y-78212422D01*
X149753705Y-78286898D01*
X149800798Y-78436047D01*
X149866774Y-78605548D01*
X149941688Y-78773963D01*
X150015594Y-78919853D01*
X150078545Y-79021781D01*
X150110081Y-79055078D01*
X150142453Y-79100489D01*
X150203173Y-79207668D01*
X150284316Y-79361876D01*
X150377960Y-79548377D01*
X150404853Y-79603372D01*
X150605499Y-79972876D01*
X150816911Y-80281578D01*
X151034213Y-80524589D01*
X151252531Y-80697020D01*
X151466987Y-80793982D01*
X151612560Y-80814333D01*
X151701884Y-80828247D01*
X151717411Y-80866273D01*
X151664636Y-80922840D01*
X151549054Y-80992378D01*
X151376162Y-81069315D01*
X151351643Y-81078850D01*
X151213453Y-81131833D01*
X151364832Y-81343500D01*
X151460757Y-81490397D01*
X151568992Y-81675280D01*
X151666719Y-81859103D01*
X151670082Y-81865871D01*
X151747680Y-82032367D01*
X151795981Y-82170881D01*
X151823426Y-82315801D01*
X151838458Y-82501519D01*
X151841540Y-82564371D01*
X151859127Y-82952167D01*
X151637009Y-82660734D01*
X151520525Y-82513562D01*
X151441674Y-82437336D01*
X151391076Y-82435118D01*
X151359353Y-82509967D01*
X151337126Y-82664945D01*
X151327721Y-82761667D01*
X151305833Y-82932673D01*
X151272280Y-83119226D01*
X151232229Y-83299210D01*
X151190844Y-83450509D01*
X151153293Y-83551009D01*
X151137699Y-83575168D01*
X151113321Y-83552114D01*
X151075045Y-83464146D01*
X151029928Y-83328383D01*
X151015534Y-83278835D01*
X150932328Y-83003032D01*
X150858874Y-82804473D01*
X150792243Y-82676687D01*
X150729505Y-82613206D01*
X150710659Y-82605643D01*
X150655182Y-82562146D01*
X150654591Y-82483260D01*
X150651523Y-82399434D01*
X150616352Y-82380657D01*
X150521130Y-82348379D01*
X150382575Y-82256651D01*
X150209020Y-82113100D01*
X150008798Y-81925350D01*
X149790242Y-81701026D01*
X149561686Y-81447754D01*
X149436649Y-81301167D01*
X149241840Y-81070820D01*
X149091209Y-80899628D01*
X148977022Y-80779859D01*
X148891545Y-80703784D01*
X148827043Y-80663673D01*
X148787636Y-80652524D01*
X148678592Y-80659445D01*
X148608607Y-80689458D01*
X148550426Y-80788937D01*
X148565495Y-80929111D01*
X148653359Y-81109007D01*
X148813564Y-81327652D01*
X149007560Y-81544583D01*
X149130426Y-81677119D01*
X149222438Y-81784000D01*
X149273517Y-81852976D01*
X149277573Y-81872667D01*
X149215828Y-81856292D01*
X149108832Y-81814793D01*
X149049706Y-81788930D01*
X148912273Y-81737491D01*
X148785455Y-81707403D01*
X148748750Y-81704263D01*
X148658126Y-81729934D01*
X148624499Y-81801672D01*
X148642150Y-81908664D01*
X148705360Y-82040099D01*
X148808412Y-82185162D01*
X148945587Y-82333043D01*
X149111166Y-82472928D01*
X149181503Y-82522513D01*
X149286172Y-82592333D01*
X149141565Y-82592333D01*
X149051512Y-82580944D01*
X148965337Y-82537841D01*
X148861359Y-82449624D01*
X148782007Y-82370083D01*
X148619457Y-82173334D01*
X148519753Y-81988997D01*
X148484246Y-81825656D01*
X148514284Y-81691893D01*
X148611219Y-81596291D01*
X148656975Y-81575012D01*
X148761135Y-81535410D01*
X148607029Y-81303311D01*
X148487636Y-81082678D01*
X148431550Y-80881560D01*
X148431388Y-80880142D01*
X148424360Y-80753435D01*
X148449104Y-80669095D01*
X148519788Y-80586670D01*
X148541354Y-80566229D01*
X148672858Y-80443387D01*
X148514066Y-80338304D01*
X148088313Y-80102641D01*
X147644455Y-79948774D01*
X147175659Y-79874585D01*
X146992671Y-79866882D01*
X146797594Y-79866909D01*
X146670292Y-79874501D01*
X146594030Y-79892105D01*
X146552071Y-79922168D01*
X146544689Y-79932368D01*
X146524781Y-79979821D01*
X146533569Y-80027743D01*
X146579070Y-80082078D01*
X146669301Y-80148773D01*
X146812277Y-80233772D01*
X147016016Y-80343020D01*
X147281978Y-80479148D01*
X147599570Y-80646263D01*
X147860357Y-80797076D01*
X148056125Y-80926630D01*
X148153332Y-81004999D01*
X148357167Y-81193232D01*
X148145500Y-81128856D01*
X147902048Y-81074361D01*
X147624925Y-81044641D01*
X147328391Y-81037914D01*
X147026703Y-81052400D01*
X146734121Y-81086315D01*
X146464904Y-81137878D01*
X146233310Y-81205308D01*
X146053598Y-81286823D01*
X145940027Y-81380641D01*
X145923246Y-81406539D01*
X145898173Y-81494283D01*
X145928655Y-81568481D01*
X146020219Y-81631509D01*
X146178394Y-81685743D01*
X146408709Y-81733561D01*
X146716690Y-81777338D01*
X146812000Y-81788559D01*
X147062636Y-81821960D01*
X147324196Y-81865288D01*
X147583365Y-81915383D01*
X147826830Y-81969087D01*
X148041277Y-82023239D01*
X148213392Y-82074680D01*
X148329861Y-82120252D01*
X148377370Y-82156794D01*
X148377814Y-82160117D01*
X148342337Y-82191411D01*
X148249039Y-82248698D01*
X148116842Y-82322210D01*
X147964669Y-82402178D01*
X147811440Y-82478832D01*
X147676079Y-82542403D01*
X147577507Y-82583121D01*
X147539751Y-82592803D01*
X147501286Y-82577365D01*
X147533956Y-82531153D01*
X147639641Y-82452454D01*
X147812102Y-82344408D01*
X147938551Y-82263696D01*
X148024895Y-82198775D01*
X148056090Y-82161264D01*
X148053854Y-82157718D01*
X147976188Y-82129592D01*
X147831566Y-82092660D01*
X147636826Y-82050230D01*
X147408809Y-82005608D01*
X147164353Y-81962100D01*
X146920298Y-81923012D01*
X146708051Y-81893475D01*
X146416351Y-81852761D01*
X146197084Y-81812161D01*
X146038093Y-81768200D01*
X145927220Y-81717401D01*
X145852308Y-81656287D01*
X145843625Y-81646260D01*
X145792703Y-81528187D01*
X145796328Y-81392203D01*
X145840793Y-81298203D01*
X145975905Y-81189599D01*
X146185115Y-81093931D01*
X146458470Y-81013929D01*
X146786018Y-80952323D01*
X147157807Y-80911841D01*
X147277667Y-80904159D01*
X147764500Y-80877833D01*
X147171833Y-80567150D01*
X146960610Y-80454038D01*
X146769817Y-80347444D01*
X146615074Y-80256427D01*
X146511998Y-80190043D01*
X146483917Y-80168187D01*
X146403226Y-80048574D01*
X146398462Y-79925324D01*
X146463687Y-79816409D01*
X146592966Y-79739799D01*
X146628938Y-79729184D01*
X146766954Y-79715195D01*
X146964178Y-79722196D01*
X147198515Y-79747553D01*
X147447867Y-79788636D01*
X147690139Y-79842810D01*
X147772997Y-79865482D01*
X148016217Y-79944242D01*
X148235326Y-80035956D01*
X148440527Y-80148664D01*
X148642024Y-80290407D01*
X148850021Y-80469224D01*
X149074721Y-80693155D01*
X149326330Y-80970240D01*
X149615050Y-81308518D01*
X149635428Y-81332917D01*
X149792834Y-81519767D01*
X149932140Y-81681710D01*
X150044195Y-81808384D01*
X150119850Y-81889428D01*
X150149292Y-81914790D01*
X150197888Y-81890309D01*
X150280177Y-81830546D01*
X150293838Y-81819540D01*
X150410175Y-81724500D01*
X150304108Y-81343500D01*
X150203132Y-80939466D01*
X150126536Y-80532514D01*
X150069908Y-80095037D01*
X150031195Y-79635016D01*
X150012520Y-79384387D01*
X149993727Y-79202953D01*
X149972094Y-79075284D01*
X149944899Y-78985947D01*
X149909417Y-78919512D01*
X149903416Y-78910854D01*
X149766134Y-78661075D01*
X149661735Y-78355293D01*
X149594497Y-78017193D01*
X149568697Y-77670461D01*
X149588611Y-77338780D01*
X149603406Y-77249523D01*
X149672657Y-76993189D01*
X149777046Y-76732877D01*
X149904057Y-76493804D01*
X150041170Y-76301184D01*
X150109316Y-76230435D01*
X150240614Y-76131269D01*
X150349786Y-76103869D01*
X150456456Y-76149803D01*
X150577814Y-76267857D01*
X150703091Y-76410541D01*
X151032962Y-76172046D01*
X151536335Y-75851947D01*
X152046175Y-75615506D01*
X152565124Y-75461799D01*
X153095824Y-75389903D01*
X153289000Y-75383876D01*
X153674448Y-75396676D01*
G36*
X-1142824Y2182621D02*
G01*
X-1110520Y2091721D01*
X-1070409Y1932612D01*
X-1061646Y1892594D01*
X-979491Y1650019D01*
X-838918Y1393809D01*
X-825815Y1374011D01*
X-728010Y1221154D01*
X-682016Y1132182D01*
X-687769Y1107943D01*
X-745203Y1149281D01*
X-836194Y1238250D01*
X-999542Y1464262D01*
X-1112439Y1746281D01*
X-1162762Y2010833D01*
X-1171959Y2145702D01*
X-1164309Y2201790D01*
X-1142824Y2182621D01*
X-1142824Y2182621D01*
G37*
X-1142824Y2182621D02*
X-1110520Y2091721D01*
X-1070409Y1932612D01*
X-1061646Y1892594D01*
X-979491Y1650019D01*
X-838918Y1393809D01*
X-825815Y1374011D01*
X-728010Y1221154D01*
X-682016Y1132182D01*
X-687769Y1107943D01*
X-745203Y1149281D01*
X-836194Y1238250D01*
X-999542Y1464262D01*
X-1112439Y1746281D01*
X-1162762Y2010833D01*
X-1171959Y2145702D01*
X-1164309Y2201790D01*
X-1142824Y2182621D01*
G36*
X2571661Y-525550D02*
G01*
X2552410Y-554635D01*
X2475510Y-598446D01*
X2442026Y-613277D01*
X2317542Y-660853D01*
X2261260Y-673043D01*
X2276612Y-651392D01*
X2367031Y-597444D01*
X2385245Y-587735D01*
X2489149Y-540427D01*
X2559229Y-522358D01*
X2571661Y-525550D01*
X2571661Y-525550D01*
G37*
X2571661Y-525550D02*
X2552410Y-554635D01*
X2475510Y-598446D01*
X2442026Y-613277D01*
X2317542Y-660853D01*
X2261260Y-673043D01*
X2276612Y-651392D01*
X2367031Y-597444D01*
X2385245Y-587735D01*
X2489149Y-540427D01*
X2559229Y-522358D01*
X2571661Y-525550D01*
G36*
X3666563Y-646152D02*
G01*
X3725333Y-677333D01*
X3765004Y-710210D01*
X3726875Y-718875D01*
X3717248Y-719018D01*
X3640705Y-697447D01*
X3619500Y-677333D01*
X3616084Y-639937D01*
X3666563Y-646152D01*
X3666563Y-646152D01*
G37*
X3666563Y-646152D02*
X3725333Y-677333D01*
X3765004Y-710210D01*
X3726875Y-718875D01*
X3717248Y-719018D01*
X3640705Y-697447D01*
X3619500Y-677333D01*
X3616084Y-639937D01*
X3666563Y-646152D01*
G36*
X2544448Y3978324D02*
G01*
X2879973Y3931786D01*
X3195840Y3844939D01*
X3522317Y3711213D01*
X3584550Y3681655D01*
X3721296Y3608128D01*
X3881484Y3510611D01*
X4051253Y3399055D01*
X4216742Y3283412D01*
X4364090Y3173634D01*
X4479436Y3079671D01*
X4548921Y3011476D01*
X4561023Y2980579D01*
X4515488Y2985849D01*
X4418583Y3019158D01*
X4342190Y3051024D01*
X4225704Y3097799D01*
X4144535Y3121525D01*
X4122875Y3120986D01*
X4137804Y3081514D01*
X4195266Y2997005D01*
X4274312Y2896275D01*
X4389393Y2739665D01*
X4512131Y2544910D01*
X4626877Y2339666D01*
X4717983Y2151588D01*
X4763352Y2032000D01*
X4770805Y1986289D01*
X4747145Y1985312D01*
X4682970Y2034237D01*
X4568882Y2138233D01*
X4567110Y2139893D01*
X4446404Y2243247D01*
X4302977Y2351549D01*
X4153608Y2454005D01*
X4015079Y2539818D01*
X3904170Y2598193D01*
X3837662Y2618334D01*
X3828581Y2615026D01*
X3833150Y2565731D01*
X3873249Y2462197D01*
X3939428Y2321917D01*
X4022242Y2162384D01*
X4112243Y2001093D01*
X4199983Y1855537D01*
X4276016Y1743209D01*
X4330894Y1681603D01*
X4333740Y1679615D01*
X4412611Y1604390D01*
X4445000Y1527272D01*
X4477542Y1453780D01*
X4563886Y1349238D01*
X4687114Y1229146D01*
X4830303Y1109001D01*
X4976534Y1004303D01*
X5083373Y942558D01*
X5232981Y879931D01*
X5384061Y834080D01*
X5428735Y825195D01*
X5573674Y776028D01*
X5645990Y683571D01*
X5646771Y546019D01*
X5631126Y489234D01*
X5572193Y385643D01*
X5455156Y241828D01*
X5290228Y67575D01*
X5087625Y-127330D01*
X4857562Y-333103D01*
X4610253Y-539959D01*
X4355913Y-738113D01*
X4328583Y-758485D01*
X4156813Y-888420D01*
X4012587Y-1002257D01*
X3908217Y-1089911D01*
X3856014Y-1141298D01*
X3852333Y-1148592D01*
X3890527Y-1169347D01*
X3988629Y-1183259D01*
X4074583Y-1186640D01*
X4418798Y-1202504D01*
X4720139Y-1243822D01*
X4971887Y-1307597D01*
X5167322Y-1390832D01*
X5299723Y-1490528D01*
X5362371Y-1603689D01*
X5348544Y-1727317D01*
X5337642Y-1750027D01*
X5297646Y-1810115D01*
X5240080Y-1863610D01*
X5154422Y-1914985D01*
X5030148Y-1968714D01*
X4856735Y-2029270D01*
X4623658Y-2101126D01*
X4320395Y-2188754D01*
X4275667Y-2201425D01*
X4030420Y-2271274D01*
X3813236Y-2334058D01*
X3637254Y-2385902D01*
X3515613Y-2422934D01*
X3461449Y-2441280D01*
X3460529Y-2441761D01*
X3469445Y-2478430D01*
X3527664Y-2551039D01*
X3576946Y-2600550D01*
X3668174Y-2705924D01*
X3720068Y-2804383D01*
X3725333Y-2834982D01*
X3690150Y-2940949D01*
X3601512Y-3054237D01*
X3484787Y-3151257D01*
X3365343Y-3208420D01*
X3316816Y-3214844D01*
X3237511Y-3209534D01*
X3234138Y-3191048D01*
X3275921Y-3161927D01*
X3462982Y-3027629D01*
X3567831Y-2910125D01*
X3590193Y-2804877D01*
X3529790Y-2707346D01*
X3386347Y-2612996D01*
X3238500Y-2547252D01*
X3026833Y-2463274D01*
X3153833Y-2412936D01*
X3233430Y-2385886D01*
X3379547Y-2340498D01*
X3577175Y-2281266D01*
X3811304Y-2212685D01*
X4066925Y-2139250D01*
X4085167Y-2134063D01*
X4423243Y-2036699D01*
X4688157Y-1956876D01*
X4888768Y-1891122D01*
X5033931Y-1835969D01*
X5132505Y-1787947D01*
X5193345Y-1743587D01*
X5225310Y-1699417D01*
X5230716Y-1685300D01*
X5224242Y-1582901D01*
X5136016Y-1496138D01*
X4967599Y-1425573D01*
X4720555Y-1371767D01*
X4396445Y-1335282D01*
X4227733Y-1324756D01*
X3735299Y-1300334D01*
X3563579Y-1438332D01*
X3438121Y-1565555D01*
X3340438Y-1711525D01*
X3322207Y-1751248D01*
X3267543Y-1864387D01*
X3179469Y-2020903D01*
X3073000Y-2194722D01*
X3018948Y-2277883D01*
X2912826Y-2440857D01*
X2849336Y-2550000D01*
X2822247Y-2620625D01*
X2825329Y-2668045D01*
X2846736Y-2701216D01*
X2931605Y-2845941D01*
X2938000Y-3002437D01*
X2918868Y-3075628D01*
X2859587Y-3186428D01*
X2790717Y-3217333D01*
X2720736Y-3194292D01*
X2717453Y-3143614D01*
X2751667Y-3111500D01*
X2781977Y-3054366D01*
X2794000Y-2958866D01*
X2769247Y-2847821D01*
X2681483Y-2767915D01*
X2673120Y-2763020D01*
X2552241Y-2693645D01*
X2782822Y-2373406D01*
X2915904Y-2181547D01*
X3028035Y-2006439D01*
X3111760Y-1860999D01*
X3159623Y-1758148D01*
X3164846Y-1711402D01*
X3119821Y-1716109D01*
X3021446Y-1745442D01*
X2939643Y-1774801D01*
X2779206Y-1827158D01*
X2585828Y-1878467D01*
X2455333Y-1906867D01*
X2276468Y-1945472D01*
X2163523Y-1986249D01*
X2098368Y-2041597D01*
X2062877Y-2123918D01*
X2049575Y-2184420D01*
X2021914Y-2280414D01*
X1989435Y-2327391D01*
X1984955Y-2328333D01*
X1949102Y-2359080D01*
X1958475Y-2437567D01*
X2008359Y-2543159D01*
X2046892Y-2599504D01*
X2199192Y-2836479D01*
X2323456Y-3098822D01*
X2328224Y-3111213D01*
X2348528Y-3188765D01*
X2320531Y-3215064D01*
X2295535Y-3216335D01*
X2230197Y-3175848D01*
X2153550Y-3062238D01*
X2119366Y-2994085D01*
X2061419Y-2872850D01*
X2028915Y-2821003D01*
X2012228Y-2830871D01*
X2001732Y-2894781D01*
X2001129Y-2899833D01*
X1976987Y-3048149D01*
X1948836Y-3117043D01*
X1916118Y-3105566D01*
X1878279Y-3012769D01*
X1834762Y-2837700D01*
X1785011Y-2579411D01*
X1772932Y-2509906D01*
X1738472Y-2314473D01*
X1707617Y-2150467D01*
X1683800Y-2035435D01*
X1670673Y-1987249D01*
X1629107Y-1968500D01*
X1947333Y-1968500D01*
X1968500Y-1989667D01*
X1989667Y-1968500D01*
X1968500Y-1947333D01*
X1947333Y-1968500D01*
X1629107Y-1968500D01*
X1621746Y-1965180D01*
X1517458Y-1941537D01*
X1450867Y-1931060D01*
X1293421Y-1905386D01*
X1219259Y-1882938D01*
X1227038Y-1864303D01*
X1315416Y-1850064D01*
X1483050Y-1840809D01*
X1665630Y-1837442D01*
X2129039Y-1810309D01*
X2560244Y-1738664D01*
X2946760Y-1625890D01*
X3276101Y-1475372D01*
X3465722Y-1349530D01*
X3529838Y-1292324D01*
X3528997Y-1260901D01*
X3494880Y-1243889D01*
X3415050Y-1233544D01*
X3285076Y-1235884D01*
X3183561Y-1244856D01*
X3050743Y-1257605D01*
X2988861Y-1254151D01*
X2985429Y-1232751D01*
X2997542Y-1218858D01*
X3068011Y-1188897D01*
X3202586Y-1164612D01*
X3380727Y-1149687D01*
X3384158Y-1149528D01*
X3716539Y-1134434D01*
X3826769Y-931905D01*
X3890205Y-793038D01*
X3929978Y-663024D01*
X3936849Y-608104D01*
X3926146Y-533101D01*
X3881972Y-475394D01*
X3785892Y-416147D01*
X3714599Y-381000D01*
X3492500Y-275167D01*
X3487488Y-148160D01*
X3618195Y-148160D01*
X3671362Y-208785D01*
X3799259Y-276980D01*
X3850718Y-299675D01*
X3998945Y-380915D01*
X4074371Y-476051D01*
X4088614Y-605474D01*
X4075474Y-694211D01*
X4049250Y-825500D01*
X4215375Y-700773D01*
X4338999Y-606339D01*
X4491692Y-487497D01*
X4614333Y-390662D01*
X4843007Y-199304D01*
X5052153Y-6747D01*
X5234000Y178088D01*
X5380778Y346279D01*
X5484713Y488903D01*
X5538034Y597039D01*
X5532971Y661764D01*
X5531954Y662824D01*
X5481293Y663457D01*
X5381832Y636251D01*
X5325756Y615474D01*
X5194920Y573497D01*
X5015684Y529182D01*
X4823597Y491176D01*
X4795440Y486484D01*
X4468046Y402973D01*
X4135627Y264586D01*
X3834058Y87572D01*
X3714709Y-3070D01*
X3634423Y-83468D01*
X3618195Y-148160D01*
X3487488Y-148160D01*
X3477287Y110311D01*
X3598333Y110311D01*
X3630265Y112708D01*
X3712021Y152005D01*
X3778250Y190628D01*
X3932255Y280887D01*
X4095684Y370155D01*
X4138083Y391963D01*
X4243563Y450560D01*
X4308302Y497114D01*
X4318000Y511286D01*
X4280878Y544981D01*
X4190293Y575227D01*
X4077417Y596235D01*
X3973422Y602218D01*
X3909478Y587390D01*
X3909222Y587180D01*
X3858917Y529652D01*
X3787053Y430237D01*
X3709743Y313652D01*
X3643101Y204611D01*
X3603240Y127832D01*
X3598333Y110311D01*
X3477287Y110311D01*
X3471333Y261159D01*
X3461758Y465247D01*
X3455469Y564021D01*
X3599742Y564021D01*
X3601150Y402167D01*
X3685800Y503825D01*
X3740819Y588820D01*
X3755110Y651547D01*
X3754967Y651992D01*
X3704835Y699804D01*
X3668908Y712188D01*
X3621941Y703924D01*
X3602115Y642339D01*
X3599742Y564021D01*
X3455469Y564021D01*
X3450836Y636785D01*
X3439838Y759081D01*
X3430034Y815444D01*
X3429000Y816983D01*
X3382401Y845179D01*
X3283754Y897947D01*
X3187484Y947157D01*
X3054291Y1018029D01*
X2877327Y1117586D01*
X2684733Y1229825D01*
X2579280Y1293018D01*
X2420438Y1387636D01*
X2290871Y1461600D01*
X2205847Y1506400D01*
X2180158Y1515518D01*
X2189460Y1473234D01*
X2224220Y1372433D01*
X2277521Y1232830D01*
X2292510Y1195230D01*
X2364486Y996821D01*
X2423507Y797647D01*
X2465245Y616893D01*
X2485375Y473742D01*
X2479571Y387379D01*
X2476228Y380561D01*
X2488680Y346910D01*
X2532210Y338667D01*
X2632965Y330387D01*
X2746375Y312208D01*
X2830533Y299888D01*
X2868314Y321981D01*
X2878295Y398945D01*
X2878667Y457877D01*
X2888233Y572375D01*
X2912083Y646733D01*
X2921079Y656216D01*
X2965233Y644327D01*
X3005253Y566725D01*
X3034881Y442337D01*
X3047858Y290090D01*
X3048000Y272411D01*
X3044173Y156361D01*
X3022261Y101806D01*
X2966611Y85610D01*
X2921000Y84667D01*
X2848096Y80677D01*
X2810334Y54739D01*
X2796155Y-14105D01*
X2794000Y-145573D01*
X2794000Y-375812D01*
X2614083Y-397986D01*
X2456241Y-417402D01*
X2277838Y-439298D01*
X2222500Y-446079D01*
X2091468Y-468170D01*
X1907114Y-507047D01*
X1697603Y-556510D01*
X1555750Y-592864D01*
X1374148Y-638312D01*
X1226979Y-669844D01*
X1130565Y-684322D01*
X1100667Y-680417D01*
X1138179Y-653944D01*
X1239527Y-608637D01*
X1387925Y-551520D01*
X1517341Y-506057D01*
X1934016Y-365009D01*
X1909223Y-317500D01*
X2032000Y-317500D01*
X2053167Y-338667D01*
X2074333Y-317500D01*
X2053167Y-296333D01*
X2032000Y-317500D01*
X1909223Y-317500D01*
X1877435Y-256588D01*
X1844004Y-150086D01*
X1836971Y-99580D01*
X2462558Y-99580D01*
X2471623Y-158285D01*
X2525086Y-162108D01*
X2597977Y-112681D01*
X2617441Y-69753D01*
X2608377Y-11048D01*
X2554914Y-7225D01*
X2482023Y-56652D01*
X2462558Y-99580D01*
X1836971Y-99580D01*
X1823556Y-3244D01*
X1820594Y71231D01*
X1820548Y168781D01*
X1819016Y180653D01*
X2074333Y180653D01*
X2106129Y70104D01*
X2185541Y12214D01*
X2288607Y14420D01*
X2390024Y82668D01*
X2436883Y142339D01*
X2420299Y171751D01*
X2343668Y192436D01*
X2227687Y219570D01*
X2148417Y239621D01*
X2087296Y231152D01*
X2074333Y180653D01*
X1819016Y180653D01*
X1811779Y236710D01*
X1780933Y283383D01*
X1714655Y317161D01*
X1599590Y346410D01*
X1422384Y379491D01*
X1291167Y402784D01*
X1113292Y435425D01*
X961420Y464872D01*
X859129Y486490D01*
X836083Y492274D01*
X788104Y492459D01*
X766531Y443434D01*
X762000Y344372D01*
X758354Y249462D01*
X735628Y190476D01*
X676141Y153924D01*
X562211Y126313D01*
X450638Y106778D01*
X340480Y101204D01*
X300457Y125397D01*
X327552Y166492D01*
X418749Y211625D01*
X479465Y229716D01*
X589094Y268116D01*
X631538Y305392D01*
X602113Y331818D01*
X531922Y338667D01*
X412535Y354206D01*
X313362Y382573D01*
X238803Y427161D01*
X238319Y467843D01*
X301435Y496267D01*
X417676Y504081D01*
X461996Y501095D01*
X585440Y495959D01*
X627183Y512558D01*
X587459Y551872D01*
X486833Y605308D01*
X386710Y666094D01*
X340369Y720818D01*
X355779Y755941D01*
X394625Y762000D01*
X466527Y749304D01*
X582742Y717269D01*
X638042Y699634D01*
X735229Y673593D01*
X891087Y639007D01*
X1089983Y598667D01*
X1316287Y555359D01*
X1554366Y511872D01*
X1788588Y470994D01*
X2003320Y435514D01*
X2182932Y408220D01*
X2311791Y391900D01*
X2374265Y389342D01*
X2375613Y389705D01*
X2359538Y422298D01*
X2291549Y505757D01*
X2179680Y631158D01*
X2031967Y789580D01*
X1856444Y972101D01*
X1790247Y1039703D01*
X1549470Y1281012D01*
X1354450Y1467889D01*
X1194837Y1609315D01*
X1060285Y1714268D01*
X940444Y1791726D01*
X894571Y1816885D01*
X625598Y1939150D01*
X361613Y2026155D01*
X128170Y2070072D01*
X55728Y2073831D01*
X-40691Y2062908D01*
X-82958Y2014158D01*
X-94367Y1957917D01*
X-106247Y1907406D01*
X-124794Y1917683D01*
X-155278Y1996651D01*
X-186079Y2095500D01*
X-271304Y2341696D01*
X-374446Y2582211D01*
X-485512Y2797505D01*
X-488124Y2801593D01*
X-306010Y2801593D01*
X-299534Y2715979D01*
X-262541Y2605381D01*
X-233666Y2532604D01*
X-124888Y2260881D01*
X240647Y2191872D01*
X520568Y2128257D01*
X765990Y2045231D01*
X993116Y1933158D01*
X1218151Y1782402D01*
X1457299Y1583325D01*
X1726764Y1326293D01*
X1771398Y1281541D01*
X1962989Y1092070D01*
X2111134Y953263D01*
X2212055Y868389D01*
X2261976Y840720D01*
X2265667Y853695D01*
X2237013Y927894D01*
X2178859Y1060265D01*
X2099235Y1233086D01*
X2006170Y1428633D01*
X1990737Y1460500D01*
X1900824Y1648335D01*
X1827422Y1806750D01*
X1777002Y1921386D01*
X1756035Y1977881D01*
X1756098Y1981186D01*
X1793899Y1964614D01*
X1886290Y1909806D01*
X2017871Y1826172D01*
X2122297Y1757357D01*
X2451853Y1550987D01*
X2814195Y1347712D01*
X3191214Y1156042D01*
X3564804Y984487D01*
X3916857Y841557D01*
X4229265Y735762D01*
X4381500Y695601D01*
X4548060Y669622D01*
X4731464Y659349D01*
X4904010Y664439D01*
X5037998Y684547D01*
X5089530Y704390D01*
X5074663Y735867D01*
X5002478Y798515D01*
X4888002Y879516D01*
X4871990Y889956D01*
X4562657Y1124870D01*
X4293344Y1407654D01*
X4054556Y1750099D01*
X3836800Y2163997D01*
X3824156Y2191450D01*
X3704189Y2458064D01*
X3619847Y2656491D01*
X3568537Y2794091D01*
X3547662Y2878225D01*
X3554628Y2916255D01*
X3567201Y2920293D01*
X3625382Y2900943D01*
X3738314Y2849593D01*
X3886705Y2775305D01*
X3974831Y2728819D01*
X4129169Y2648401D01*
X4253285Y2588328D01*
X4330172Y2556589D01*
X4346421Y2554310D01*
X4332656Y2595408D01*
X4268814Y2676900D01*
X4169285Y2784292D01*
X4048456Y2903091D01*
X3920717Y3018804D01*
X3800456Y3116935D01*
X3755576Y3149464D01*
X3558254Y3261815D01*
X3323712Y3348337D01*
X3034391Y3414578D01*
X2804583Y3449924D01*
X2680571Y3473916D01*
X2599895Y3504132D01*
X2582333Y3523719D01*
X2621144Y3538606D01*
X2724133Y3546671D01*
X2871138Y3548504D01*
X3041996Y3544690D01*
X3216544Y3535819D01*
X3374619Y3522478D01*
X3496058Y3505253D01*
X3534833Y3495957D01*
X3549801Y3497102D01*
X3499183Y3527132D01*
X3429000Y3562416D01*
X3074646Y3698190D01*
X2679625Y3779728D01*
X2230307Y3809730D01*
X2179218Y3810000D01*
X1674593Y3776958D01*
X1193452Y3675061D01*
X722361Y3500154D01*
X247888Y3248084D01*
X135623Y3177958D01*
X-61153Y3050405D01*
X-194938Y2954618D01*
X-273851Y2876410D01*
X-306010Y2801593D01*
X-488124Y2801593D01*
X-594513Y2968036D01*
X-683061Y3067490D01*
X-816525Y3179793D01*
X-953257Y3047266D01*
X-1091624Y2876329D01*
X-1222235Y2648159D01*
X-1330827Y2389941D01*
X-1377839Y2238103D01*
X-1419675Y1998932D01*
X-1436154Y1715571D01*
X-1427325Y1424595D01*
X-1393236Y1162578D01*
X-1376295Y1088102D01*
X-1329202Y938953D01*
X-1263226Y769452D01*
X-1188312Y601037D01*
X-1114406Y455147D01*
X-1051455Y353219D01*
X-1019919Y319922D01*
X-987547Y274511D01*
X-926827Y167332D01*
X-845684Y13124D01*
X-752040Y-173377D01*
X-725147Y-228372D01*
X-524501Y-597876D01*
X-313089Y-906578D01*
X-95787Y-1149589D01*
X122531Y-1322020D01*
X336987Y-1418982D01*
X482560Y-1439333D01*
X571884Y-1453247D01*
X587411Y-1491273D01*
X534636Y-1547840D01*
X419054Y-1617378D01*
X246162Y-1694315D01*
X221643Y-1703850D01*
X83453Y-1756833D01*
X234832Y-1968500D01*
X330757Y-2115397D01*
X438992Y-2300280D01*
X536719Y-2484103D01*
X540082Y-2490871D01*
X617680Y-2657367D01*
X665981Y-2795881D01*
X693426Y-2940801D01*
X708458Y-3126519D01*
X711540Y-3189371D01*
X729127Y-3577167D01*
X507009Y-3285734D01*
X390525Y-3138562D01*
X311674Y-3062336D01*
X261076Y-3060118D01*
X229353Y-3134967D01*
X207126Y-3289945D01*
X197721Y-3386667D01*
X175833Y-3557673D01*
X142280Y-3744226D01*
X102229Y-3924210D01*
X60844Y-4075509D01*
X23293Y-4176009D01*
X7699Y-4200168D01*
X-16679Y-4177114D01*
X-54955Y-4089146D01*
X-100072Y-3953383D01*
X-114466Y-3903835D01*
X-197672Y-3628032D01*
X-271126Y-3429473D01*
X-337757Y-3301687D01*
X-400495Y-3238206D01*
X-419341Y-3230643D01*
X-474818Y-3187146D01*
X-475409Y-3108260D01*
X-478477Y-3024434D01*
X-513648Y-3005657D01*
X-608870Y-2973379D01*
X-747425Y-2881651D01*
X-920980Y-2738100D01*
X-1121202Y-2550350D01*
X-1339758Y-2326026D01*
X-1568314Y-2072754D01*
X-1693351Y-1926167D01*
X-1888160Y-1695820D01*
X-2038791Y-1524628D01*
X-2152978Y-1404859D01*
X-2238455Y-1328784D01*
X-2302957Y-1288673D01*
X-2342364Y-1277524D01*
X-2451408Y-1284445D01*
X-2521393Y-1314458D01*
X-2579574Y-1413937D01*
X-2564505Y-1554111D01*
X-2476641Y-1734007D01*
X-2316436Y-1952652D01*
X-2122440Y-2169583D01*
X-1999574Y-2302119D01*
X-1907562Y-2409000D01*
X-1856483Y-2477976D01*
X-1852427Y-2497667D01*
X-1914172Y-2481292D01*
X-2021168Y-2439793D01*
X-2080294Y-2413930D01*
X-2217727Y-2362491D01*
X-2344545Y-2332403D01*
X-2381250Y-2329263D01*
X-2471874Y-2354934D01*
X-2505501Y-2426672D01*
X-2487850Y-2533664D01*
X-2424640Y-2665099D01*
X-2321588Y-2810162D01*
X-2184413Y-2958043D01*
X-2018834Y-3097928D01*
X-1948497Y-3147513D01*
X-1843828Y-3217333D01*
X-1988435Y-3217333D01*
X-2078488Y-3205944D01*
X-2164663Y-3162841D01*
X-2268641Y-3074624D01*
X-2347993Y-2995083D01*
X-2510543Y-2798334D01*
X-2610247Y-2613997D01*
X-2645754Y-2450656D01*
X-2615716Y-2316893D01*
X-2518781Y-2221291D01*
X-2473025Y-2200012D01*
X-2368865Y-2160410D01*
X-2522971Y-1928311D01*
X-2642364Y-1707678D01*
X-2698450Y-1506560D01*
X-2698612Y-1505142D01*
X-2705640Y-1378435D01*
X-2680896Y-1294095D01*
X-2610212Y-1211670D01*
X-2588646Y-1191229D01*
X-2457142Y-1068387D01*
X-2615934Y-963304D01*
X-3041687Y-727641D01*
X-3485545Y-573774D01*
X-3954341Y-499585D01*
X-4137329Y-491882D01*
X-4332406Y-491909D01*
X-4459708Y-499501D01*
X-4535970Y-517105D01*
X-4577929Y-547168D01*
X-4585311Y-557368D01*
X-4605219Y-604821D01*
X-4596431Y-652743D01*
X-4550930Y-707078D01*
X-4460699Y-773773D01*
X-4317723Y-858772D01*
X-4113984Y-968020D01*
X-3848022Y-1104148D01*
X-3530430Y-1271263D01*
X-3269643Y-1422076D01*
X-3073875Y-1551630D01*
X-2976668Y-1629999D01*
X-2772833Y-1818232D01*
X-2984500Y-1753856D01*
X-3227952Y-1699361D01*
X-3505075Y-1669641D01*
X-3801609Y-1662914D01*
X-4103297Y-1677400D01*
X-4395879Y-1711315D01*
X-4665096Y-1762878D01*
X-4896690Y-1830308D01*
X-5076402Y-1911823D01*
X-5189973Y-2005641D01*
X-5206754Y-2031539D01*
X-5231827Y-2119283D01*
X-5201345Y-2193481D01*
X-5109781Y-2256509D01*
X-4951606Y-2310743D01*
X-4721291Y-2358561D01*
X-4413310Y-2402338D01*
X-4318000Y-2413559D01*
X-4067364Y-2446960D01*
X-3805804Y-2490288D01*
X-3546635Y-2540383D01*
X-3303170Y-2594087D01*
X-3088723Y-2648239D01*
X-2916608Y-2699680D01*
X-2800139Y-2745252D01*
X-2752630Y-2781794D01*
X-2752186Y-2785117D01*
X-2787663Y-2816411D01*
X-2880961Y-2873698D01*
X-3013158Y-2947210D01*
X-3165331Y-3027178D01*
X-3318560Y-3103832D01*
X-3453921Y-3167403D01*
X-3552493Y-3208121D01*
X-3590249Y-3217803D01*
X-3628714Y-3202365D01*
X-3596044Y-3156153D01*
X-3490359Y-3077454D01*
X-3317898Y-2969408D01*
X-3191449Y-2888696D01*
X-3105105Y-2823775D01*
X-3073910Y-2786264D01*
X-3076146Y-2782718D01*
X-3153812Y-2754592D01*
X-3298434Y-2717660D01*
X-3493174Y-2675230D01*
X-3721191Y-2630608D01*
X-3965647Y-2587100D01*
X-4209702Y-2548012D01*
X-4421949Y-2518475D01*
X-4713649Y-2477761D01*
X-4932916Y-2437161D01*
X-5091907Y-2393200D01*
X-5202780Y-2342401D01*
X-5277692Y-2281287D01*
X-5286375Y-2271260D01*
X-5337297Y-2153187D01*
X-5333672Y-2017203D01*
X-5289207Y-1923203D01*
X-5154095Y-1814599D01*
X-4944885Y-1718931D01*
X-4671530Y-1638929D01*
X-4343982Y-1577323D01*
X-3972193Y-1536841D01*
X-3852333Y-1529159D01*
X-3365500Y-1502833D01*
X-3958167Y-1192150D01*
X-4169390Y-1079038D01*
X-4360183Y-972444D01*
X-4514926Y-881427D01*
X-4618002Y-815043D01*
X-4646083Y-793187D01*
X-4726774Y-673574D01*
X-4731538Y-550324D01*
X-4666313Y-441409D01*
X-4537034Y-364799D01*
X-4501062Y-354184D01*
X-4363046Y-340195D01*
X-4165822Y-347196D01*
X-3931485Y-372553D01*
X-3682133Y-413636D01*
X-3439861Y-467810D01*
X-3357003Y-490482D01*
X-3113783Y-569242D01*
X-2894674Y-660956D01*
X-2689473Y-773664D01*
X-2487976Y-915407D01*
X-2279979Y-1094224D01*
X-2055279Y-1318155D01*
X-1803670Y-1595240D01*
X-1514950Y-1933518D01*
X-1494572Y-1957917D01*
X-1337166Y-2144767D01*
X-1197860Y-2306710D01*
X-1085805Y-2433384D01*
X-1010150Y-2514428D01*
X-980708Y-2539790D01*
X-932112Y-2515309D01*
X-849823Y-2455546D01*
X-836162Y-2444540D01*
X-719825Y-2349500D01*
X-825892Y-1968500D01*
X-926868Y-1564466D01*
X-1003464Y-1157514D01*
X-1060092Y-720037D01*
X-1098805Y-260016D01*
X-1117480Y-9387D01*
X-1136273Y172047D01*
X-1157906Y299716D01*
X-1185101Y389053D01*
X-1220583Y455488D01*
X-1226584Y464146D01*
X-1363866Y713925D01*
X-1468265Y1019707D01*
X-1535503Y1357807D01*
X-1561303Y1704539D01*
X-1541389Y2036220D01*
X-1526594Y2125477D01*
X-1457343Y2381811D01*
X-1352954Y2642123D01*
X-1225943Y2881196D01*
X-1088830Y3073816D01*
X-1020684Y3144565D01*
X-889386Y3243731D01*
X-780214Y3271131D01*
X-673544Y3225197D01*
X-552186Y3107143D01*
X-426909Y2964459D01*
X-97038Y3202954D01*
X406335Y3523053D01*
X916175Y3759494D01*
X1435124Y3913201D01*
X1965824Y3985097D01*
X2159000Y3991124D01*
X2544448Y3978324D01*
X2544448Y3978324D01*
G37*
X2544448Y3978324D02*
X2879973Y3931786D01*
X3195840Y3844939D01*
X3522317Y3711213D01*
X3584550Y3681655D01*
X3721296Y3608128D01*
X3881484Y3510611D01*
X4051253Y3399055D01*
X4216742Y3283412D01*
X4364090Y3173634D01*
X4479436Y3079671D01*
X4548921Y3011476D01*
X4561023Y2980579D01*
X4515488Y2985849D01*
X4418583Y3019158D01*
X4342190Y3051024D01*
X4225704Y3097799D01*
X4144535Y3121525D01*
X4122875Y3120986D01*
X4137804Y3081514D01*
X4195266Y2997005D01*
X4274312Y2896275D01*
X4389393Y2739665D01*
X4512131Y2544910D01*
X4626877Y2339666D01*
X4717983Y2151588D01*
X4763352Y2032000D01*
X4770805Y1986289D01*
X4747145Y1985312D01*
X4682970Y2034237D01*
X4568882Y2138233D01*
X4567110Y2139893D01*
X4446404Y2243247D01*
X4302977Y2351549D01*
X4153608Y2454005D01*
X4015079Y2539818D01*
X3904170Y2598193D01*
X3837662Y2618334D01*
X3828581Y2615026D01*
X3833150Y2565731D01*
X3873249Y2462197D01*
X3939428Y2321917D01*
X4022242Y2162384D01*
X4112243Y2001093D01*
X4199983Y1855537D01*
X4276016Y1743209D01*
X4330894Y1681603D01*
X4333740Y1679615D01*
X4412611Y1604390D01*
X4445000Y1527272D01*
X4477542Y1453780D01*
X4563886Y1349238D01*
X4687114Y1229146D01*
X4830303Y1109001D01*
X4976534Y1004303D01*
X5083373Y942558D01*
X5232981Y879931D01*
X5384061Y834080D01*
X5428735Y825195D01*
X5573674Y776028D01*
X5645990Y683571D01*
X5646771Y546019D01*
X5631126Y489234D01*
X5572193Y385643D01*
X5455156Y241828D01*
X5290228Y67575D01*
X5087625Y-127330D01*
X4857562Y-333103D01*
X4610253Y-539959D01*
X4355913Y-738113D01*
X4328583Y-758485D01*
X4156813Y-888420D01*
X4012587Y-1002257D01*
X3908217Y-1089911D01*
X3856014Y-1141298D01*
X3852333Y-1148592D01*
X3890527Y-1169347D01*
X3988629Y-1183259D01*
X4074583Y-1186640D01*
X4418798Y-1202504D01*
X4720139Y-1243822D01*
X4971887Y-1307597D01*
X5167322Y-1390832D01*
X5299723Y-1490528D01*
X5362371Y-1603689D01*
X5348544Y-1727317D01*
X5337642Y-1750027D01*
X5297646Y-1810115D01*
X5240080Y-1863610D01*
X5154422Y-1914985D01*
X5030148Y-1968714D01*
X4856735Y-2029270D01*
X4623658Y-2101126D01*
X4320395Y-2188754D01*
X4275667Y-2201425D01*
X4030420Y-2271274D01*
X3813236Y-2334058D01*
X3637254Y-2385902D01*
X3515613Y-2422934D01*
X3461449Y-2441280D01*
X3460529Y-2441761D01*
X3469445Y-2478430D01*
X3527664Y-2551039D01*
X3576946Y-2600550D01*
X3668174Y-2705924D01*
X3720068Y-2804383D01*
X3725333Y-2834982D01*
X3690150Y-2940949D01*
X3601512Y-3054237D01*
X3484787Y-3151257D01*
X3365343Y-3208420D01*
X3316816Y-3214844D01*
X3237511Y-3209534D01*
X3234138Y-3191048D01*
X3275921Y-3161927D01*
X3462982Y-3027629D01*
X3567831Y-2910125D01*
X3590193Y-2804877D01*
X3529790Y-2707346D01*
X3386347Y-2612996D01*
X3238500Y-2547252D01*
X3026833Y-2463274D01*
X3153833Y-2412936D01*
X3233430Y-2385886D01*
X3379547Y-2340498D01*
X3577175Y-2281266D01*
X3811304Y-2212685D01*
X4066925Y-2139250D01*
X4085167Y-2134063D01*
X4423243Y-2036699D01*
X4688157Y-1956876D01*
X4888768Y-1891122D01*
X5033931Y-1835969D01*
X5132505Y-1787947D01*
X5193345Y-1743587D01*
X5225310Y-1699417D01*
X5230716Y-1685300D01*
X5224242Y-1582901D01*
X5136016Y-1496138D01*
X4967599Y-1425573D01*
X4720555Y-1371767D01*
X4396445Y-1335282D01*
X4227733Y-1324756D01*
X3735299Y-1300334D01*
X3563579Y-1438332D01*
X3438121Y-1565555D01*
X3340438Y-1711525D01*
X3322207Y-1751248D01*
X3267543Y-1864387D01*
X3179469Y-2020903D01*
X3073000Y-2194722D01*
X3018948Y-2277883D01*
X2912826Y-2440857D01*
X2849336Y-2550000D01*
X2822247Y-2620625D01*
X2825329Y-2668045D01*
X2846736Y-2701216D01*
X2931605Y-2845941D01*
X2938000Y-3002437D01*
X2918868Y-3075628D01*
X2859587Y-3186428D01*
X2790717Y-3217333D01*
X2720736Y-3194292D01*
X2717453Y-3143614D01*
X2751667Y-3111500D01*
X2781977Y-3054366D01*
X2794000Y-2958866D01*
X2769247Y-2847821D01*
X2681483Y-2767915D01*
X2673120Y-2763020D01*
X2552241Y-2693645D01*
X2782822Y-2373406D01*
X2915904Y-2181547D01*
X3028035Y-2006439D01*
X3111760Y-1860999D01*
X3159623Y-1758148D01*
X3164846Y-1711402D01*
X3119821Y-1716109D01*
X3021446Y-1745442D01*
X2939643Y-1774801D01*
X2779206Y-1827158D01*
X2585828Y-1878467D01*
X2455333Y-1906867D01*
X2276468Y-1945472D01*
X2163523Y-1986249D01*
X2098368Y-2041597D01*
X2062877Y-2123918D01*
X2049575Y-2184420D01*
X2021914Y-2280414D01*
X1989435Y-2327391D01*
X1984955Y-2328333D01*
X1949102Y-2359080D01*
X1958475Y-2437567D01*
X2008359Y-2543159D01*
X2046892Y-2599504D01*
X2199192Y-2836479D01*
X2323456Y-3098822D01*
X2328224Y-3111213D01*
X2348528Y-3188765D01*
X2320531Y-3215064D01*
X2295535Y-3216335D01*
X2230197Y-3175848D01*
X2153550Y-3062238D01*
X2119366Y-2994085D01*
X2061419Y-2872850D01*
X2028915Y-2821003D01*
X2012228Y-2830871D01*
X2001732Y-2894781D01*
X2001129Y-2899833D01*
X1976987Y-3048149D01*
X1948836Y-3117043D01*
X1916118Y-3105566D01*
X1878279Y-3012769D01*
X1834762Y-2837700D01*
X1785011Y-2579411D01*
X1772932Y-2509906D01*
X1738472Y-2314473D01*
X1707617Y-2150467D01*
X1683800Y-2035435D01*
X1670673Y-1987249D01*
X1629107Y-1968500D01*
X1947333Y-1968500D01*
X1968500Y-1989667D01*
X1989667Y-1968500D01*
X1968500Y-1947333D01*
X1947333Y-1968500D01*
X1629107Y-1968500D01*
X1621746Y-1965180D01*
X1517458Y-1941537D01*
X1450867Y-1931060D01*
X1293421Y-1905386D01*
X1219259Y-1882938D01*
X1227038Y-1864303D01*
X1315416Y-1850064D01*
X1483050Y-1840809D01*
X1665630Y-1837442D01*
X2129039Y-1810309D01*
X2560244Y-1738664D01*
X2946760Y-1625890D01*
X3276101Y-1475372D01*
X3465722Y-1349530D01*
X3529838Y-1292324D01*
X3528997Y-1260901D01*
X3494880Y-1243889D01*
X3415050Y-1233544D01*
X3285076Y-1235884D01*
X3183561Y-1244856D01*
X3050743Y-1257605D01*
X2988861Y-1254151D01*
X2985429Y-1232751D01*
X2997542Y-1218858D01*
X3068011Y-1188897D01*
X3202586Y-1164612D01*
X3380727Y-1149687D01*
X3384158Y-1149528D01*
X3716539Y-1134434D01*
X3826769Y-931905D01*
X3890205Y-793038D01*
X3929978Y-663024D01*
X3936849Y-608104D01*
X3926146Y-533101D01*
X3881972Y-475394D01*
X3785892Y-416147D01*
X3714599Y-381000D01*
X3492500Y-275167D01*
X3487488Y-148160D01*
X3618195Y-148160D01*
X3671362Y-208785D01*
X3799259Y-276980D01*
X3850718Y-299675D01*
X3998945Y-380915D01*
X4074371Y-476051D01*
X4088614Y-605474D01*
X4075474Y-694211D01*
X4049250Y-825500D01*
X4215375Y-700773D01*
X4338999Y-606339D01*
X4491692Y-487497D01*
X4614333Y-390662D01*
X4843007Y-199304D01*
X5052153Y-6747D01*
X5234000Y178088D01*
X5380778Y346279D01*
X5484713Y488903D01*
X5538034Y597039D01*
X5532971Y661764D01*
X5531954Y662824D01*
X5481293Y663457D01*
X5381832Y636251D01*
X5325756Y615474D01*
X5194920Y573497D01*
X5015684Y529182D01*
X4823597Y491176D01*
X4795440Y486484D01*
X4468046Y402973D01*
X4135627Y264586D01*
X3834058Y87572D01*
X3714709Y-3070D01*
X3634423Y-83468D01*
X3618195Y-148160D01*
X3487488Y-148160D01*
X3477287Y110311D01*
X3598333Y110311D01*
X3630265Y112708D01*
X3712021Y152005D01*
X3778250Y190628D01*
X3932255Y280887D01*
X4095684Y370155D01*
X4138083Y391963D01*
X4243563Y450560D01*
X4308302Y497114D01*
X4318000Y511286D01*
X4280878Y544981D01*
X4190293Y575227D01*
X4077417Y596235D01*
X3973422Y602218D01*
X3909478Y587390D01*
X3909222Y587180D01*
X3858917Y529652D01*
X3787053Y430237D01*
X3709743Y313652D01*
X3643101Y204611D01*
X3603240Y127832D01*
X3598333Y110311D01*
X3477287Y110311D01*
X3471333Y261159D01*
X3461758Y465247D01*
X3455469Y564021D01*
X3599742Y564021D01*
X3601150Y402167D01*
X3685800Y503825D01*
X3740819Y588820D01*
X3755110Y651547D01*
X3754967Y651992D01*
X3704835Y699804D01*
X3668908Y712188D01*
X3621941Y703924D01*
X3602115Y642339D01*
X3599742Y564021D01*
X3455469Y564021D01*
X3450836Y636785D01*
X3439838Y759081D01*
X3430034Y815444D01*
X3429000Y816983D01*
X3382401Y845179D01*
X3283754Y897947D01*
X3187484Y947157D01*
X3054291Y1018029D01*
X2877327Y1117586D01*
X2684733Y1229825D01*
X2579280Y1293018D01*
X2420438Y1387636D01*
X2290871Y1461600D01*
X2205847Y1506400D01*
X2180158Y1515518D01*
X2189460Y1473234D01*
X2224220Y1372433D01*
X2277521Y1232830D01*
X2292510Y1195230D01*
X2364486Y996821D01*
X2423507Y797647D01*
X2465245Y616893D01*
X2485375Y473742D01*
X2479571Y387379D01*
X2476228Y380561D01*
X2488680Y346910D01*
X2532210Y338667D01*
X2632965Y330387D01*
X2746375Y312208D01*
X2830533Y299888D01*
X2868314Y321981D01*
X2878295Y398945D01*
X2878667Y457877D01*
X2888233Y572375D01*
X2912083Y646733D01*
X2921079Y656216D01*
X2965233Y644327D01*
X3005253Y566725D01*
X3034881Y442337D01*
X3047858Y290090D01*
X3048000Y272411D01*
X3044173Y156361D01*
X3022261Y101806D01*
X2966611Y85610D01*
X2921000Y84667D01*
X2848096Y80677D01*
X2810334Y54739D01*
X2796155Y-14105D01*
X2794000Y-145573D01*
X2794000Y-375812D01*
X2614083Y-397986D01*
X2456241Y-417402D01*
X2277838Y-439298D01*
X2222500Y-446079D01*
X2091468Y-468170D01*
X1907114Y-507047D01*
X1697603Y-556510D01*
X1555750Y-592864D01*
X1374148Y-638312D01*
X1226979Y-669844D01*
X1130565Y-684322D01*
X1100667Y-680417D01*
X1138179Y-653944D01*
X1239527Y-608637D01*
X1387925Y-551520D01*
X1517341Y-506057D01*
X1934016Y-365009D01*
X1909223Y-317500D01*
X2032000Y-317500D01*
X2053167Y-338667D01*
X2074333Y-317500D01*
X2053167Y-296333D01*
X2032000Y-317500D01*
X1909223Y-317500D01*
X1877435Y-256588D01*
X1844004Y-150086D01*
X1836971Y-99580D01*
X2462558Y-99580D01*
X2471623Y-158285D01*
X2525086Y-162108D01*
X2597977Y-112681D01*
X2617441Y-69753D01*
X2608377Y-11048D01*
X2554914Y-7225D01*
X2482023Y-56652D01*
X2462558Y-99580D01*
X1836971Y-99580D01*
X1823556Y-3244D01*
X1820594Y71231D01*
X1820548Y168781D01*
X1819016Y180653D01*
X2074333Y180653D01*
X2106129Y70104D01*
X2185541Y12214D01*
X2288607Y14420D01*
X2390024Y82668D01*
X2436883Y142339D01*
X2420299Y171751D01*
X2343668Y192436D01*
X2227687Y219570D01*
X2148417Y239621D01*
X2087296Y231152D01*
X2074333Y180653D01*
X1819016Y180653D01*
X1811779Y236710D01*
X1780933Y283383D01*
X1714655Y317161D01*
X1599590Y346410D01*
X1422384Y379491D01*
X1291167Y402784D01*
X1113292Y435425D01*
X961420Y464872D01*
X859129Y486490D01*
X836083Y492274D01*
X788104Y492459D01*
X766531Y443434D01*
X762000Y344372D01*
X758354Y249462D01*
X735628Y190476D01*
X676141Y153924D01*
X562211Y126313D01*
X450638Y106778D01*
X340480Y101204D01*
X300457Y125397D01*
X327552Y166492D01*
X418749Y211625D01*
X479465Y229716D01*
X589094Y268116D01*
X631538Y305392D01*
X602113Y331818D01*
X531922Y338667D01*
X412535Y354206D01*
X313362Y382573D01*
X238803Y427161D01*
X238319Y467843D01*
X301435Y496267D01*
X417676Y504081D01*
X461996Y501095D01*
X585440Y495959D01*
X627183Y512558D01*
X587459Y551872D01*
X486833Y605308D01*
X386710Y666094D01*
X340369Y720818D01*
X355779Y755941D01*
X394625Y762000D01*
X466527Y749304D01*
X582742Y717269D01*
X638042Y699634D01*
X735229Y673593D01*
X891087Y639007D01*
X1089983Y598667D01*
X1316287Y555359D01*
X1554366Y511872D01*
X1788588Y470994D01*
X2003320Y435514D01*
X2182932Y408220D01*
X2311791Y391900D01*
X2374265Y389342D01*
X2375613Y389705D01*
X2359538Y422298D01*
X2291549Y505757D01*
X2179680Y631158D01*
X2031967Y789580D01*
X1856444Y972101D01*
X1790247Y1039703D01*
X1549470Y1281012D01*
X1354450Y1467889D01*
X1194837Y1609315D01*
X1060285Y1714268D01*
X940444Y1791726D01*
X894571Y1816885D01*
X625598Y1939150D01*
X361613Y2026155D01*
X128170Y2070072D01*
X55728Y2073831D01*
X-40691Y2062908D01*
X-82958Y2014158D01*
X-94367Y1957917D01*
X-106247Y1907406D01*
X-124794Y1917683D01*
X-155278Y1996651D01*
X-186079Y2095500D01*
X-271304Y2341696D01*
X-374446Y2582211D01*
X-485512Y2797505D01*
X-488124Y2801593D01*
X-306010Y2801593D01*
X-299534Y2715979D01*
X-262541Y2605381D01*
X-233666Y2532604D01*
X-124888Y2260881D01*
X240647Y2191872D01*
X520568Y2128257D01*
X765990Y2045231D01*
X993116Y1933158D01*
X1218151Y1782402D01*
X1457299Y1583325D01*
X1726764Y1326293D01*
X1771398Y1281541D01*
X1962989Y1092070D01*
X2111134Y953263D01*
X2212055Y868389D01*
X2261976Y840720D01*
X2265667Y853695D01*
X2237013Y927894D01*
X2178859Y1060265D01*
X2099235Y1233086D01*
X2006170Y1428633D01*
X1990737Y1460500D01*
X1900824Y1648335D01*
X1827422Y1806750D01*
X1777002Y1921386D01*
X1756035Y1977881D01*
X1756098Y1981186D01*
X1793899Y1964614D01*
X1886290Y1909806D01*
X2017871Y1826172D01*
X2122297Y1757357D01*
X2451853Y1550987D01*
X2814195Y1347712D01*
X3191214Y1156042D01*
X3564804Y984487D01*
X3916857Y841557D01*
X4229265Y735762D01*
X4381500Y695601D01*
X4548060Y669622D01*
X4731464Y659349D01*
X4904010Y664439D01*
X5037998Y684547D01*
X5089530Y704390D01*
X5074663Y735867D01*
X5002478Y798515D01*
X4888002Y879516D01*
X4871990Y889956D01*
X4562657Y1124870D01*
X4293344Y1407654D01*
X4054556Y1750099D01*
X3836800Y2163997D01*
X3824156Y2191450D01*
X3704189Y2458064D01*
X3619847Y2656491D01*
X3568537Y2794091D01*
X3547662Y2878225D01*
X3554628Y2916255D01*
X3567201Y2920293D01*
X3625382Y2900943D01*
X3738314Y2849593D01*
X3886705Y2775305D01*
X3974831Y2728819D01*
X4129169Y2648401D01*
X4253285Y2588328D01*
X4330172Y2556589D01*
X4346421Y2554310D01*
X4332656Y2595408D01*
X4268814Y2676900D01*
X4169285Y2784292D01*
X4048456Y2903091D01*
X3920717Y3018804D01*
X3800456Y3116935D01*
X3755576Y3149464D01*
X3558254Y3261815D01*
X3323712Y3348337D01*
X3034391Y3414578D01*
X2804583Y3449924D01*
X2680571Y3473916D01*
X2599895Y3504132D01*
X2582333Y3523719D01*
X2621144Y3538606D01*
X2724133Y3546671D01*
X2871138Y3548504D01*
X3041996Y3544690D01*
X3216544Y3535819D01*
X3374619Y3522478D01*
X3496058Y3505253D01*
X3534833Y3495957D01*
X3549801Y3497102D01*
X3499183Y3527132D01*
X3429000Y3562416D01*
X3074646Y3698190D01*
X2679625Y3779728D01*
X2230307Y3809730D01*
X2179218Y3810000D01*
X1674593Y3776958D01*
X1193452Y3675061D01*
X722361Y3500154D01*
X247888Y3248084D01*
X135623Y3177958D01*
X-61153Y3050405D01*
X-194938Y2954618D01*
X-273851Y2876410D01*
X-306010Y2801593D01*
X-488124Y2801593D01*
X-594513Y2968036D01*
X-683061Y3067490D01*
X-816525Y3179793D01*
X-953257Y3047266D01*
X-1091624Y2876329D01*
X-1222235Y2648159D01*
X-1330827Y2389941D01*
X-1377839Y2238103D01*
X-1419675Y1998932D01*
X-1436154Y1715571D01*
X-1427325Y1424595D01*
X-1393236Y1162578D01*
X-1376295Y1088102D01*
X-1329202Y938953D01*
X-1263226Y769452D01*
X-1188312Y601037D01*
X-1114406Y455147D01*
X-1051455Y353219D01*
X-1019919Y319922D01*
X-987547Y274511D01*
X-926827Y167332D01*
X-845684Y13124D01*
X-752040Y-173377D01*
X-725147Y-228372D01*
X-524501Y-597876D01*
X-313089Y-906578D01*
X-95787Y-1149589D01*
X122531Y-1322020D01*
X336987Y-1418982D01*
X482560Y-1439333D01*
X571884Y-1453247D01*
X587411Y-1491273D01*
X534636Y-1547840D01*
X419054Y-1617378D01*
X246162Y-1694315D01*
X221643Y-1703850D01*
X83453Y-1756833D01*
X234832Y-1968500D01*
X330757Y-2115397D01*
X438992Y-2300280D01*
X536719Y-2484103D01*
X540082Y-2490871D01*
X617680Y-2657367D01*
X665981Y-2795881D01*
X693426Y-2940801D01*
X708458Y-3126519D01*
X711540Y-3189371D01*
X729127Y-3577167D01*
X507009Y-3285734D01*
X390525Y-3138562D01*
X311674Y-3062336D01*
X261076Y-3060118D01*
X229353Y-3134967D01*
X207126Y-3289945D01*
X197721Y-3386667D01*
X175833Y-3557673D01*
X142280Y-3744226D01*
X102229Y-3924210D01*
X60844Y-4075509D01*
X23293Y-4176009D01*
X7699Y-4200168D01*
X-16679Y-4177114D01*
X-54955Y-4089146D01*
X-100072Y-3953383D01*
X-114466Y-3903835D01*
X-197672Y-3628032D01*
X-271126Y-3429473D01*
X-337757Y-3301687D01*
X-400495Y-3238206D01*
X-419341Y-3230643D01*
X-474818Y-3187146D01*
X-475409Y-3108260D01*
X-478477Y-3024434D01*
X-513648Y-3005657D01*
X-608870Y-2973379D01*
X-747425Y-2881651D01*
X-920980Y-2738100D01*
X-1121202Y-2550350D01*
X-1339758Y-2326026D01*
X-1568314Y-2072754D01*
X-1693351Y-1926167D01*
X-1888160Y-1695820D01*
X-2038791Y-1524628D01*
X-2152978Y-1404859D01*
X-2238455Y-1328784D01*
X-2302957Y-1288673D01*
X-2342364Y-1277524D01*
X-2451408Y-1284445D01*
X-2521393Y-1314458D01*
X-2579574Y-1413937D01*
X-2564505Y-1554111D01*
X-2476641Y-1734007D01*
X-2316436Y-1952652D01*
X-2122440Y-2169583D01*
X-1999574Y-2302119D01*
X-1907562Y-2409000D01*
X-1856483Y-2477976D01*
X-1852427Y-2497667D01*
X-1914172Y-2481292D01*
X-2021168Y-2439793D01*
X-2080294Y-2413930D01*
X-2217727Y-2362491D01*
X-2344545Y-2332403D01*
X-2381250Y-2329263D01*
X-2471874Y-2354934D01*
X-2505501Y-2426672D01*
X-2487850Y-2533664D01*
X-2424640Y-2665099D01*
X-2321588Y-2810162D01*
X-2184413Y-2958043D01*
X-2018834Y-3097928D01*
X-1948497Y-3147513D01*
X-1843828Y-3217333D01*
X-1988435Y-3217333D01*
X-2078488Y-3205944D01*
X-2164663Y-3162841D01*
X-2268641Y-3074624D01*
X-2347993Y-2995083D01*
X-2510543Y-2798334D01*
X-2610247Y-2613997D01*
X-2645754Y-2450656D01*
X-2615716Y-2316893D01*
X-2518781Y-2221291D01*
X-2473025Y-2200012D01*
X-2368865Y-2160410D01*
X-2522971Y-1928311D01*
X-2642364Y-1707678D01*
X-2698450Y-1506560D01*
X-2698612Y-1505142D01*
X-2705640Y-1378435D01*
X-2680896Y-1294095D01*
X-2610212Y-1211670D01*
X-2588646Y-1191229D01*
X-2457142Y-1068387D01*
X-2615934Y-963304D01*
X-3041687Y-727641D01*
X-3485545Y-573774D01*
X-3954341Y-499585D01*
X-4137329Y-491882D01*
X-4332406Y-491909D01*
X-4459708Y-499501D01*
X-4535970Y-517105D01*
X-4577929Y-547168D01*
X-4585311Y-557368D01*
X-4605219Y-604821D01*
X-4596431Y-652743D01*
X-4550930Y-707078D01*
X-4460699Y-773773D01*
X-4317723Y-858772D01*
X-4113984Y-968020D01*
X-3848022Y-1104148D01*
X-3530430Y-1271263D01*
X-3269643Y-1422076D01*
X-3073875Y-1551630D01*
X-2976668Y-1629999D01*
X-2772833Y-1818232D01*
X-2984500Y-1753856D01*
X-3227952Y-1699361D01*
X-3505075Y-1669641D01*
X-3801609Y-1662914D01*
X-4103297Y-1677400D01*
X-4395879Y-1711315D01*
X-4665096Y-1762878D01*
X-4896690Y-1830308D01*
X-5076402Y-1911823D01*
X-5189973Y-2005641D01*
X-5206754Y-2031539D01*
X-5231827Y-2119283D01*
X-5201345Y-2193481D01*
X-5109781Y-2256509D01*
X-4951606Y-2310743D01*
X-4721291Y-2358561D01*
X-4413310Y-2402338D01*
X-4318000Y-2413559D01*
X-4067364Y-2446960D01*
X-3805804Y-2490288D01*
X-3546635Y-2540383D01*
X-3303170Y-2594087D01*
X-3088723Y-2648239D01*
X-2916608Y-2699680D01*
X-2800139Y-2745252D01*
X-2752630Y-2781794D01*
X-2752186Y-2785117D01*
X-2787663Y-2816411D01*
X-2880961Y-2873698D01*
X-3013158Y-2947210D01*
X-3165331Y-3027178D01*
X-3318560Y-3103832D01*
X-3453921Y-3167403D01*
X-3552493Y-3208121D01*
X-3590249Y-3217803D01*
X-3628714Y-3202365D01*
X-3596044Y-3156153D01*
X-3490359Y-3077454D01*
X-3317898Y-2969408D01*
X-3191449Y-2888696D01*
X-3105105Y-2823775D01*
X-3073910Y-2786264D01*
X-3076146Y-2782718D01*
X-3153812Y-2754592D01*
X-3298434Y-2717660D01*
X-3493174Y-2675230D01*
X-3721191Y-2630608D01*
X-3965647Y-2587100D01*
X-4209702Y-2548012D01*
X-4421949Y-2518475D01*
X-4713649Y-2477761D01*
X-4932916Y-2437161D01*
X-5091907Y-2393200D01*
X-5202780Y-2342401D01*
X-5277692Y-2281287D01*
X-5286375Y-2271260D01*
X-5337297Y-2153187D01*
X-5333672Y-2017203D01*
X-5289207Y-1923203D01*
X-5154095Y-1814599D01*
X-4944885Y-1718931D01*
X-4671530Y-1638929D01*
X-4343982Y-1577323D01*
X-3972193Y-1536841D01*
X-3852333Y-1529159D01*
X-3365500Y-1502833D01*
X-3958167Y-1192150D01*
X-4169390Y-1079038D01*
X-4360183Y-972444D01*
X-4514926Y-881427D01*
X-4618002Y-815043D01*
X-4646083Y-793187D01*
X-4726774Y-673574D01*
X-4731538Y-550324D01*
X-4666313Y-441409D01*
X-4537034Y-364799D01*
X-4501062Y-354184D01*
X-4363046Y-340195D01*
X-4165822Y-347196D01*
X-3931485Y-372553D01*
X-3682133Y-413636D01*
X-3439861Y-467810D01*
X-3357003Y-490482D01*
X-3113783Y-569242D01*
X-2894674Y-660956D01*
X-2689473Y-773664D01*
X-2487976Y-915407D01*
X-2279979Y-1094224D01*
X-2055279Y-1318155D01*
X-1803670Y-1595240D01*
X-1514950Y-1933518D01*
X-1494572Y-1957917D01*
X-1337166Y-2144767D01*
X-1197860Y-2306710D01*
X-1085805Y-2433384D01*
X-1010150Y-2514428D01*
X-980708Y-2539790D01*
X-932112Y-2515309D01*
X-849823Y-2455546D01*
X-836162Y-2444540D01*
X-719825Y-2349500D01*
X-825892Y-1968500D01*
X-926868Y-1564466D01*
X-1003464Y-1157514D01*
X-1060092Y-720037D01*
X-1098805Y-260016D01*
X-1117480Y-9387D01*
X-1136273Y172047D01*
X-1157906Y299716D01*
X-1185101Y389053D01*
X-1220583Y455488D01*
X-1226584Y464146D01*
X-1363866Y713925D01*
X-1468265Y1019707D01*
X-1535503Y1357807D01*
X-1561303Y1704539D01*
X-1541389Y2036220D01*
X-1526594Y2125477D01*
X-1457343Y2381811D01*
X-1352954Y2642123D01*
X-1225943Y2881196D01*
X-1088830Y3073816D01*
X-1020684Y3144565D01*
X-889386Y3243731D01*
X-780214Y3271131D01*
X-673544Y3225197D01*
X-552186Y3107143D01*
X-426909Y2964459D01*
X-97038Y3202954D01*
X406335Y3523053D01*
X916175Y3759494D01*
X1435124Y3913201D01*
X1965824Y3985097D01*
X2159000Y3991124D01*
X2544448Y3978324D01*
D13*
X139200000Y-110070000D02*
X138200000Y-110070000D01*
X138200000Y-108370000D02*
X139200000Y-108370000D01*
X168662513Y-94934594D02*
X167955406Y-94227487D01*
X169157487Y-93025406D02*
X169864594Y-93732513D01*
X145635000Y-114825000D02*
X147735000Y-114825000D01*
X147735000Y-114825000D02*
X147735000Y-119075000D01*
X145635000Y-114825000D02*
X145635000Y-119075000D01*
X156480000Y-108200000D02*
X158480000Y-108200000D01*
X158480000Y-110240000D02*
X156480000Y-110240000D01*
X158997487Y-101915406D02*
X159704594Y-102622513D01*
X158502513Y-103824594D02*
X157795406Y-103117487D01*
X161042513Y-106364594D02*
X160335406Y-105657487D01*
X161537487Y-104455406D02*
X162244594Y-105162513D01*
X170680000Y-116420000D02*
X169680000Y-116420000D01*
X169680000Y-114720000D02*
X170680000Y-114720000D01*
X159520000Y-114720000D02*
X160520000Y-114720000D01*
X160520000Y-116420000D02*
X159520000Y-116420000D01*
X178050000Y-90765000D02*
X178050000Y-88765000D01*
X180090000Y-88765000D02*
X180090000Y-90765000D01*
X175680000Y-90940000D02*
X175680000Y-89940000D01*
X177380000Y-89940000D02*
X177380000Y-90940000D01*
X169864594Y-90417487D02*
X169157487Y-91124594D01*
X167955406Y-89922513D02*
X168662513Y-89215406D01*
X186935000Y-79340000D02*
X186935000Y-78140000D01*
X185175000Y-78140000D02*
X185175000Y-79340000D01*
X180940000Y-114055000D02*
X179740000Y-114055000D01*
X179740000Y-115815000D02*
X180940000Y-115815000D01*
X183480000Y-95005000D02*
X182280000Y-95005000D01*
X182280000Y-96765000D02*
X183480000Y-96765000D01*
X180940000Y-101355000D02*
X179740000Y-101355000D01*
X179740000Y-103115000D02*
X180940000Y-103115000D01*
X180940000Y-106435000D02*
X179740000Y-106435000D01*
X179740000Y-108195000D02*
X180940000Y-108195000D01*
X159140000Y-112430000D02*
X159140000Y-113630000D01*
X160900000Y-113630000D02*
X160900000Y-112430000D01*
X179950000Y-79340000D02*
X179950000Y-78140000D01*
X178190000Y-78140000D02*
X178190000Y-79340000D01*
X169580000Y-84700000D02*
X170780000Y-84700000D01*
X170780000Y-82940000D02*
X169580000Y-82940000D01*
X179740000Y-113275000D02*
X180940000Y-113275000D01*
X180940000Y-111515000D02*
X179740000Y-111515000D01*
X182280000Y-94225000D02*
X183480000Y-94225000D01*
X183480000Y-92465000D02*
X182280000Y-92465000D01*
X182280000Y-99305000D02*
X183480000Y-99305000D01*
X183480000Y-97545000D02*
X182280000Y-97545000D01*
X179740000Y-105655000D02*
X180940000Y-105655000D01*
X180940000Y-103895000D02*
X179740000Y-103895000D01*
X179740000Y-110735000D02*
X180940000Y-110735000D01*
X180940000Y-108975000D02*
X179740000Y-108975000D01*
X171060000Y-113630000D02*
X171060000Y-112430000D01*
X169300000Y-112430000D02*
X169300000Y-113630000D01*
X132680000Y-99450000D02*
X131480000Y-99450000D01*
X131480000Y-101210000D02*
X132680000Y-101210000D01*
X142840000Y-99450000D02*
X141640000Y-99450000D01*
X141640000Y-101210000D02*
X142840000Y-101210000D01*
X129930000Y-87030000D02*
X129930000Y-88230000D01*
X131690000Y-88230000D02*
X131690000Y-87030000D01*
X140370000Y-88256000D02*
X141570000Y-88256000D01*
X141570000Y-86496000D02*
X140370000Y-86496000D01*
D15*
X163702672Y-104092536D02*
X164403132Y-103392076D01*
X164403132Y-103392076D02*
X164726421Y-103715365D01*
X164025961Y-104415825D02*
X164726421Y-103715365D01*
X163702672Y-104092536D02*
X164025961Y-104415825D01*
X163136916Y-103526779D02*
X163837376Y-102826319D01*
X163837376Y-102826319D02*
X164160665Y-103149609D01*
X163460205Y-103850069D02*
X164160665Y-103149609D01*
X163136916Y-103526779D02*
X163460205Y-103850069D01*
X162571160Y-102961023D02*
X163271620Y-102260563D01*
X163271620Y-102260563D02*
X163594909Y-102583853D01*
X162894449Y-103284312D02*
X163594909Y-102583853D01*
X162571160Y-102961023D02*
X162894449Y-103284312D01*
X162005404Y-102395267D02*
X162705864Y-101694807D01*
X162705864Y-101694807D02*
X163029153Y-102018096D01*
X162328693Y-102718556D02*
X163029153Y-102018096D01*
X162005404Y-102395267D02*
X162328693Y-102718556D01*
X161441444Y-101831307D02*
X162141904Y-101130847D01*
X162141904Y-101130847D02*
X162465193Y-101454136D01*
X161764733Y-102154596D02*
X162465193Y-101454136D01*
X161441444Y-101831307D02*
X161764733Y-102154596D01*
X160875688Y-101265551D02*
X161576147Y-100565091D01*
X161576147Y-100565091D02*
X161899437Y-100888380D01*
X161198977Y-101588840D02*
X161899437Y-100888380D01*
X160875688Y-101265551D02*
X161198977Y-101588840D01*
X160309931Y-100699795D02*
X161010391Y-99999335D01*
X161010391Y-99999335D02*
X161333681Y-100322624D01*
X160633221Y-101023084D02*
X161333681Y-100322624D01*
X160309931Y-100699795D02*
X160633221Y-101023084D01*
X159744175Y-100134039D02*
X160444635Y-99433579D01*
X160444635Y-99433579D02*
X160767924Y-99756868D01*
X160067464Y-100457328D02*
X160767924Y-99756868D01*
X159744175Y-100134039D02*
X160067464Y-100457328D01*
X159744175Y-97985961D02*
X160067464Y-97662672D01*
X160067464Y-97662672D02*
X160767924Y-98363132D01*
X160444635Y-98686421D02*
X160767924Y-98363132D01*
X159744175Y-97985961D02*
X160444635Y-98686421D01*
X160309931Y-97420205D02*
X160633221Y-97096916D01*
X160633221Y-97096916D02*
X161333681Y-97797376D01*
X161010391Y-98120665D02*
X161333681Y-97797376D01*
X160309931Y-97420205D02*
X161010391Y-98120665D01*
X160875688Y-96854449D02*
X161198977Y-96531160D01*
X161198977Y-96531160D02*
X161899437Y-97231620D01*
X161576147Y-97554909D02*
X161899437Y-97231620D01*
X160875688Y-96854449D02*
X161576147Y-97554909D01*
X161441444Y-96288693D02*
X161764733Y-95965404D01*
X161764733Y-95965404D02*
X162465193Y-96665864D01*
X162141904Y-96989153D02*
X162465193Y-96665864D01*
X161441444Y-96288693D02*
X162141904Y-96989153D01*
X162005404Y-95724733D02*
X162328693Y-95401444D01*
X162328693Y-95401444D02*
X163029153Y-96101904D01*
X162705864Y-96425193D02*
X163029153Y-96101904D01*
X162005404Y-95724733D02*
X162705864Y-96425193D01*
X162571160Y-95158977D02*
X162894449Y-94835688D01*
X162894449Y-94835688D02*
X163594909Y-95536147D01*
X163271620Y-95859437D02*
X163594909Y-95536147D01*
X162571160Y-95158977D02*
X163271620Y-95859437D01*
X163136916Y-94593221D02*
X163460205Y-94269931D01*
X163460205Y-94269931D02*
X164160665Y-94970391D01*
X163837376Y-95293681D02*
X164160665Y-94970391D01*
X163136916Y-94593221D02*
X163837376Y-95293681D01*
X163702672Y-94027464D02*
X164025961Y-93704175D01*
X164025961Y-93704175D02*
X164726421Y-94404635D01*
X164403132Y-94727924D02*
X164726421Y-94404635D01*
X163702672Y-94027464D02*
X164403132Y-94727924D01*
X165473579Y-94404635D02*
X166174039Y-93704175D01*
X166174039Y-93704175D02*
X166497328Y-94027464D01*
X165796868Y-94727924D02*
X166497328Y-94027464D01*
X165473579Y-94404635D02*
X165796868Y-94727924D01*
X166039335Y-94970391D02*
X166739795Y-94269931D01*
X166739795Y-94269931D02*
X167063084Y-94593221D01*
X166362624Y-95293681D02*
X167063084Y-94593221D01*
X166039335Y-94970391D02*
X166362624Y-95293681D01*
X166605091Y-95536147D02*
X167305551Y-94835688D01*
X167305551Y-94835688D02*
X167628840Y-95158977D01*
X166928380Y-95859437D02*
X167628840Y-95158977D01*
X166605091Y-95536147D02*
X166928380Y-95859437D01*
X167170847Y-96101904D02*
X167871307Y-95401444D01*
X167871307Y-95401444D02*
X168194596Y-95724733D01*
X167494136Y-96425193D02*
X168194596Y-95724733D01*
X167170847Y-96101904D02*
X167494136Y-96425193D01*
X167734807Y-96665864D02*
X168435267Y-95965404D01*
X168435267Y-95965404D02*
X168758556Y-96288693D01*
X168058096Y-96989153D02*
X168758556Y-96288693D01*
X167734807Y-96665864D02*
X168058096Y-96989153D01*
X168300563Y-97231620D02*
X169001023Y-96531160D01*
X169001023Y-96531160D02*
X169324312Y-96854449D01*
X168623853Y-97554909D02*
X169324312Y-96854449D01*
X168300563Y-97231620D02*
X168623853Y-97554909D01*
X168866319Y-97797376D02*
X169566779Y-97096916D01*
X169566779Y-97096916D02*
X169890069Y-97420205D01*
X169189609Y-98120665D02*
X169890069Y-97420205D01*
X168866319Y-97797376D02*
X169189609Y-98120665D01*
X169432076Y-98363132D02*
X170132536Y-97662672D01*
X170132536Y-97662672D02*
X170455825Y-97985961D01*
X169755365Y-98686421D02*
X170455825Y-97985961D01*
X169432076Y-98363132D02*
X169755365Y-98686421D01*
X169432076Y-99756868D02*
X169755365Y-99433579D01*
X169755365Y-99433579D02*
X170455825Y-100134039D01*
X170132536Y-100457328D02*
X170455825Y-100134039D01*
X169432076Y-99756868D02*
X170132536Y-100457328D01*
X168866319Y-100322624D02*
X169189609Y-99999335D01*
X169189609Y-99999335D02*
X169890069Y-100699795D01*
X169566779Y-101023084D02*
X169890069Y-100699795D01*
X168866319Y-100322624D02*
X169566779Y-101023084D01*
X168300563Y-100888380D02*
X168623853Y-100565091D01*
X168623853Y-100565091D02*
X169324312Y-101265551D01*
X169001023Y-101588840D02*
X169324312Y-101265551D01*
X168300563Y-100888380D02*
X169001023Y-101588840D01*
X167734807Y-101454136D02*
X168058096Y-101130847D01*
X168058096Y-101130847D02*
X168758556Y-101831307D01*
X168435267Y-102154596D02*
X168758556Y-101831307D01*
X167734807Y-101454136D02*
X168435267Y-102154596D01*
X167170847Y-102018096D02*
X167494136Y-101694807D01*
X167494136Y-101694807D02*
X168194596Y-102395267D01*
X167871307Y-102718556D02*
X168194596Y-102395267D01*
X167170847Y-102018096D02*
X167871307Y-102718556D01*
X166605091Y-102583853D02*
X166928380Y-102260563D01*
X166928380Y-102260563D02*
X167628840Y-102961023D01*
X167305551Y-103284312D02*
X167628840Y-102961023D01*
X166605091Y-102583853D02*
X167305551Y-103284312D01*
X166039335Y-103149609D02*
X166362624Y-102826319D01*
X166362624Y-102826319D02*
X167063084Y-103526779D01*
X166739795Y-103850069D02*
X167063084Y-103526779D01*
X166039335Y-103149609D02*
X166739795Y-103850069D01*
X165473579Y-103715365D02*
X165796868Y-103392076D01*
X165796868Y-103392076D02*
X166497328Y-104092536D01*
X166174039Y-104415825D02*
X166497328Y-104092536D01*
X165473579Y-103715365D02*
X166174039Y-104415825D01*
D16*
X170053509Y-99060000D02*
X165100000Y-94106491D01*
X165100000Y-94106491D02*
X160146491Y-99060000D01*
X160146491Y-99060000D02*
X164850349Y-103763858D01*
X165349651Y-103763858D02*
X170053509Y-99060000D01*
X165349651Y-103763858D02*
X164850349Y-103763858D01*
D17*
X165351447Y-102939471D02*
G75*
G03X165351447Y-102939471I-251447J0D01*
G01*
D13*
X145015000Y-120940000D02*
X145015000Y-114930000D01*
X138195000Y-118690000D02*
X138195000Y-114930000D01*
X145015000Y-114930000D02*
X143755000Y-114930000D01*
X138195000Y-114930000D02*
X139455000Y-114930000D01*
X134220000Y-85380000D02*
X134220000Y-79370000D01*
X127400000Y-83130000D02*
X127400000Y-79370000D01*
X134220000Y-79370000D02*
X132960000Y-79370000D01*
X127400000Y-79370000D02*
X128660000Y-79370000D01*
X136290000Y-79370000D02*
X137550000Y-79370000D01*
X143110000Y-79370000D02*
X141850000Y-79370000D01*
X136290000Y-83130000D02*
X136290000Y-79370000D01*
X143110000Y-85380000D02*
X143110000Y-79370000D01*
X127340000Y-108625000D02*
X127340000Y-109425000D01*
X131740000Y-108625000D02*
X127340000Y-108625000D01*
X131740000Y-109425000D02*
X131740000Y-108625000D01*
X131740000Y-113625000D02*
X127340000Y-113625000D01*
X131740000Y-112825000D02*
X131740000Y-113625000D01*
X127340000Y-111925000D02*
X127340000Y-110325000D01*
X131740000Y-111925000D02*
X131740000Y-110325000D01*
X127340000Y-112925000D02*
X125940000Y-112925000D01*
X127340000Y-113625000D02*
X127340000Y-112925000D01*
X182815000Y-76940000D02*
X182815000Y-79740000D01*
X184215000Y-76940000D02*
X184215000Y-79740000D01*
X182815000Y-76940000D02*
X184215000Y-76940000D01*
X180095000Y-78140000D02*
X180095000Y-79340000D01*
X181855000Y-79340000D02*
X181855000Y-78140000D01*
X134985000Y-117050000D02*
X132985000Y-117050000D01*
X132985000Y-114090000D02*
X134985000Y-114090000D01*
X134985000Y-117265000D02*
X132985000Y-117265000D01*
X132985000Y-120225000D02*
X134985000Y-120225000D01*
X124305000Y-89665000D02*
X124305000Y-86865000D01*
X120805000Y-89665000D02*
X120805000Y-86865000D01*
D18*
X155582857Y-115132380D02*
X155916190Y-114656190D01*
X156154285Y-115132380D02*
X156154285Y-114132380D01*
X155773333Y-114132380D01*
X155678095Y-114180000D01*
X155630476Y-114227619D01*
X155582857Y-114322857D01*
X155582857Y-114465714D01*
X155630476Y-114560952D01*
X155678095Y-114608571D01*
X155773333Y-114656190D01*
X156154285Y-114656190D01*
X155201904Y-114227619D02*
X155154285Y-114180000D01*
X155059047Y-114132380D01*
X154820952Y-114132380D01*
X154725714Y-114180000D01*
X154678095Y-114227619D01*
X154630476Y-114322857D01*
X154630476Y-114418095D01*
X154678095Y-114560952D01*
X155249523Y-115132380D01*
X154630476Y-115132380D01*
X154297142Y-114132380D02*
X153678095Y-114132380D01*
X154011428Y-114513333D01*
X153868571Y-114513333D01*
X153773333Y-114560952D01*
X153725714Y-114608571D01*
X153678095Y-114703809D01*
X153678095Y-114941904D01*
X153725714Y-115037142D01*
X153773333Y-115084761D01*
X153868571Y-115132380D01*
X154154285Y-115132380D01*
X154249523Y-115084761D01*
X154297142Y-115037142D01*
X136056666Y-109577142D02*
X136104285Y-109624761D01*
X136247142Y-109672380D01*
X136342380Y-109672380D01*
X136485238Y-109624761D01*
X136580476Y-109529523D01*
X136628095Y-109434285D01*
X136675714Y-109243809D01*
X136675714Y-109100952D01*
X136628095Y-108910476D01*
X136580476Y-108815238D01*
X136485238Y-108720000D01*
X136342380Y-108672380D01*
X136247142Y-108672380D01*
X136104285Y-108720000D01*
X136056666Y-108767619D01*
X135151904Y-108672380D02*
X135628095Y-108672380D01*
X135675714Y-109148571D01*
X135628095Y-109100952D01*
X135532857Y-109053333D01*
X135294761Y-109053333D01*
X135199523Y-109100952D01*
X135151904Y-109148571D01*
X135104285Y-109243809D01*
X135104285Y-109481904D01*
X135151904Y-109577142D01*
X135199523Y-109624761D01*
X135294761Y-109672380D01*
X135532857Y-109672380D01*
X135628095Y-109624761D01*
X135675714Y-109577142D01*
X170680312Y-96255389D02*
X170680312Y-96322732D01*
X170747656Y-96457419D01*
X170815000Y-96524763D01*
X170949687Y-96592106D01*
X171084374Y-96592106D01*
X171185389Y-96558435D01*
X171353748Y-96457419D01*
X171454763Y-96356404D01*
X171555778Y-96188045D01*
X171589450Y-96087030D01*
X171589450Y-95952343D01*
X171522106Y-95817656D01*
X171454763Y-95750312D01*
X171320076Y-95682969D01*
X171252732Y-95682969D01*
X169939534Y-95649297D02*
X170343595Y-96053358D01*
X170141564Y-95851328D02*
X170848671Y-95144221D01*
X170815000Y-95312580D01*
X170815000Y-95447267D01*
X170848671Y-95548282D01*
X149582142Y-117308333D02*
X149629761Y-117260714D01*
X149677380Y-117117857D01*
X149677380Y-117022619D01*
X149629761Y-116879761D01*
X149534523Y-116784523D01*
X149439285Y-116736904D01*
X149248809Y-116689285D01*
X149105952Y-116689285D01*
X148915476Y-116736904D01*
X148820238Y-116784523D01*
X148725000Y-116879761D01*
X148677380Y-117022619D01*
X148677380Y-117117857D01*
X148725000Y-117260714D01*
X148772619Y-117308333D01*
X149010714Y-118165476D02*
X149677380Y-118165476D01*
X148629761Y-117927380D02*
X149344047Y-117689285D01*
X149344047Y-118308333D01*
X156249523Y-111482142D02*
X156297142Y-111529761D01*
X156440000Y-111577380D01*
X156535238Y-111577380D01*
X156678095Y-111529761D01*
X156773333Y-111434523D01*
X156820952Y-111339285D01*
X156868571Y-111148809D01*
X156868571Y-111005952D01*
X156820952Y-110815476D01*
X156773333Y-110720238D01*
X156678095Y-110625000D01*
X156535238Y-110577380D01*
X156440000Y-110577380D01*
X156297142Y-110625000D01*
X156249523Y-110672619D01*
X155392380Y-111577380D02*
X155392380Y-111053571D01*
X155440000Y-110958333D01*
X155535238Y-110910714D01*
X155725714Y-110910714D01*
X155820952Y-110958333D01*
X155392380Y-111529761D02*
X155487619Y-111577380D01*
X155725714Y-111577380D01*
X155820952Y-111529761D01*
X155868571Y-111434523D01*
X155868571Y-111339285D01*
X155820952Y-111244047D01*
X155725714Y-111196428D01*
X155487619Y-111196428D01*
X155392380Y-111148809D01*
X155011428Y-110910714D02*
X154773333Y-111577380D01*
X154535238Y-110910714D01*
X154154285Y-111577380D02*
X154154285Y-110910714D01*
X154154285Y-111101190D02*
X154106666Y-111005952D01*
X154059047Y-110958333D01*
X153963809Y-110910714D01*
X153868571Y-110910714D01*
X153011428Y-111577380D02*
X153582857Y-111577380D01*
X153297142Y-111577380D02*
X153297142Y-110577380D01*
X153392380Y-110720238D01*
X153487619Y-110815476D01*
X153582857Y-110863095D01*
X156248435Y-100873511D02*
X156248435Y-100940854D01*
X156315778Y-101075541D01*
X156383122Y-101142885D01*
X156517809Y-101210228D01*
X156652496Y-101210228D01*
X156753511Y-101176557D01*
X156921870Y-101075541D01*
X157022885Y-100974526D01*
X157123900Y-100806167D01*
X157157572Y-100705152D01*
X157157572Y-100570465D01*
X157090228Y-100435778D01*
X157022885Y-100368435D01*
X156888198Y-100301091D01*
X156820854Y-100301091D01*
X155575000Y-100334763D02*
X155945389Y-99964374D01*
X156046404Y-99930702D01*
X156147419Y-99964374D01*
X156282106Y-100099061D01*
X156315778Y-100200076D01*
X155608671Y-100301091D02*
X155642343Y-100402106D01*
X155810702Y-100570465D01*
X155911717Y-100604137D01*
X156012732Y-100570465D01*
X156080076Y-100503122D01*
X156113748Y-100402106D01*
X156080076Y-100301091D01*
X155911717Y-100132732D01*
X155878045Y-100031717D01*
X155777030Y-99593984D02*
X155137267Y-99897030D01*
X155440312Y-99257267D01*
X154699534Y-99459297D02*
X155170938Y-98987893D01*
X155036251Y-99122580D02*
X155069923Y-99021564D01*
X155069923Y-98954221D01*
X155036251Y-98853206D01*
X154968908Y-98785862D01*
X154935236Y-98415473D02*
X154935236Y-98348129D01*
X154901564Y-98247114D01*
X154733206Y-98078755D01*
X154632190Y-98045084D01*
X154564847Y-98045084D01*
X154463832Y-98078755D01*
X154396488Y-98146099D01*
X154329145Y-98280786D01*
X154329145Y-99088908D01*
X153891412Y-98651175D01*
X165138435Y-109763511D02*
X165138435Y-109830854D01*
X165205778Y-109965541D01*
X165273122Y-110032885D01*
X165407809Y-110100228D01*
X165542496Y-110100228D01*
X165643511Y-110066557D01*
X165811870Y-109965541D01*
X165912885Y-109864526D01*
X166013900Y-109696167D01*
X166047572Y-109595152D01*
X166047572Y-109460465D01*
X165980228Y-109325778D01*
X165912885Y-109258435D01*
X165778198Y-109191091D01*
X165710854Y-109191091D01*
X164465000Y-109224763D02*
X164835389Y-108854374D01*
X164936404Y-108820702D01*
X165037419Y-108854374D01*
X165172106Y-108989061D01*
X165205778Y-109090076D01*
X164498671Y-109191091D02*
X164532343Y-109292106D01*
X164700702Y-109460465D01*
X164801717Y-109494137D01*
X164902732Y-109460465D01*
X164970076Y-109393122D01*
X165003748Y-109292106D01*
X164970076Y-109191091D01*
X164801717Y-109022732D01*
X164768045Y-108921717D01*
X164667030Y-108483984D02*
X164027267Y-108787030D01*
X164330312Y-108147267D01*
X163589534Y-108349297D02*
X164060938Y-107877893D01*
X163926251Y-108012580D02*
X163959923Y-107911564D01*
X163959923Y-107844221D01*
X163926251Y-107743206D01*
X163858908Y-107675862D01*
X163926251Y-107271801D02*
X163488519Y-106834068D01*
X163454847Y-107339145D01*
X163353832Y-107238129D01*
X163252816Y-107204458D01*
X163185473Y-107204458D01*
X163084458Y-107238129D01*
X162916099Y-107406488D01*
X162882427Y-107507503D01*
X162882427Y-107574847D01*
X162916099Y-107675862D01*
X163118129Y-107877893D01*
X163219145Y-107911564D01*
X163286488Y-107911564D01*
X175656666Y-114022142D02*
X175704285Y-114069761D01*
X175847142Y-114117380D01*
X175942380Y-114117380D01*
X176085238Y-114069761D01*
X176180476Y-113974523D01*
X176228095Y-113879285D01*
X176275714Y-113688809D01*
X176275714Y-113545952D01*
X176228095Y-113355476D01*
X176180476Y-113260238D01*
X176085238Y-113165000D01*
X175942380Y-113117380D01*
X175847142Y-113117380D01*
X175704285Y-113165000D01*
X175656666Y-113212619D01*
X175228095Y-114117380D02*
X175228095Y-113450714D01*
X175228095Y-113545952D02*
X175180476Y-113498333D01*
X175085238Y-113450714D01*
X174942380Y-113450714D01*
X174847142Y-113498333D01*
X174799523Y-113593571D01*
X174799523Y-114117380D01*
X174799523Y-113593571D02*
X174751904Y-113498333D01*
X174656666Y-113450714D01*
X174513809Y-113450714D01*
X174418571Y-113498333D01*
X174370952Y-113593571D01*
X174370952Y-114117380D01*
X173751904Y-114117380D02*
X173847142Y-114069761D01*
X173894761Y-114022142D01*
X173942380Y-113926904D01*
X173942380Y-113641190D01*
X173894761Y-113545952D01*
X173847142Y-113498333D01*
X173751904Y-113450714D01*
X173609047Y-113450714D01*
X173513809Y-113498333D01*
X173466190Y-113545952D01*
X173418571Y-113641190D01*
X173418571Y-113926904D01*
X173466190Y-114022142D01*
X173513809Y-114069761D01*
X173609047Y-114117380D01*
X173751904Y-114117380D01*
X173085238Y-113450714D02*
X172847142Y-114117380D01*
X172609047Y-113450714D01*
X171704285Y-114117380D02*
X172275714Y-114117380D01*
X171990000Y-114117380D02*
X171990000Y-113117380D01*
X172085238Y-113260238D01*
X172180476Y-113355476D01*
X172275714Y-113403095D01*
X166131666Y-115927142D02*
X166179285Y-115974761D01*
X166322142Y-116022380D01*
X166417380Y-116022380D01*
X166560238Y-115974761D01*
X166655476Y-115879523D01*
X166703095Y-115784285D01*
X166750714Y-115593809D01*
X166750714Y-115450952D01*
X166703095Y-115260476D01*
X166655476Y-115165238D01*
X166560238Y-115070000D01*
X166417380Y-115022380D01*
X166322142Y-115022380D01*
X166179285Y-115070000D01*
X166131666Y-115117619D01*
X165703095Y-116022380D02*
X165703095Y-115355714D01*
X165703095Y-115450952D02*
X165655476Y-115403333D01*
X165560238Y-115355714D01*
X165417380Y-115355714D01*
X165322142Y-115403333D01*
X165274523Y-115498571D01*
X165274523Y-116022380D01*
X165274523Y-115498571D02*
X165226904Y-115403333D01*
X165131666Y-115355714D01*
X164988809Y-115355714D01*
X164893571Y-115403333D01*
X164845952Y-115498571D01*
X164845952Y-116022380D01*
X164226904Y-116022380D02*
X164322142Y-115974761D01*
X164369761Y-115927142D01*
X164417380Y-115831904D01*
X164417380Y-115546190D01*
X164369761Y-115450952D01*
X164322142Y-115403333D01*
X164226904Y-115355714D01*
X164084047Y-115355714D01*
X163988809Y-115403333D01*
X163941190Y-115450952D01*
X163893571Y-115546190D01*
X163893571Y-115831904D01*
X163941190Y-115927142D01*
X163988809Y-115974761D01*
X164084047Y-116022380D01*
X164226904Y-116022380D01*
X163560238Y-115355714D02*
X163322142Y-116022380D01*
X163084047Y-115355714D01*
X162750714Y-115117619D02*
X162703095Y-115070000D01*
X162607857Y-115022380D01*
X162369761Y-115022380D01*
X162274523Y-115070000D01*
X162226904Y-115117619D01*
X162179285Y-115212857D01*
X162179285Y-115308095D01*
X162226904Y-115450952D01*
X162798333Y-116022380D01*
X162179285Y-116022380D01*
X178157142Y-93400714D02*
X178204761Y-93353095D01*
X178252380Y-93210238D01*
X178252380Y-93115000D01*
X178204761Y-92972142D01*
X178109523Y-92876904D01*
X178014285Y-92829285D01*
X177823809Y-92781666D01*
X177680952Y-92781666D01*
X177490476Y-92829285D01*
X177395238Y-92876904D01*
X177300000Y-92972142D01*
X177252380Y-93115000D01*
X177252380Y-93210238D01*
X177300000Y-93353095D01*
X177347619Y-93400714D01*
X177585714Y-93829285D02*
X178252380Y-93829285D01*
X177680952Y-93829285D02*
X177633333Y-93876904D01*
X177585714Y-93972142D01*
X177585714Y-94115000D01*
X177633333Y-94210238D01*
X177728571Y-94257857D01*
X178252380Y-94257857D01*
X178252380Y-94734047D02*
X177585714Y-94734047D01*
X177776190Y-94734047D02*
X177680952Y-94781666D01*
X177633333Y-94829285D01*
X177585714Y-94924523D01*
X177585714Y-95019761D01*
X177585714Y-95210238D02*
X177585714Y-95591190D01*
X178252380Y-95353095D02*
X177395238Y-95353095D01*
X177300000Y-95400714D01*
X177252380Y-95495952D01*
X177252380Y-95591190D01*
X178252380Y-96448333D02*
X178252380Y-95876904D01*
X178252380Y-96162619D02*
X177252380Y-96162619D01*
X177395238Y-96067380D01*
X177490476Y-95972142D01*
X177538095Y-95876904D01*
X176252142Y-93400714D02*
X176299761Y-93353095D01*
X176347380Y-93210238D01*
X176347380Y-93115000D01*
X176299761Y-92972142D01*
X176204523Y-92876904D01*
X176109285Y-92829285D01*
X175918809Y-92781666D01*
X175775952Y-92781666D01*
X175585476Y-92829285D01*
X175490238Y-92876904D01*
X175395000Y-92972142D01*
X175347380Y-93115000D01*
X175347380Y-93210238D01*
X175395000Y-93353095D01*
X175442619Y-93400714D01*
X175680714Y-93829285D02*
X176347380Y-93829285D01*
X175775952Y-93829285D02*
X175728333Y-93876904D01*
X175680714Y-93972142D01*
X175680714Y-94115000D01*
X175728333Y-94210238D01*
X175823571Y-94257857D01*
X176347380Y-94257857D01*
X176347380Y-94734047D02*
X175680714Y-94734047D01*
X175871190Y-94734047D02*
X175775952Y-94781666D01*
X175728333Y-94829285D01*
X175680714Y-94924523D01*
X175680714Y-95019761D01*
X175680714Y-95210238D02*
X175680714Y-95591190D01*
X176347380Y-95353095D02*
X175490238Y-95353095D01*
X175395000Y-95400714D01*
X175347380Y-95495952D01*
X175347380Y-95591190D01*
X175442619Y-95876904D02*
X175395000Y-95924523D01*
X175347380Y-96019761D01*
X175347380Y-96257857D01*
X175395000Y-96353095D01*
X175442619Y-96400714D01*
X175537857Y-96448333D01*
X175633095Y-96448333D01*
X175775952Y-96400714D01*
X176347380Y-95829285D01*
X176347380Y-96448333D01*
X168077732Y-89102030D02*
X168414450Y-88765312D01*
X167707343Y-88058206D01*
X167471641Y-89708122D02*
X167875702Y-89304061D01*
X167673671Y-89506091D02*
X166966564Y-88798984D01*
X167134923Y-88832656D01*
X167269610Y-88832656D01*
X167370625Y-88798984D01*
X186507380Y-81113333D02*
X186031190Y-80780000D01*
X186507380Y-80541904D02*
X185507380Y-80541904D01*
X185507380Y-80922857D01*
X185555000Y-81018095D01*
X185602619Y-81065714D01*
X185697857Y-81113333D01*
X185840714Y-81113333D01*
X185935952Y-81065714D01*
X185983571Y-81018095D01*
X186031190Y-80922857D01*
X186031190Y-80541904D01*
X186507380Y-82065714D02*
X186507380Y-81494285D01*
X186507380Y-81780000D02*
X185507380Y-81780000D01*
X185650238Y-81684761D01*
X185745476Y-81589523D01*
X185793095Y-81494285D01*
X177966666Y-115387380D02*
X178300000Y-114911190D01*
X178538095Y-115387380D02*
X178538095Y-114387380D01*
X178157142Y-114387380D01*
X178061904Y-114435000D01*
X178014285Y-114482619D01*
X177966666Y-114577857D01*
X177966666Y-114720714D01*
X178014285Y-114815952D01*
X178061904Y-114863571D01*
X178157142Y-114911190D01*
X178538095Y-114911190D01*
X177585714Y-114482619D02*
X177538095Y-114435000D01*
X177442857Y-114387380D01*
X177204761Y-114387380D01*
X177109523Y-114435000D01*
X177061904Y-114482619D01*
X177014285Y-114577857D01*
X177014285Y-114673095D01*
X177061904Y-114815952D01*
X177633333Y-115387380D01*
X177014285Y-115387380D01*
X180506666Y-96337380D02*
X180840000Y-95861190D01*
X181078095Y-96337380D02*
X181078095Y-95337380D01*
X180697142Y-95337380D01*
X180601904Y-95385000D01*
X180554285Y-95432619D01*
X180506666Y-95527857D01*
X180506666Y-95670714D01*
X180554285Y-95765952D01*
X180601904Y-95813571D01*
X180697142Y-95861190D01*
X181078095Y-95861190D01*
X180173333Y-95337380D02*
X179554285Y-95337380D01*
X179887619Y-95718333D01*
X179744761Y-95718333D01*
X179649523Y-95765952D01*
X179601904Y-95813571D01*
X179554285Y-95908809D01*
X179554285Y-96146904D01*
X179601904Y-96242142D01*
X179649523Y-96289761D01*
X179744761Y-96337380D01*
X180030476Y-96337380D01*
X180125714Y-96289761D01*
X180173333Y-96242142D01*
X177966666Y-102687380D02*
X178300000Y-102211190D01*
X178538095Y-102687380D02*
X178538095Y-101687380D01*
X178157142Y-101687380D01*
X178061904Y-101735000D01*
X178014285Y-101782619D01*
X177966666Y-101877857D01*
X177966666Y-102020714D01*
X178014285Y-102115952D01*
X178061904Y-102163571D01*
X178157142Y-102211190D01*
X178538095Y-102211190D01*
X177109523Y-102020714D02*
X177109523Y-102687380D01*
X177347619Y-101639761D02*
X177585714Y-102354047D01*
X176966666Y-102354047D01*
X177966666Y-107767380D02*
X178300000Y-107291190D01*
X178538095Y-107767380D02*
X178538095Y-106767380D01*
X178157142Y-106767380D01*
X178061904Y-106815000D01*
X178014285Y-106862619D01*
X177966666Y-106957857D01*
X177966666Y-107100714D01*
X178014285Y-107195952D01*
X178061904Y-107243571D01*
X178157142Y-107291190D01*
X178538095Y-107291190D01*
X177061904Y-106767380D02*
X177538095Y-106767380D01*
X177585714Y-107243571D01*
X177538095Y-107195952D01*
X177442857Y-107148333D01*
X177204761Y-107148333D01*
X177109523Y-107195952D01*
X177061904Y-107243571D01*
X177014285Y-107338809D01*
X177014285Y-107576904D01*
X177061904Y-107672142D01*
X177109523Y-107719761D01*
X177204761Y-107767380D01*
X177442857Y-107767380D01*
X177538095Y-107719761D01*
X177585714Y-107672142D01*
X162377380Y-112863333D02*
X161901190Y-112530000D01*
X162377380Y-112291904D02*
X161377380Y-112291904D01*
X161377380Y-112672857D01*
X161425000Y-112768095D01*
X161472619Y-112815714D01*
X161567857Y-112863333D01*
X161710714Y-112863333D01*
X161805952Y-112815714D01*
X161853571Y-112768095D01*
X161901190Y-112672857D01*
X161901190Y-112291904D01*
X161377380Y-113720476D02*
X161377380Y-113530000D01*
X161425000Y-113434761D01*
X161472619Y-113387142D01*
X161615476Y-113291904D01*
X161805952Y-113244285D01*
X162186904Y-113244285D01*
X162282142Y-113291904D01*
X162329761Y-113339523D01*
X162377380Y-113434761D01*
X162377380Y-113625238D01*
X162329761Y-113720476D01*
X162282142Y-113768095D01*
X162186904Y-113815714D01*
X161948809Y-113815714D01*
X161853571Y-113768095D01*
X161805952Y-113720476D01*
X161758333Y-113625238D01*
X161758333Y-113434761D01*
X161805952Y-113339523D01*
X161853571Y-113291904D01*
X161948809Y-113244285D01*
X179522380Y-75398333D02*
X179046190Y-75065000D01*
X179522380Y-74826904D02*
X178522380Y-74826904D01*
X178522380Y-75207857D01*
X178570000Y-75303095D01*
X178617619Y-75350714D01*
X178712857Y-75398333D01*
X178855714Y-75398333D01*
X178950952Y-75350714D01*
X178998571Y-75303095D01*
X179046190Y-75207857D01*
X179046190Y-74826904D01*
X178522380Y-75731666D02*
X178522380Y-76398333D01*
X179522380Y-75969761D01*
X165266666Y-84272380D02*
X165600000Y-83796190D01*
X165838095Y-84272380D02*
X165838095Y-83272380D01*
X165457142Y-83272380D01*
X165361904Y-83320000D01*
X165314285Y-83367619D01*
X165266666Y-83462857D01*
X165266666Y-83605714D01*
X165314285Y-83700952D01*
X165361904Y-83748571D01*
X165457142Y-83796190D01*
X165838095Y-83796190D01*
X164695238Y-83700952D02*
X164790476Y-83653333D01*
X164838095Y-83605714D01*
X164885714Y-83510476D01*
X164885714Y-83462857D01*
X164838095Y-83367619D01*
X164790476Y-83320000D01*
X164695238Y-83272380D01*
X164504761Y-83272380D01*
X164409523Y-83320000D01*
X164361904Y-83367619D01*
X164314285Y-83462857D01*
X164314285Y-83510476D01*
X164361904Y-83605714D01*
X164409523Y-83653333D01*
X164504761Y-83700952D01*
X164695238Y-83700952D01*
X164790476Y-83748571D01*
X164838095Y-83796190D01*
X164885714Y-83891428D01*
X164885714Y-84081904D01*
X164838095Y-84177142D01*
X164790476Y-84224761D01*
X164695238Y-84272380D01*
X164504761Y-84272380D01*
X164409523Y-84224761D01*
X164361904Y-84177142D01*
X164314285Y-84081904D01*
X164314285Y-83891428D01*
X164361904Y-83796190D01*
X164409523Y-83748571D01*
X164504761Y-83700952D01*
X177966666Y-112847380D02*
X178300000Y-112371190D01*
X178538095Y-112847380D02*
X178538095Y-111847380D01*
X178157142Y-111847380D01*
X178061904Y-111895000D01*
X178014285Y-111942619D01*
X177966666Y-112037857D01*
X177966666Y-112180714D01*
X178014285Y-112275952D01*
X178061904Y-112323571D01*
X178157142Y-112371190D01*
X178538095Y-112371190D01*
X177490476Y-112847380D02*
X177300000Y-112847380D01*
X177204761Y-112799761D01*
X177157142Y-112752142D01*
X177061904Y-112609285D01*
X177014285Y-112418809D01*
X177014285Y-112037857D01*
X177061904Y-111942619D01*
X177109523Y-111895000D01*
X177204761Y-111847380D01*
X177395238Y-111847380D01*
X177490476Y-111895000D01*
X177538095Y-111942619D01*
X177585714Y-112037857D01*
X177585714Y-112275952D01*
X177538095Y-112371190D01*
X177490476Y-112418809D01*
X177395238Y-112466428D01*
X177204761Y-112466428D01*
X177109523Y-112418809D01*
X177061904Y-112371190D01*
X177014285Y-112275952D01*
X180982857Y-93797380D02*
X181316190Y-93321190D01*
X181554285Y-93797380D02*
X181554285Y-92797380D01*
X181173333Y-92797380D01*
X181078095Y-92845000D01*
X181030476Y-92892619D01*
X180982857Y-92987857D01*
X180982857Y-93130714D01*
X181030476Y-93225952D01*
X181078095Y-93273571D01*
X181173333Y-93321190D01*
X181554285Y-93321190D01*
X180030476Y-93797380D02*
X180601904Y-93797380D01*
X180316190Y-93797380D02*
X180316190Y-92797380D01*
X180411428Y-92940238D01*
X180506666Y-93035476D01*
X180601904Y-93083095D01*
X179411428Y-92797380D02*
X179316190Y-92797380D01*
X179220952Y-92845000D01*
X179173333Y-92892619D01*
X179125714Y-92987857D01*
X179078095Y-93178333D01*
X179078095Y-93416428D01*
X179125714Y-93606904D01*
X179173333Y-93702142D01*
X179220952Y-93749761D01*
X179316190Y-93797380D01*
X179411428Y-93797380D01*
X179506666Y-93749761D01*
X179554285Y-93702142D01*
X179601904Y-93606904D01*
X179649523Y-93416428D01*
X179649523Y-93178333D01*
X179601904Y-92987857D01*
X179554285Y-92892619D01*
X179506666Y-92845000D01*
X179411428Y-92797380D01*
X180982857Y-98877380D02*
X181316190Y-98401190D01*
X181554285Y-98877380D02*
X181554285Y-97877380D01*
X181173333Y-97877380D01*
X181078095Y-97925000D01*
X181030476Y-97972619D01*
X180982857Y-98067857D01*
X180982857Y-98210714D01*
X181030476Y-98305952D01*
X181078095Y-98353571D01*
X181173333Y-98401190D01*
X181554285Y-98401190D01*
X180030476Y-98877380D02*
X180601904Y-98877380D01*
X180316190Y-98877380D02*
X180316190Y-97877380D01*
X180411428Y-98020238D01*
X180506666Y-98115476D01*
X180601904Y-98163095D01*
X179078095Y-98877380D02*
X179649523Y-98877380D01*
X179363809Y-98877380D02*
X179363809Y-97877380D01*
X179459047Y-98020238D01*
X179554285Y-98115476D01*
X179649523Y-98163095D01*
X178442857Y-105227380D02*
X178776190Y-104751190D01*
X179014285Y-105227380D02*
X179014285Y-104227380D01*
X178633333Y-104227380D01*
X178538095Y-104275000D01*
X178490476Y-104322619D01*
X178442857Y-104417857D01*
X178442857Y-104560714D01*
X178490476Y-104655952D01*
X178538095Y-104703571D01*
X178633333Y-104751190D01*
X179014285Y-104751190D01*
X177490476Y-105227380D02*
X178061904Y-105227380D01*
X177776190Y-105227380D02*
X177776190Y-104227380D01*
X177871428Y-104370238D01*
X177966666Y-104465476D01*
X178061904Y-104513095D01*
X177109523Y-104322619D02*
X177061904Y-104275000D01*
X176966666Y-104227380D01*
X176728571Y-104227380D01*
X176633333Y-104275000D01*
X176585714Y-104322619D01*
X176538095Y-104417857D01*
X176538095Y-104513095D01*
X176585714Y-104655952D01*
X177157142Y-105227380D01*
X176538095Y-105227380D01*
X178442857Y-110307380D02*
X178776190Y-109831190D01*
X179014285Y-110307380D02*
X179014285Y-109307380D01*
X178633333Y-109307380D01*
X178538095Y-109355000D01*
X178490476Y-109402619D01*
X178442857Y-109497857D01*
X178442857Y-109640714D01*
X178490476Y-109735952D01*
X178538095Y-109783571D01*
X178633333Y-109831190D01*
X179014285Y-109831190D01*
X177490476Y-110307380D02*
X178061904Y-110307380D01*
X177776190Y-110307380D02*
X177776190Y-109307380D01*
X177871428Y-109450238D01*
X177966666Y-109545476D01*
X178061904Y-109593095D01*
X177157142Y-109307380D02*
X176538095Y-109307380D01*
X176871428Y-109688333D01*
X176728571Y-109688333D01*
X176633333Y-109735952D01*
X176585714Y-109783571D01*
X176538095Y-109878809D01*
X176538095Y-110116904D01*
X176585714Y-110212142D01*
X176633333Y-110259761D01*
X176728571Y-110307380D01*
X177014285Y-110307380D01*
X177109523Y-110259761D01*
X177157142Y-110212142D01*
X168727380Y-112387142D02*
X168251190Y-112053809D01*
X168727380Y-111815714D02*
X167727380Y-111815714D01*
X167727380Y-112196666D01*
X167775000Y-112291904D01*
X167822619Y-112339523D01*
X167917857Y-112387142D01*
X168060714Y-112387142D01*
X168155952Y-112339523D01*
X168203571Y-112291904D01*
X168251190Y-112196666D01*
X168251190Y-111815714D01*
X168727380Y-113339523D02*
X168727380Y-112768095D01*
X168727380Y-113053809D02*
X167727380Y-113053809D01*
X167870238Y-112958571D01*
X167965476Y-112863333D01*
X168013095Y-112768095D01*
X168060714Y-114196666D02*
X168727380Y-114196666D01*
X167679761Y-113958571D02*
X168394047Y-113720476D01*
X168394047Y-114339523D01*
X132722857Y-102432380D02*
X133056190Y-101956190D01*
X133294285Y-102432380D02*
X133294285Y-101432380D01*
X132913333Y-101432380D01*
X132818095Y-101480000D01*
X132770476Y-101527619D01*
X132722857Y-101622857D01*
X132722857Y-101765714D01*
X132770476Y-101860952D01*
X132818095Y-101908571D01*
X132913333Y-101956190D01*
X133294285Y-101956190D01*
X131770476Y-102432380D02*
X132341904Y-102432380D01*
X132056190Y-102432380D02*
X132056190Y-101432380D01*
X132151428Y-101575238D01*
X132246666Y-101670476D01*
X132341904Y-101718095D01*
X130865714Y-101432380D02*
X131341904Y-101432380D01*
X131389523Y-101908571D01*
X131341904Y-101860952D01*
X131246666Y-101813333D01*
X131008571Y-101813333D01*
X130913333Y-101860952D01*
X130865714Y-101908571D01*
X130818095Y-102003809D01*
X130818095Y-102241904D01*
X130865714Y-102337142D01*
X130913333Y-102384761D01*
X131008571Y-102432380D01*
X131246666Y-102432380D01*
X131341904Y-102384761D01*
X131389523Y-102337142D01*
X142882857Y-102432380D02*
X143216190Y-101956190D01*
X143454285Y-102432380D02*
X143454285Y-101432380D01*
X143073333Y-101432380D01*
X142978095Y-101480000D01*
X142930476Y-101527619D01*
X142882857Y-101622857D01*
X142882857Y-101765714D01*
X142930476Y-101860952D01*
X142978095Y-101908571D01*
X143073333Y-101956190D01*
X143454285Y-101956190D01*
X141930476Y-102432380D02*
X142501904Y-102432380D01*
X142216190Y-102432380D02*
X142216190Y-101432380D01*
X142311428Y-101575238D01*
X142406666Y-101670476D01*
X142501904Y-101718095D01*
X141073333Y-101432380D02*
X141263809Y-101432380D01*
X141359047Y-101480000D01*
X141406666Y-101527619D01*
X141501904Y-101670476D01*
X141549523Y-101860952D01*
X141549523Y-102241904D01*
X141501904Y-102337142D01*
X141454285Y-102384761D01*
X141359047Y-102432380D01*
X141168571Y-102432380D01*
X141073333Y-102384761D01*
X141025714Y-102337142D01*
X140978095Y-102241904D01*
X140978095Y-102003809D01*
X141025714Y-101908571D01*
X141073333Y-101860952D01*
X141168571Y-101813333D01*
X141359047Y-101813333D01*
X141454285Y-101860952D01*
X141501904Y-101908571D01*
X141549523Y-102003809D01*
X133802380Y-86987142D02*
X133326190Y-86653809D01*
X133802380Y-86415714D02*
X132802380Y-86415714D01*
X132802380Y-86796666D01*
X132850000Y-86891904D01*
X132897619Y-86939523D01*
X132992857Y-86987142D01*
X133135714Y-86987142D01*
X133230952Y-86939523D01*
X133278571Y-86891904D01*
X133326190Y-86796666D01*
X133326190Y-86415714D01*
X133802380Y-87939523D02*
X133802380Y-87368095D01*
X133802380Y-87653809D02*
X132802380Y-87653809D01*
X132945238Y-87558571D01*
X133040476Y-87463333D01*
X133088095Y-87368095D01*
X133802380Y-88415714D02*
X133802380Y-88606190D01*
X133754761Y-88701428D01*
X133707142Y-88749047D01*
X133564285Y-88844285D01*
X133373809Y-88891904D01*
X132992857Y-88891904D01*
X132897619Y-88844285D01*
X132850000Y-88796666D01*
X132802380Y-88701428D01*
X132802380Y-88510952D01*
X132850000Y-88415714D01*
X132897619Y-88368095D01*
X132992857Y-88320476D01*
X133230952Y-88320476D01*
X133326190Y-88368095D01*
X133373809Y-88415714D01*
X133421428Y-88510952D01*
X133421428Y-88701428D01*
X133373809Y-88796666D01*
X133326190Y-88844285D01*
X133230952Y-88891904D01*
X145422857Y-88082380D02*
X145756190Y-87606190D01*
X145994285Y-88082380D02*
X145994285Y-87082380D01*
X145613333Y-87082380D01*
X145518095Y-87130000D01*
X145470476Y-87177619D01*
X145422857Y-87272857D01*
X145422857Y-87415714D01*
X145470476Y-87510952D01*
X145518095Y-87558571D01*
X145613333Y-87606190D01*
X145994285Y-87606190D01*
X145041904Y-87177619D02*
X144994285Y-87130000D01*
X144899047Y-87082380D01*
X144660952Y-87082380D01*
X144565714Y-87130000D01*
X144518095Y-87177619D01*
X144470476Y-87272857D01*
X144470476Y-87368095D01*
X144518095Y-87510952D01*
X145089523Y-88082380D01*
X144470476Y-88082380D01*
X143851428Y-87082380D02*
X143756190Y-87082380D01*
X143660952Y-87130000D01*
X143613333Y-87177619D01*
X143565714Y-87272857D01*
X143518095Y-87463333D01*
X143518095Y-87701428D01*
X143565714Y-87891904D01*
X143613333Y-87987142D01*
X143660952Y-88034761D01*
X143756190Y-88082380D01*
X143851428Y-88082380D01*
X143946666Y-88034761D01*
X143994285Y-87987142D01*
X144041904Y-87891904D01*
X144089523Y-87701428D01*
X144089523Y-87463333D01*
X144041904Y-87272857D01*
X143994285Y-87177619D01*
X143946666Y-87130000D01*
X143851428Y-87082380D01*
D19*
X169668157Y-102752369D02*
X170133420Y-103217631D01*
X170160788Y-103299737D01*
X170160788Y-103354473D01*
X170133420Y-103436579D01*
X170023946Y-103546052D01*
X169941841Y-103573420D01*
X169887104Y-103573420D01*
X169804999Y-103546052D01*
X169339737Y-103080789D01*
X169339737Y-104230262D02*
X169668157Y-103901841D01*
X169503947Y-104066052D02*
X168929211Y-103491315D01*
X169066053Y-103518684D01*
X169175526Y-103518684D01*
X169257631Y-103491315D01*
X175670260Y-102651318D02*
X175396576Y-102925002D01*
X175889207Y-102760792D02*
X175122892Y-102377634D01*
X175506049Y-103143949D01*
X174821839Y-102678686D02*
X174493419Y-103007107D01*
X175232365Y-103417633D02*
X174657629Y-102842897D01*
X174876576Y-103773422D02*
X174493419Y-103390265D01*
X174548155Y-103445002D02*
X174493419Y-103445002D01*
X174411313Y-103472370D01*
X174329208Y-103554475D01*
X174301840Y-103636580D01*
X174329208Y-103718686D01*
X174630261Y-104019738D01*
X174329208Y-103718686D02*
X174247103Y-103691317D01*
X174164998Y-103718686D01*
X174082893Y-103800791D01*
X174055524Y-103882896D01*
X174082893Y-103965001D01*
X174383945Y-104266054D01*
X173863945Y-104731316D02*
X173946051Y-104703948D01*
X174055524Y-104594474D01*
X174082893Y-104512369D01*
X174055524Y-104430264D01*
X173836577Y-104211317D01*
X173754472Y-104183948D01*
X173672367Y-104211317D01*
X173562893Y-104320790D01*
X173535525Y-104402896D01*
X173562893Y-104485001D01*
X173617630Y-104539738D01*
X173946051Y-104320790D01*
X172988157Y-104895527D02*
X173453419Y-105360790D01*
X173535525Y-105388158D01*
X173590261Y-105388158D01*
X173672367Y-105360790D01*
X173754472Y-105278684D01*
X173781840Y-105196579D01*
X173343946Y-105251316D02*
X173426051Y-105223948D01*
X173535525Y-105114474D01*
X173562893Y-105032369D01*
X173562893Y-104977632D01*
X173535525Y-104895527D01*
X173371314Y-104731316D01*
X173289209Y-104703948D01*
X173234472Y-104703948D01*
X173152367Y-104731316D01*
X173042893Y-104840790D01*
X173015525Y-104922895D01*
X172851315Y-105798684D02*
X172550262Y-105497632D01*
X172522894Y-105415526D01*
X172550262Y-105333421D01*
X172659736Y-105223948D01*
X172741841Y-105196579D01*
X172823946Y-105771316D02*
X172906051Y-105743947D01*
X173042893Y-105607105D01*
X173070262Y-105525000D01*
X173042893Y-105442895D01*
X172988157Y-105388158D01*
X172906051Y-105360790D01*
X172823946Y-105388158D01*
X172687104Y-105525000D01*
X172604999Y-105552368D01*
X172167105Y-105826052D02*
X172194473Y-105743947D01*
X172194473Y-105689210D01*
X172167105Y-105607105D01*
X172139736Y-105579737D01*
X172057631Y-105552368D01*
X172002894Y-105552368D01*
X171920789Y-105579737D01*
X171811316Y-105689210D01*
X171783947Y-105771316D01*
X171783947Y-105826052D01*
X171811316Y-105908158D01*
X171838684Y-105935526D01*
X171920789Y-105962894D01*
X171975526Y-105962894D01*
X172057631Y-105935526D01*
X172167105Y-105826052D01*
X172249210Y-105798684D01*
X172303947Y-105798684D01*
X172386052Y-105826052D01*
X172495525Y-105935526D01*
X172522894Y-106017631D01*
X172522894Y-106072368D01*
X172495525Y-106154473D01*
X172386052Y-106263947D01*
X172303947Y-106291315D01*
X172249210Y-106291315D01*
X172167105Y-106263947D01*
X172057631Y-106154473D01*
X172030263Y-106072368D01*
X172030263Y-106017631D01*
X172057631Y-105935526D01*
X171619737Y-106373420D02*
X171647105Y-106291315D01*
X171647105Y-106236578D01*
X171619737Y-106154473D01*
X171592368Y-106127105D01*
X171510263Y-106099736D01*
X171455526Y-106099736D01*
X171373421Y-106127105D01*
X171263948Y-106236578D01*
X171236579Y-106318683D01*
X171236579Y-106373420D01*
X171263948Y-106455525D01*
X171291316Y-106482894D01*
X171373421Y-106510262D01*
X171428158Y-106510262D01*
X171510263Y-106482894D01*
X171619737Y-106373420D01*
X171701842Y-106346052D01*
X171756579Y-106346052D01*
X171838684Y-106373420D01*
X171948158Y-106482894D01*
X171975526Y-106564999D01*
X171975526Y-106619736D01*
X171948158Y-106701841D01*
X171838684Y-106811315D01*
X171756579Y-106838683D01*
X171701842Y-106838683D01*
X171619737Y-106811315D01*
X171510263Y-106701841D01*
X171482895Y-106619736D01*
X171482895Y-106564999D01*
X171510263Y-106482894D01*
X171482895Y-107167104D02*
X170908158Y-106592367D01*
X170689211Y-106811315D01*
X170661843Y-106893420D01*
X170661843Y-106948157D01*
X170689211Y-107030262D01*
X170771316Y-107112367D01*
X170853422Y-107139735D01*
X170908158Y-107139735D01*
X170990264Y-107112367D01*
X171209211Y-106893420D01*
X170771316Y-107550261D02*
X170497632Y-107823945D01*
X170990264Y-107659735D02*
X170223948Y-107276577D01*
X170607106Y-108042893D01*
X170196580Y-108015524D02*
X169758686Y-108453419D01*
X169567107Y-108754471D02*
X169293423Y-109028155D01*
X169786054Y-108863945D02*
X169019739Y-108480787D01*
X169402896Y-109247102D01*
X168636581Y-108863945D02*
X169101844Y-109329207D01*
X169129212Y-109411313D01*
X169129212Y-109466049D01*
X169101844Y-109548155D01*
X168992370Y-109657628D01*
X168910265Y-109684997D01*
X168855528Y-109684997D01*
X168773423Y-109657628D01*
X168308160Y-109192365D01*
D18*
X142366904Y-110577380D02*
X142366904Y-111386904D01*
X142319285Y-111482142D01*
X142271666Y-111529761D01*
X142176428Y-111577380D01*
X141985952Y-111577380D01*
X141890714Y-111529761D01*
X141843095Y-111482142D01*
X141795476Y-111386904D01*
X141795476Y-110577380D01*
X140890714Y-110910714D02*
X140890714Y-111577380D01*
X141128809Y-110529761D02*
X141366904Y-111244047D01*
X140747857Y-111244047D01*
X135762380Y-80541904D02*
X134762380Y-80541904D01*
X134762380Y-80780000D01*
X134810000Y-80922857D01*
X134905238Y-81018095D01*
X135000476Y-81065714D01*
X135190952Y-81113333D01*
X135333809Y-81113333D01*
X135524285Y-81065714D01*
X135619523Y-81018095D01*
X135714761Y-80922857D01*
X135762380Y-80780000D01*
X135762380Y-80541904D01*
X134762380Y-81446666D02*
X134762380Y-82065714D01*
X135143333Y-81732380D01*
X135143333Y-81875238D01*
X135190952Y-81970476D01*
X135238571Y-82018095D01*
X135333809Y-82065714D01*
X135571904Y-82065714D01*
X135667142Y-82018095D01*
X135714761Y-81970476D01*
X135762380Y-81875238D01*
X135762380Y-81589523D01*
X135714761Y-81494285D01*
X135667142Y-81446666D01*
X144652380Y-80541904D02*
X143652380Y-80541904D01*
X143652380Y-80780000D01*
X143700000Y-80922857D01*
X143795238Y-81018095D01*
X143890476Y-81065714D01*
X144080952Y-81113333D01*
X144223809Y-81113333D01*
X144414285Y-81065714D01*
X144509523Y-81018095D01*
X144604761Y-80922857D01*
X144652380Y-80780000D01*
X144652380Y-80541904D01*
X143985714Y-81970476D02*
X144652380Y-81970476D01*
X143604761Y-81732380D02*
X144319047Y-81494285D01*
X144319047Y-82113333D01*
X131548095Y-107767380D02*
X131548095Y-106767380D01*
X131310000Y-106767380D01*
X131167142Y-106815000D01*
X131071904Y-106910238D01*
X131024285Y-107005476D01*
X130976666Y-107195952D01*
X130976666Y-107338809D01*
X131024285Y-107529285D01*
X131071904Y-107624523D01*
X131167142Y-107719761D01*
X131310000Y-107767380D01*
X131548095Y-107767380D01*
X130024285Y-107767380D02*
X130595714Y-107767380D01*
X130310000Y-107767380D02*
X130310000Y-106767380D01*
X130405238Y-106910238D01*
X130500476Y-107005476D01*
X130595714Y-107053095D01*
X183967380Y-81176904D02*
X182967380Y-81176904D01*
X182967380Y-81415000D01*
X183015000Y-81557857D01*
X183110238Y-81653095D01*
X183205476Y-81700714D01*
X183395952Y-81748333D01*
X183538809Y-81748333D01*
X183729285Y-81700714D01*
X183824523Y-81653095D01*
X183919761Y-81557857D01*
X183967380Y-81415000D01*
X183967380Y-81176904D01*
X182967380Y-82653095D02*
X182967380Y-82176904D01*
X183443571Y-82129285D01*
X183395952Y-82176904D01*
X183348333Y-82272142D01*
X183348333Y-82510238D01*
X183395952Y-82605476D01*
X183443571Y-82653095D01*
X183538809Y-82700714D01*
X183776904Y-82700714D01*
X183872142Y-82653095D01*
X183919761Y-82605476D01*
X183967380Y-82510238D01*
X183967380Y-82272142D01*
X183919761Y-82176904D01*
X183872142Y-82129285D01*
X181427380Y-74922142D02*
X180951190Y-74588809D01*
X181427380Y-74350714D02*
X180427380Y-74350714D01*
X180427380Y-74731666D01*
X180475000Y-74826904D01*
X180522619Y-74874523D01*
X180617857Y-74922142D01*
X180760714Y-74922142D01*
X180855952Y-74874523D01*
X180903571Y-74826904D01*
X180951190Y-74731666D01*
X180951190Y-74350714D01*
X180522619Y-75303095D02*
X180475000Y-75350714D01*
X180427380Y-75445952D01*
X180427380Y-75684047D01*
X180475000Y-75779285D01*
X180522619Y-75826904D01*
X180617857Y-75874523D01*
X180713095Y-75874523D01*
X180855952Y-75826904D01*
X181427380Y-75255476D01*
X181427380Y-75874523D01*
X180522619Y-76255476D02*
X180475000Y-76303095D01*
X180427380Y-76398333D01*
X180427380Y-76636428D01*
X180475000Y-76731666D01*
X180522619Y-76779285D01*
X180617857Y-76826904D01*
X180713095Y-76826904D01*
X180855952Y-76779285D01*
X181427380Y-76207857D01*
X181427380Y-76826904D01*
X135358095Y-113482380D02*
X135358095Y-112482380D01*
X135120000Y-112482380D01*
X134977142Y-112530000D01*
X134881904Y-112625238D01*
X134834285Y-112720476D01*
X134786666Y-112910952D01*
X134786666Y-113053809D01*
X134834285Y-113244285D01*
X134881904Y-113339523D01*
X134977142Y-113434761D01*
X135120000Y-113482380D01*
X135358095Y-113482380D01*
X134405714Y-112577619D02*
X134358095Y-112530000D01*
X134262857Y-112482380D01*
X134024761Y-112482380D01*
X133929523Y-112530000D01*
X133881904Y-112577619D01*
X133834285Y-112672857D01*
X133834285Y-112768095D01*
X133881904Y-112910952D01*
X134453333Y-113482380D01*
X133834285Y-113482380D01*
X137612380Y-118102142D02*
X137136190Y-117768809D01*
X137612380Y-117530714D02*
X136612380Y-117530714D01*
X136612380Y-117911666D01*
X136660000Y-118006904D01*
X136707619Y-118054523D01*
X136802857Y-118102142D01*
X136945714Y-118102142D01*
X137040952Y-118054523D01*
X137088571Y-118006904D01*
X137136190Y-117911666D01*
X137136190Y-117530714D01*
X136707619Y-118483095D02*
X136660000Y-118530714D01*
X136612380Y-118625952D01*
X136612380Y-118864047D01*
X136660000Y-118959285D01*
X136707619Y-119006904D01*
X136802857Y-119054523D01*
X136898095Y-119054523D01*
X137040952Y-119006904D01*
X137612380Y-118435476D01*
X137612380Y-119054523D01*
X137612380Y-120006904D02*
X137612380Y-119435476D01*
X137612380Y-119721190D02*
X136612380Y-119721190D01*
X136755238Y-119625952D01*
X136850476Y-119530714D01*
X136898095Y-119435476D01*
X125183571Y-87931666D02*
X125183571Y-87598333D01*
X125707380Y-87598333D02*
X124707380Y-87598333D01*
X124707380Y-88074523D01*
X125707380Y-88979285D02*
X125707380Y-88407857D01*
X125707380Y-88693571D02*
X124707380Y-88693571D01*
X124850238Y-88598333D01*
X124945476Y-88503095D01*
X124993095Y-88407857D01*
%LPC*%
D20*
X153990000Y-113030000D03*
X155890000Y-113030000D03*
D21*
X176630000Y-86360000D03*
D22*
X176530000Y-83820000D03*
X176530000Y-81280000D03*
X176630000Y-78740000D03*
X173890000Y-78740000D03*
X173990000Y-81280000D03*
X173990000Y-83820000D03*
X173890000Y-86360000D03*
D23*
X119380000Y-73660000D03*
X119380000Y-119380000D03*
X185420000Y-119380000D03*
X185420000Y-73660000D03*
D24*
X183515000Y-77470000D03*
D25*
X183515000Y-80010000D03*
D26*
X186055000Y-89685000D03*
X181555000Y-89685000D03*
X186055000Y-83185000D03*
X181555000Y-83185000D03*
D27*
X118745000Y-102235000D03*
D28*
X118745000Y-109855000D03*
D29*
X137700000Y-109220000D03*
X139700000Y-109220000D03*
D27*
X126365000Y-90805000D03*
D28*
X118745000Y-90805000D03*
D30*
X168202893Y-93272893D03*
D31*
G36*
X169070513Y-93184505D02*
G01*
X168114505Y-94140513D01*
X167335273Y-93361281D01*
X168291281Y-92405273D01*
X169070513Y-93184505D01*
X169070513Y-93184505D01*
G37*
D30*
X169617107Y-94687107D03*
D31*
G36*
X170484727Y-94598719D02*
G01*
X169528719Y-95554727D01*
X168749487Y-94775495D01*
X169705495Y-93819487D01*
X170484727Y-94598719D01*
X170484727Y-94598719D01*
G37*
D32*
X123825000Y-118385000D03*
X123825000Y-95885000D03*
D26*
X132795000Y-106680000D03*
D33*
X137795000Y-106680000D03*
D34*
X146685000Y-118850000D03*
X146685000Y-116100000D03*
D35*
X158980000Y-109220000D03*
X155980000Y-109220000D03*
D30*
X159457107Y-103577107D03*
D31*
G36*
X158589487Y-103665495D02*
G01*
X159545495Y-102709487D01*
X160324727Y-103488719D01*
X159368719Y-104444727D01*
X158589487Y-103665495D01*
X158589487Y-103665495D01*
G37*
D30*
X158042893Y-102162893D03*
D31*
G36*
X157175273Y-102251281D02*
G01*
X158131281Y-101295273D01*
X158910513Y-102074505D01*
X157954505Y-103030513D01*
X157175273Y-102251281D01*
X157175273Y-102251281D01*
G37*
D30*
X160582893Y-104702893D03*
D31*
G36*
X159715273Y-104791281D02*
G01*
X160671281Y-103835273D01*
X161450513Y-104614505D01*
X160494505Y-105570513D01*
X159715273Y-104791281D01*
X159715273Y-104791281D01*
G37*
D30*
X161997107Y-106117107D03*
D31*
G36*
X161129487Y-106205495D02*
G01*
X162085495Y-105249487D01*
X162864727Y-106028719D01*
X161908719Y-106984727D01*
X161129487Y-106205495D01*
X161129487Y-106205495D01*
G37*
D29*
X169180000Y-115570000D03*
X171180000Y-115570000D03*
X161020000Y-115570000D03*
X159020000Y-115570000D03*
D36*
X179070000Y-88265000D03*
X179070000Y-91265000D03*
D37*
X176530000Y-89440000D03*
X176530000Y-91440000D03*
D22*
X167640000Y-118110000D03*
X170180000Y-118110000D03*
D21*
X172720000Y-118110000D03*
D22*
X157480000Y-118110000D03*
X160020000Y-118110000D03*
D21*
X162560000Y-118110000D03*
X185420000Y-93345000D03*
D22*
X185420000Y-95885000D03*
X185420000Y-98425000D03*
D38*
X121285000Y-82395000D03*
X121285000Y-78895000D03*
X131925000Y-75565000D03*
X128425000Y-75565000D03*
X137315000Y-75565000D03*
X140815000Y-75565000D03*
D30*
X168202893Y-90877107D03*
D31*
G36*
X168114505Y-90009487D02*
G01*
X169070513Y-90965495D01*
X168291281Y-91744727D01*
X167335273Y-90788719D01*
X168114505Y-90009487D01*
X168114505Y-90009487D01*
G37*
D30*
X169617107Y-89462893D03*
D31*
G36*
X169528719Y-88595273D02*
G01*
X170484727Y-89551281D01*
X169705495Y-90330513D01*
X168749487Y-89374505D01*
X169528719Y-88595273D01*
X169528719Y-88595273D01*
G37*
D39*
X186055000Y-77790000D03*
X186055000Y-79690000D03*
D20*
X179390000Y-114935000D03*
X181290000Y-114935000D03*
X181930000Y-95885000D03*
X183830000Y-95885000D03*
X179390000Y-102235000D03*
X181290000Y-102235000D03*
X179390000Y-107315000D03*
X181290000Y-107315000D03*
D39*
X160020000Y-113980000D03*
X160020000Y-112080000D03*
X179070000Y-77790000D03*
X179070000Y-79690000D03*
D20*
X171130000Y-83820000D03*
X169230000Y-83820000D03*
X181290000Y-112395000D03*
X179390000Y-112395000D03*
X183830000Y-93345000D03*
X181930000Y-93345000D03*
X183830000Y-98425000D03*
X181930000Y-98425000D03*
X181290000Y-104775000D03*
X179390000Y-104775000D03*
X181290000Y-109855000D03*
X179390000Y-109855000D03*
D39*
X170180000Y-112080000D03*
X170180000Y-113980000D03*
D20*
X131130000Y-100330000D03*
X133030000Y-100330000D03*
X141290000Y-100330000D03*
X143190000Y-100330000D03*
D39*
X130810000Y-88580000D03*
X130810000Y-86680000D03*
D20*
X141920000Y-87376000D03*
X140020000Y-87376000D03*
D40*
X164043922Y-104074575D03*
D31*
G36*
X163792475Y-104793278D02*
G01*
X163325219Y-104326022D01*
X164295369Y-103355872D01*
X164762625Y-103823128D01*
X163792475Y-104793278D01*
X163792475Y-104793278D01*
G37*
D40*
X163478166Y-103508819D03*
D31*
G36*
X163226719Y-104227522D02*
G01*
X162759463Y-103760266D01*
X163729613Y-102790116D01*
X164196869Y-103257372D01*
X163226719Y-104227522D01*
X163226719Y-104227522D01*
G37*
D40*
X162912410Y-102943063D03*
D31*
G36*
X162660963Y-103661766D02*
G01*
X162193707Y-103194510D01*
X163163857Y-102224360D01*
X163631113Y-102691616D01*
X162660963Y-103661766D01*
X162660963Y-103661766D01*
G37*
D40*
X162346653Y-102377307D03*
D31*
G36*
X162095206Y-103096010D02*
G01*
X161627950Y-102628754D01*
X162598100Y-101658604D01*
X163065356Y-102125860D01*
X162095206Y-103096010D01*
X162095206Y-103096010D01*
G37*
D40*
X161782693Y-101813347D03*
D31*
G36*
X161531246Y-102532050D02*
G01*
X161063990Y-102064794D01*
X162034140Y-101094644D01*
X162501396Y-101561900D01*
X161531246Y-102532050D01*
X161531246Y-102532050D01*
G37*
D40*
X161216937Y-101247590D03*
D31*
G36*
X160965490Y-101966293D02*
G01*
X160498234Y-101499037D01*
X161468384Y-100528887D01*
X161935640Y-100996143D01*
X160965490Y-101966293D01*
X160965490Y-101966293D01*
G37*
D40*
X160651181Y-100681834D03*
D31*
G36*
X160399734Y-101400537D02*
G01*
X159932478Y-100933281D01*
X160902628Y-99963131D01*
X161369884Y-100430387D01*
X160399734Y-101400537D01*
X160399734Y-101400537D01*
G37*
D40*
X160085425Y-100116078D03*
D31*
G36*
X159833978Y-100834781D02*
G01*
X159366722Y-100367525D01*
X160336872Y-99397375D01*
X160804128Y-99864631D01*
X159833978Y-100834781D01*
X159833978Y-100834781D01*
G37*
D40*
X160085425Y-98003922D03*
D31*
G36*
X160336872Y-98722625D02*
G01*
X159366722Y-97752475D01*
X159833978Y-97285219D01*
X160804128Y-98255369D01*
X160336872Y-98722625D01*
X160336872Y-98722625D01*
G37*
D40*
X160651181Y-97438166D03*
D31*
G36*
X160902628Y-98156869D02*
G01*
X159932478Y-97186719D01*
X160399734Y-96719463D01*
X161369884Y-97689613D01*
X160902628Y-98156869D01*
X160902628Y-98156869D01*
G37*
D40*
X161216937Y-96872410D03*
D31*
G36*
X161468384Y-97591113D02*
G01*
X160498234Y-96620963D01*
X160965490Y-96153707D01*
X161935640Y-97123857D01*
X161468384Y-97591113D01*
X161468384Y-97591113D01*
G37*
D40*
X161782693Y-96306653D03*
D31*
G36*
X162034140Y-97025356D02*
G01*
X161063990Y-96055206D01*
X161531246Y-95587950D01*
X162501396Y-96558100D01*
X162034140Y-97025356D01*
X162034140Y-97025356D01*
G37*
D40*
X162346653Y-95742693D03*
D31*
G36*
X162598100Y-96461396D02*
G01*
X161627950Y-95491246D01*
X162095206Y-95023990D01*
X163065356Y-95994140D01*
X162598100Y-96461396D01*
X162598100Y-96461396D01*
G37*
D40*
X162912410Y-95176937D03*
D31*
G36*
X163163857Y-95895640D02*
G01*
X162193707Y-94925490D01*
X162660963Y-94458234D01*
X163631113Y-95428384D01*
X163163857Y-95895640D01*
X163163857Y-95895640D01*
G37*
D40*
X163478166Y-94611181D03*
D31*
G36*
X163729613Y-95329884D02*
G01*
X162759463Y-94359734D01*
X163226719Y-93892478D01*
X164196869Y-94862628D01*
X163729613Y-95329884D01*
X163729613Y-95329884D01*
G37*
D40*
X164043922Y-94045425D03*
D31*
G36*
X164295369Y-94764128D02*
G01*
X163325219Y-93793978D01*
X163792475Y-93326722D01*
X164762625Y-94296872D01*
X164295369Y-94764128D01*
X164295369Y-94764128D01*
G37*
D40*
X166156078Y-94045425D03*
D31*
G36*
X165904631Y-94764128D02*
G01*
X165437375Y-94296872D01*
X166407525Y-93326722D01*
X166874781Y-93793978D01*
X165904631Y-94764128D01*
X165904631Y-94764128D01*
G37*
D40*
X166721834Y-94611181D03*
D31*
G36*
X166470387Y-95329884D02*
G01*
X166003131Y-94862628D01*
X166973281Y-93892478D01*
X167440537Y-94359734D01*
X166470387Y-95329884D01*
X166470387Y-95329884D01*
G37*
D40*
X167287590Y-95176937D03*
D31*
G36*
X167036143Y-95895640D02*
G01*
X166568887Y-95428384D01*
X167539037Y-94458234D01*
X168006293Y-94925490D01*
X167036143Y-95895640D01*
X167036143Y-95895640D01*
G37*
D40*
X167853347Y-95742693D03*
D31*
G36*
X167601900Y-96461396D02*
G01*
X167134644Y-95994140D01*
X168104794Y-95023990D01*
X168572050Y-95491246D01*
X167601900Y-96461396D01*
X167601900Y-96461396D01*
G37*
D40*
X168417307Y-96306653D03*
D31*
G36*
X168165860Y-97025356D02*
G01*
X167698604Y-96558100D01*
X168668754Y-95587950D01*
X169136010Y-96055206D01*
X168165860Y-97025356D01*
X168165860Y-97025356D01*
G37*
D40*
X168983063Y-96872410D03*
D31*
G36*
X168731616Y-97591113D02*
G01*
X168264360Y-97123857D01*
X169234510Y-96153707D01*
X169701766Y-96620963D01*
X168731616Y-97591113D01*
X168731616Y-97591113D01*
G37*
D40*
X169548819Y-97438166D03*
D31*
G36*
X169297372Y-98156869D02*
G01*
X168830116Y-97689613D01*
X169800266Y-96719463D01*
X170267522Y-97186719D01*
X169297372Y-98156869D01*
X169297372Y-98156869D01*
G37*
D40*
X170114575Y-98003922D03*
D31*
G36*
X169863128Y-98722625D02*
G01*
X169395872Y-98255369D01*
X170366022Y-97285219D01*
X170833278Y-97752475D01*
X169863128Y-98722625D01*
X169863128Y-98722625D01*
G37*
D40*
X170114575Y-100116078D03*
D31*
G36*
X170366022Y-100834781D02*
G01*
X169395872Y-99864631D01*
X169863128Y-99397375D01*
X170833278Y-100367525D01*
X170366022Y-100834781D01*
X170366022Y-100834781D01*
G37*
D40*
X169548819Y-100681834D03*
D31*
G36*
X169800266Y-101400537D02*
G01*
X168830116Y-100430387D01*
X169297372Y-99963131D01*
X170267522Y-100933281D01*
X169800266Y-101400537D01*
X169800266Y-101400537D01*
G37*
D40*
X168983063Y-101247590D03*
D31*
G36*
X169234510Y-101966293D02*
G01*
X168264360Y-100996143D01*
X168731616Y-100528887D01*
X169701766Y-101499037D01*
X169234510Y-101966293D01*
X169234510Y-101966293D01*
G37*
D40*
X168417307Y-101813347D03*
D31*
G36*
X168668754Y-102532050D02*
G01*
X167698604Y-101561900D01*
X168165860Y-101094644D01*
X169136010Y-102064794D01*
X168668754Y-102532050D01*
X168668754Y-102532050D01*
G37*
D40*
X167853347Y-102377307D03*
D31*
G36*
X168104794Y-103096010D02*
G01*
X167134644Y-102125860D01*
X167601900Y-101658604D01*
X168572050Y-102628754D01*
X168104794Y-103096010D01*
X168104794Y-103096010D01*
G37*
D40*
X167287590Y-102943063D03*
D31*
G36*
X167539037Y-103661766D02*
G01*
X166568887Y-102691616D01*
X167036143Y-102224360D01*
X168006293Y-103194510D01*
X167539037Y-103661766D01*
X167539037Y-103661766D01*
G37*
D40*
X166721834Y-103508819D03*
D31*
G36*
X166973281Y-104227522D02*
G01*
X166003131Y-103257372D01*
X166470387Y-102790116D01*
X167440537Y-103760266D01*
X166973281Y-104227522D01*
X166973281Y-104227522D01*
G37*
D40*
X166156078Y-104074575D03*
D31*
G36*
X166407525Y-104793278D02*
G01*
X165437375Y-103823128D01*
X165904631Y-103355872D01*
X166874781Y-104326022D01*
X166407525Y-104793278D01*
X166407525Y-104793278D01*
G37*
D41*
X130810000Y-97790000D03*
D28*
X135890000Y-90170000D03*
X133350000Y-97790000D03*
X133350000Y-90170000D03*
X135890000Y-97790000D03*
X130810000Y-90170000D03*
X141605000Y-90170000D03*
X146685000Y-97790000D03*
X144145000Y-90170000D03*
X144145000Y-97790000D03*
X146685000Y-90170000D03*
D41*
X141605000Y-97790000D03*
D42*
X143905000Y-119990000D03*
X139305000Y-119990000D03*
X141605000Y-119990000D03*
D43*
X141605000Y-113690000D03*
D42*
X133110000Y-84430000D03*
X128510000Y-84430000D03*
X130810000Y-84430000D03*
D43*
X130810000Y-78130000D03*
X139700000Y-78130000D03*
D42*
X139700000Y-84430000D03*
X137400000Y-84430000D03*
X142000000Y-84430000D03*
D44*
X132615000Y-112395000D03*
X132615000Y-109855000D03*
X126465000Y-109855000D03*
X126465000Y-112395000D03*
D22*
X182880000Y-102235000D03*
X185420000Y-102235000D03*
X182880000Y-104775000D03*
X185420000Y-104775000D03*
X182880000Y-107315000D03*
X185420000Y-107315000D03*
X182880000Y-109855000D03*
X185420000Y-109855000D03*
X182880000Y-112395000D03*
X185420000Y-112395000D03*
X182880000Y-114935000D03*
D21*
X185420000Y-114935000D03*
D45*
X183515000Y-77640000D03*
X183515000Y-79840000D03*
D39*
X180975000Y-79690000D03*
X180975000Y-77790000D03*
D46*
X131985000Y-115570000D03*
X135985000Y-115570000D03*
D22*
X147855000Y-108685000D03*
X147955000Y-105945000D03*
X150495000Y-108685000D03*
X150295000Y-106045000D03*
X153035000Y-108585000D03*
D21*
X153235000Y-106045000D03*
D47*
X132535000Y-118745000D03*
X135435000Y-118745000D03*
D48*
X122555000Y-85015000D03*
X122555000Y-91515000D03*
D49*
X157480000Y-105410000D03*
X170180000Y-92075000D03*
X150395001Y-100965000D03*
X170815000Y-78740000D03*
X170993495Y-105231505D03*
X153035000Y-100965000D03*
X168910000Y-81915000D03*
X151765000Y-99695000D03*
X142875000Y-105410000D03*
X164956078Y-92710000D03*
M02*
